<?xml version="1.0" standalone="no"?>
<!DOCTYPE svg PUBLIC "-//W3C//DTD SVG 1.1//EN" "http://www.w3.org/Graphics/SVG/1.1/DTD/svg11.dtd" >
<svg>
<metadata>
Created by FontForge 20120731 at Thu May 19 17:35:14 2016
 By ,,,
Copyright (c) 2010 by Christoph Dunst. All rights reserved.
</metadata>
<defs>
<font id="NovelSansPro-Regular" horiz-adv-x="376" >
  <font-face 
    font-family="Novel Sans Pro"
    font-weight="400"
    font-stretch="normal"
    units-per-em="1000"
    panose-1="2 0 0 0 0 0 0 0 0 0"
    ascent="800"
    descent="-200"
    x-height="503"
    cap-height="710"
    bbox="-57 -331.331 1709 1075"
    underline-thickness="50"
    underline-position="-50"
    unicode-range="U+0020-FF8F"
  />
<missing-glyph horiz-adv-x="710" 
d="M715 5l-10 -10l-350 350l-350 -350l-10 10l350 350l-350 350l10 10l350 -350l350 350l10 -10l-350 -350z" />
    <glyph glyph-name="T_T" unicode="TT" horiz-adv-x="1156" 
d="M1114 710l-6 -82h-225v-628h-97v628h-423v-628h-97v628h-224v82h1072z" />
    <glyph glyph-name="f_f" unicode="ff" horiz-adv-x="675" 
d="M720 764l-6 -71q-42 10 -81 10q-51 0 -80 -23t-36 -78q-3 -23 -3 -63v-48h137l-5 -72h-132v-419h-90v419h-236v-419h-91v419h-80v63l80 9v32q0 74 11 118q35 136 192 136q39 0 70 -9l-7 -71q-30 6 -60 6q-50 0 -77 -22.5t-35 -78.5q-3 -22 -3 -63v-48h236v32q0 74 11 118
q17 67 68.5 101.5t124.5 34.5q55 0 92 -13z" />
    <glyph glyph-name="f_i" unicode="fi" horiz-adv-x="591" 
d="M463 759l-7 -71q-67 15 -121 15q-80 0 -116 -41q-15 -16 -22 -41.5t-8 -45t-1 -57.5v-27h136l-5 -72h-131v-419h-91v419h-80v63l80 9v18q0 68 9.5 115.5t41.5 83.5q60 69 187 69q73 0 128 -18zM514 0h-91v493l91 8v-501z" />
    <glyph glyph-name="f_l" unicode="fl" horiz-adv-x="591" 
d="M514 0h-91v693q-41 10 -88 10q-80 0 -116 -41q-15 -16 -22 -41.5t-8 -45t-1 -57.5v-27h136l-5 -72h-131v-419h-91v419h-80v63l80 9v18q0 68 9.5 115.5t41.5 83.5q60 69 187 69q59 0 103 -11l76 8v-774z" />
    <glyph glyph-name="f_b" unicode="fb" horiz-adv-x="925" 
d="M875 264q0 -127 -72.5 -201t-202.5 -74q-94 0 -184 31q7 63 7 98v575q-41 10 -88 10q-80 0 -116 -41q-15 -16 -22 -41.5t-8 -45t-1 -57.5v-27h136l-5 -72h-131v-419h-91v419h-80v63l80 9v18q0 68 9.5 115.5t41.5 83.5q60 69 187 69q59 0 103 -11l76 8v-264q0 -42 -4 -70
q57 72 154 72q91 0 151 -65t60 -183zM781 251q0 90 -40.5 137t-96.5 47q-74 0 -130 -61v-233q0 -46 -3 -62q48 -17 100 -17q79 0 124.5 49t45.5 140z" />
    <glyph glyph-name="f_h" unicode="fh" horiz-adv-x="914" 
d="M839 0h-91v262q0 27 -2 61q-8 111 -109 111q-69 0 -123 -57v-377h-91v693q-41 10 -88 10q-80 0 -116 -41q-15 -16 -22 -41.5t-8 -45t-1 -57.5v-27h136l-5 -72h-131v-419h-91v419h-80v63l80 9v18q0 68 9.5 115.5t41.5 83.5q60 69 187 69q59 0 103 -11l76 8v-254
q0 -50 -4 -74q60 66 153 66q115 0 157 -95q19 -44 19 -143v-274z" />
    <glyph glyph-name="f_j" unicode="fj" horiz-adv-x="591" 
d="M463 759l-7 -71q-67 15 -121 15q-80 0 -116 -41q-15 -16 -22 -41.5t-8 -45t-1 -57.5v-27h136l-5 -72h-131v-419h-91v419h-80v63l80 9v18q0 68 9.5 115.5t41.5 83.5q60 69 187 69q73 0 128 -18zM514 501v-430q0 -81 -15.5 -134.5t-45.5 -92t-91 -90.5l-52 55q73 74 93 122
t20 150v412z" />
    <glyph glyph-name="f_k" unicode="fk" horiz-adv-x="894" 
d="M514 0h-91v693q-41 10 -88 10q-80 0 -116 -41q-15 -16 -22 -41.5t-8 -45t-1 -57.5v-27h136l-5 -72h-131v-419h-91v419h-80v63l80 9v18q0 68 9.5 115.5t41.5 83.5q60 69 187 69q59 0 103 -11l76 8v-774zM860 0h-115l-212 264l207 239h108l-209 -234z" />
    <glyph glyph-name="f_t" unicode="ft" horiz-adv-x="719" 
d="M678 84v-71q-51 -22 -101 -22q-160 0 -160 163v265h-229v-419h-91v419h-80v63l80 9v32q0 74 11 118q17 68 68 102t125 34q49 0 84 -12l-6 -71q-41 9 -74 9q-50 0 -77.5 -22.5t-36.5 -77.5q-3 -23 -3 -64v-48h233l13 102l74 1v-103h153l-5 -72h-148v-256q0 -96 87 -96
q38 0 83 17z" />
    <glyph glyph-name="f_f_i" unicode="ffi" horiz-adv-x="918" 
d="M790 759l-8 -71q-65 15 -121 15q-79 0 -115 -41q-21 -23 -26.5 -55.5t-5.5 -88.5v-27h137l-5 -72h-132v-419h-90v419h-236v-419h-91v419h-80v63l80 9v32q0 74 11 118q35 136 192 136q39 0 70 -9l-7 -71q-30 6 -60 6q-50 0 -76.5 -22t-35.5 -78q-3 -23 -3 -64v-48h236v18
q0 68 9.5 115.5t41.5 83.5q58 69 186 69q72 0 129 -18zM840 0h-90v493l90 8v-501z" />
    <glyph glyph-name="f_f_l" unicode="ffl" horiz-adv-x="925" 
d="M840 0h-90v693q-41 10 -89 10q-79 0 -115 -41q-21 -23 -26.5 -55.5t-5.5 -88.5v-27h137l-5 -72h-132v-419h-90v419h-236v-419h-91v419h-80v63l80 9v32q0 74 11 118q35 136 192 136q39 0 70 -9l-7 -71q-30 6 -60 6q-50 0 -76.5 -22t-35.5 -78q-3 -23 -3 -64v-48h236v18
q0 68 9.5 115.5t41.5 83.5q58 69 186 69q60 0 104 -11l75 8v-774z" />
    <glyph glyph-name="f_f_b" unicode="ffb" horiz-adv-x="1259" 
d="M1202 264q0 -127 -72.5 -201t-202.5 -74q-94 0 -185 31q8 72 8 98v575q-41 10 -89 10q-79 0 -115 -41q-21 -23 -26.5 -55.5t-5.5 -88.5v-27h137l-5 -72h-132v-419h-90v419h-236v-419h-91v419h-80v63l80 9v32q0 74 11 118q35 136 192 136q39 0 70 -9l-7 -71q-30 6 -60 6
q-50 0 -76.5 -22t-35.5 -78q-3 -23 -3 -64v-48h236v18q0 68 9.5 115.5t41.5 83.5q58 69 186 69q60 0 104 -11l75 8v-264q0 -49 -3 -70q55 72 154 72q91 0 151 -65t60 -183zM1108 251q0 90 -40.5 137t-96.5 47q-74 0 -131 -61v-233q0 -46 -2 -62q48 -17 100 -17
q79 0 124.5 49t45.5 140z" />
    <glyph glyph-name="f_f_h" unicode="ffh" horiz-adv-x="1248" 
d="M1166 0h-91v262q0 36 -3 61q-7 111 -109 111q-67 0 -123 -57v-377h-90v693q-41 10 -89 10q-79 0 -115 -41q-21 -23 -26.5 -55.5t-5.5 -88.5v-27h137l-5 -72h-132v-419h-90v419h-236v-419h-91v419h-80v63l80 9v32q0 74 11 118q35 136 192 136q39 0 70 -9l-7 -71
q-30 6 -60 6q-50 0 -76.5 -22t-35.5 -78q-3 -23 -3 -64v-48h236v18q0 68 9.5 115.5t41.5 83.5q58 69 186 69q60 0 104 -11l75 8v-254q0 -47 -3 -74q59 66 152 66q117 0 157 -95q20 -43 20 -143v-274z" />
    <glyph glyph-name="f_f_j" unicode="ffj" horiz-adv-x="925" 
d="M790 759l-8 -71q-65 15 -121 15q-79 0 -115 -41q-21 -23 -26.5 -55.5t-5.5 -88.5v-27h137l-5 -72h-132v-419h-90v419h-236v-419h-91v419h-80v63l80 9v32q0 74 11 118q35 136 192 136q39 0 70 -9l-7 -71q-30 6 -60 6q-50 0 -76.5 -22t-35.5 -78q-3 -23 -3 -64v-48h236v18
q0 68 9.5 115.5t41.5 83.5q58 69 186 69q72 0 129 -18zM840 501v-430q0 -118 -31 -179.5t-120 -137.5l-52 55q73 74 93 122t20 150v412z" />
    <glyph glyph-name="f_f_k" unicode="ffk" horiz-adv-x="1221" 
d="M840 0h-90v693q-41 10 -89 10q-79 0 -115 -41q-21 -23 -26.5 -55.5t-5.5 -88.5v-27h137l-5 -72h-132v-419h-90v419h-236v-419h-91v419h-80v63l80 9v32q0 74 11 118q35 136 192 136q39 0 70 -9l-7 -71q-30 6 -60 6q-50 0 -76.5 -22t-35.5 -78q-3 -23 -3 -64v-48h236v18
q0 68 9.5 115.5t41.5 83.5q58 69 186 69q60 0 104 -11l75 8v-774zM1187 0h-115l-212 264l206 239h109l-209 -234z" />
    <glyph glyph-name="f_f_t" unicode="fft" horiz-adv-x="1060" 
d="M1005 84l-1 -71q-50 -22 -100 -22q-160 0 -160 163v265h-230v-419h-90v419h-236v-419h-91v419h-80v63l80 9v32q0 74 11 118q35 136 192 136q39 0 70 -9l-7 -71q-30 6 -60 6q-50 0 -76.5 -22t-35.5 -78q-3 -23 -3 -64v-48h236v32q0 75 11 119q36 135 193 135q48 0 84 -12
l-7 -71q-40 9 -74 9q-50 0 -78.5 -23t-35.5 -78q-3 -23 -3 -63v-48h233l14 102l74 1v-103h152l-4 -72h-148v-256q0 -96 87 -96q38 0 83 17z" />
    <glyph glyph-name="longs_b" unicode="&#x17f;b" horiz-adv-x="912" 
d="M856 264q0 -127 -72 -201t-202 -74q-94 0 -185 31q7 63 7 98v576q-39 9 -72 9q-77 0 -113 -41q-15 -16 -22 -41.5t-8 -45t-1 -57.5v-518h-91v419h-80v63l80 9v18q0 68 9.5 115.5t41.5 83.5q60 69 184 69q44 0 88 -11l75 8v-264q0 -42 -4 -70q57 72 155 72q91 0 150.5 -65
t59.5 -183zM763 251q0 90 -40.5 137t-97.5 47q-74 0 -130 -61v-233q0 -46 -3 -62q50 -17 101 -17q79 0 124.5 49t45.5 140z" />
    <glyph glyph-name="longs_h" unicode="&#x17f;h" horiz-adv-x="896" 
d="M820 0h-90v262q0 36 -3 61q-7 111 -109 111q-67 0 -123 -57v-377h-91v694q-39 9 -72 9q-77 0 -113 -41q-15 -16 -22 -41.5t-8 -45t-1 -57.5v-518h-91v419h-80v63l80 9v18q0 68 9.5 115.5t41.5 83.5q60 69 184 69q44 0 88 -11l75 8v-254q0 -47 -3 -74q59 66 152 66
q117 0 157 -95q19 -41 19 -143v-274z" />
    <glyph glyph-name="longs_l" unicode="&#x17f;l" horiz-adv-x="572" 
d="M495 0h-91v694q-39 9 -72 9q-77 0 -113 -41q-15 -16 -22 -41.5t-8 -45t-1 -57.5v-518h-91v419h-80v63l80 9v18q0 68 9.5 115.5t41.5 83.5q60 69 184 69q44 0 88 -11l75 8v-774z" />
    <glyph glyph-name="longs_t" unicode="&#x17f;t" horiz-adv-x="689" 
d="M385 765l-6 -71q-41 9 -74 9q-50 0 -78 -22.5t-36 -77.5q-3 -23 -3 -64v-539h-91v419h-80v63l80 9v32q0 74 11 118q17 68 68 102t125 34q49 0 84 -12zM659 84l-1 -71q-48 -22 -100 -22q-160 0 -160 163v265h-77v63l81 9l14 102l73 1v-103h153l-5 -72h-148v-256
q0 -96 87 -96q38 0 83 17z" />
    <glyph glyph-name="longs_i" unicode="&#x17f;i" horiz-adv-x="564" 
d="M444 763l-8 -71q-59 11 -101 11q-80 0 -116 -41q-15 -16 -22 -41.5t-8 -45t-1 -57.5v-518h-91v419h-80v63l80 9v18q0 68 9.5 115.5t41.5 83.5q60 69 187 69q61 0 109 -14zM487 0h-91v493l91 8v-501z" />
    <glyph glyph-name="longs_j" unicode="&#x17f;j" horiz-adv-x="564" 
d="M444 763l-8 -71q-59 11 -101 11q-80 0 -116 -41q-15 -16 -22 -41.5t-8 -45t-1 -57.5v-518h-91v419h-80v63l80 9v18q0 68 9.5 115.5t41.5 83.5q60 69 187 69q61 0 109 -14zM487 501v-430q0 -81 -15.5 -134.5t-45.5 -92t-91 -90.5l-52 55q73 74 93 122t20 150v412z" />
    <glyph glyph-name=".notdef" horiz-adv-x="710" 
d="M715 5l-10 -10l-350 350l-350 -350l-10 10l350 350l-350 350l10 10l350 -350l350 350l10 -10l-350 -350z" />
    <glyph glyph-name=".null" horiz-adv-x="0" 
 />
    <glyph glyph-name="nonmarkingreturn" horiz-adv-x="333" 
 />
    <glyph glyph-name="space" unicode=" " horiz-adv-x="161" 
 />
    <glyph glyph-name="space" unicode="&#xa0;" horiz-adv-x="161" 
 />
    <glyph glyph-name="exclam" unicode="!" horiz-adv-x="271" 
d="M186 710l-2 -146q-2 -183 -11 -347h-76q-9 164 -11 347l-2 146h102zM196 51q0 -26 -17.5 -43t-43.5 -17t-42.5 18t-16.5 45q0 25 17 42.5t44 17.5q26 0 42.5 -18t16.5 -45z" />
    <glyph glyph-name="quotedbl" unicode="&#x22;" horiz-adv-x="373" 
d="M318 710l-2 -90l-9 -151h-64q-6 71 -8 151l-2 90h85zM141 710l-2 -90l-9 -151h-64q-6 71 -8 151l-2 90h85z" />
    <glyph glyph-name="numbersign" unicode="#" horiz-adv-x="587" 
d="M561 498l-9 -70h-90l-27 -217h90l-8 -70h-91l-17 -141h-77l18 141h-161l-18 -141h-77l18 141h-90l8 70h90l27 217h-91l9 70h90l17 134h77l-17 -134h161l17 134h77l-17 -134h91zM385 428h-161l-27 -217h161z" />
    <glyph glyph-name="dollar" unicode="$" horiz-adv-x="587" 
d="M507 198q0 -71 -53.5 -129.5t-158.5 -69.5l-4 -97l-53 2l3 94q-87 3 -172 36l-2 84q98 -36 178 -38l9 252q-94 39 -133.5 87.5t-39.5 109.5q1 70 53.5 121.5t147.5 60.5l5 98l53 -3l-4 -93q71 -2 146 -24l-7 -79q-83 23 -142 25l-9 -234q183 -71 183 -203zM279 632
q-50 -6 -76 -34t-26 -63q0 -66 94 -112zM406 191q0 72 -99 119l-8 -228q55 8 81 38.5t26 70.5z" />
    <glyph glyph-name="percent" unicode="%" horiz-adv-x="816" 
d="M353 544q0 -91 -45 -137t-113 -46q-69 0 -111.5 46.5t-42.5 129.5q0 91 45.5 137t113.5 46t110.5 -46.5t42.5 -129.5zM282 537q0 60 -23 91.5t-64 31.5q-83 0 -83 -116q0 -60 23 -92t64 -32q83 0 83 117zM623 734l-351 -756l-61 26l352 756zM779 174q0 -91 -45.5 -137.5
t-113.5 -46.5t-111 46.5t-43 129.5q0 91 45.5 137t113.5 46q69 0 111.5 -46t42.5 -129zM708 167q0 59 -23 91t-64 32q-83 0 -83 -117q0 -60 23 -91.5t64 -31.5q83 0 83 117z" />
    <glyph glyph-name="ampersand" unicode="&#x26;" horiz-adv-x="808" 
d="M772 42l-73 -60q-73 39 -149 97q-97 -89 -235 -89q-124 0 -191.5 61.5t-67.5 146.5q0 120 143 192q-91 86 -91 164q0 71 54 118.5t139 47.5q84 0 133 -45.5t49 -113.5q0 -119 -149 -189q105 -101 207 -178q55 74 55 195q0 66 -12 114h85q17 -54 17 -111q0 -144 -75 -248
q72 -54 161 -102zM398 556q0 42 -28 67.5t-73 25.5q-47 0 -74 -24.5t-27 -67.5q0 -31 17 -60t67 -76q118 54 118 135zM482 131q-92 73 -234 207q-99 -47 -99 -131q0 -57 45.5 -98t125.5 -41q93 0 162 63z" />
    <glyph glyph-name="quotesingle" unicode="'" horiz-adv-x="196" 
d="M141 710l-2 -90l-9 -151h-64q-6 71 -8 151l-2 90h85z" />
    <glyph glyph-name="parenleft" unicode="(" horiz-adv-x="475" 
d="M458 -271l-63 -37q-308 195 -308 578q0 384 308 578l63 -37q-286 -182 -286 -541q0 -358 286 -541z" />
    <glyph glyph-name="parenright" unicode=")" horiz-adv-x="475" 
d="M388 270q0 -384 -307 -578l-64 37q286 182 286 541t-286 541l64 37q307 -194 307 -578z" />
    <glyph glyph-name="asterisk" unicode="*" horiz-adv-x="477" 
d="M400 393l-50 32q-43 25 -85 63q11 -58 12 -106l2 -58h-67l2 58q1 54 13 106q-41 -35 -86 -63l-50 -32l-33 59l51 27q46 24 99 42q-56 20 -99 42l-51 28l33 58l50 -31q40 -26 85 -64q-11 59 -12 106l-2 59h67l-2 -59q-1 -48 -12 -106q41 37 85 64l50 31l33 -58l-51 -28
q-39 -21 -99 -42q56 -20 99 -42l51 -27z" />
    <glyph glyph-name="plus" unicode="+" horiz-adv-x="548" 
d="M512 268h-203v-184h-71v184h-202v71h202v184h71v-184h203v-71z" />
    <glyph glyph-name="comma" unicode="," horiz-adv-x="214" 
d="M177 41q0 -98 -121 -197l-53 35q43 42 63.5 76.5t18.5 58t-14 45.5q-4 6 -26 28q17 43 57 43q27 0 47 -20q28 -26 28 -69z" />
    <glyph glyph-name="hyphen" unicode="-" horiz-adv-x="313" 
d="M290 238h-267v74h267v-74z" />
    <glyph glyph-name="hyphen" unicode="&#x2010;" horiz-adv-x="313" 
d="M290 238h-267v74h267v-74z" />
    <glyph glyph-name="hyphen" unicode="&#xad;" horiz-adv-x="313" 
d="M290 238h-267v74h267v-74z" />
    <glyph glyph-name="period" unicode="." horiz-adv-x="238" 
d="M180 51q0 -26 -17.5 -43.5t-44.5 -17.5q-26 0 -43 18t-17 46q0 26 17 43.5t45 17.5q27 0 43.5 -18.5t16.5 -45.5z" />
    <glyph glyph-name="slash" unicode="/" horiz-adv-x="467" 
d="M473 836l-408 -1089l-71 27l408 1089z" />
    <glyph glyph-name="zero" unicode="0" horiz-adv-x="587" 
d="M552 362q0 -182 -72 -277t-194 -95q-115 0 -183 88.5t-68 269.5q0 182 72 277t194 95q115 0 183 -88.5t68 -269.5zM454 354q0 140 -42 212t-116 72q-163 0 -163 -282q0 -140 41.5 -212t115.5 -72q164 0 164 282z" />
    <glyph glyph-name="one" unicode="1" horiz-adv-x="587" 
d="M489 0h-395v72l158 5v550l-176 -19l-7 75l192 27h85v-633l143 -5v-72z" />
    <glyph glyph-name="two" unicode="2" horiz-adv-x="587" 
d="M523 83l-9 -83h-435v75l141 152q99 107 132 168.5t33 110.5q0 61 -40.5 96.5t-102.5 35.5q-75 0 -157 -50l-6 80q79 52 179 52q101 0 164.5 -58t63.5 -149q0 -65 -39.5 -140t-147.5 -187l-98 -103h322z" />
    <glyph glyph-name="three" unicode="3" horiz-adv-x="587" 
d="M503 191q0 -82 -62.5 -141.5t-176.5 -59.5q-102 0 -187 55l-2 88q98 -62 188 -62q65 0 102 32t37 84q0 51 -48 91t-153 52v70q101 12 145 50t44 86q0 45 -35 74.5t-95 29.5q-82 0 -164 -52l-6 81q81 51 181 51q101 0 158.5 -51.5t57.5 -123.5q0 -52 -35 -100.5
t-111 -72.5q82 -21 122 -72.5t40 -108.5z" />
    <glyph glyph-name="four" unicode="4" horiz-adv-x="587" 
d="M549 253l-7 -80h-91v-173h-93v173h-327v71l318 466h102v-457h98zM361 593l-230 -340h227v259z" />
    <glyph glyph-name="five" unicode="5" horiz-adv-x="587" 
d="M511 727l-11 -88l-277 -17l-31 -172q160 -17 234 -86t74 -160q0 -84 -63 -149t-173 -65q-90 0 -171 47v89q86 -53 166 -53q66 0 102 37.5t36 88.5q0 24 -9 47.5t-32 46.5t-57 41t-88 30t-122 14l60 327z" />
    <glyph glyph-name="six" unicode="6" horiz-adv-x="587" 
d="M530 215q0 -93 -62 -159t-163 -66q-107 0 -177.5 83.5t-70.5 244.5q0 193 104.5 296t276.5 103q24 0 64 -5v-79q-30 3 -59 3q-118 0 -195.5 -62.5t-86.5 -179.5q66 36 139 36q98 0 164 -59t66 -156zM431 207q0 61 -41 101t-108 40q-71 0 -128 -35q-3 -125 43.5 -183.5
t106.5 -58.5q56 0 91.5 36.5t35.5 99.5z" />
    <glyph glyph-name="seven" unicode="7" horiz-adv-x="587" 
d="M512 710v-80l-312 -641l-83 32l292 600h-340l6 89h437z" />
    <glyph glyph-name="eight" unicode="8" horiz-adv-x="587" 
d="M534 185q0 -76 -64.5 -135.5t-181.5 -59.5q-105 0 -169.5 52.5t-64.5 134.5q0 115 139 181q-125 64 -125 173q0 80 63 134.5t167 54.5q99 0 157 -49t58 -125q0 -115 -132 -174q153 -66 153 -187zM420 541q0 45 -34.5 75t-92.5 30t-92 -30.5t-34 -77.5q0 -84 129 -136
q124 47 124 139zM431 176q0 99 -158 150q-123 -51 -123 -142q0 -49 39 -83.5t106 -34.5q63 0 99.5 33.5t36.5 76.5z" />
    <glyph glyph-name="nine" unicode="9" horiz-adv-x="587" 
d="M531 392q0 -193 -105 -296t-277 -103q-24 0 -64 5v79q30 -3 59 -3q118 0 195.5 62.5t86.5 179.5q-66 -36 -139 -36q-98 0 -163.5 59t-65.5 156q0 93 61.5 159t162.5 66q107 0 178 -83.5t71 -244.5zM433 397q3 125 -43.5 183.5t-106.5 58.5q-56 0 -91.5 -36.5t-35.5 -99.5
q0 -61 41 -101t108 -40q71 0 128 35z" />
    <glyph glyph-name="colon" unicode=":" horiz-adv-x="238" 
d="M180 51q0 -26 -17.5 -43.5t-44.5 -17.5q-26 0 -43 18t-17 46q0 26 17 43.5t45 17.5q27 0 43.5 -18.5t16.5 -45.5zM180 397q0 -26 -17.5 -43.5t-44.5 -17.5q-26 0 -43 18t-17 46q0 26 17 43.5t45 17.5q27 0 43.5 -18.5t16.5 -45.5z" />
    <glyph glyph-name="semicolon" unicode=";" horiz-adv-x="250" 
d="M191 41q0 -98 -121 -197l-53 35q43 42 63.5 76.5t18.5 58t-14 45.5q-4 6 -26 28q17 43 57 43q27 0 47 -20q28 -26 28 -69zM190 397q0 -26 -17.5 -43.5t-44.5 -17.5q-26 0 -43 18t-17 46q0 26 17 43.5t45 17.5q27 0 43.5 -18.5t16.5 -45.5z" />
    <glyph glyph-name="less" unicode="&#x3c;" horiz-adv-x="566" 
d="M533 504l-406 -202l406 -203v-80l-500 249v64l500 249v-77z" />
    <glyph glyph-name="equal" unicode="=" horiz-adv-x="548" 
d="M36 154v71h476v-71h-476zM36 368v70h476v-70h-476z" />
    <glyph glyph-name="greater" unicode="&#x3e;" horiz-adv-x="566" 
d="M33 99l405 202l-405 203v79l500 -249v-64l-500 -249v78z" />
    <glyph glyph-name="question" unicode="?" horiz-adv-x="419" 
d="M372 566q0 -82 -87 -149l-23 -18q-59 -47 -59 -95q0 -28 24 -73l-73 -23q-45 58 -45 113q0 67 83 132l23 18q60 47 60 91q0 34 -30 57t-79 23q-42 0 -104 -22l-9 75q63 25 131 25q87 0 137.5 -46t50.5 -108zM238 51q0 -26 -17 -43t-44 -17q-26 0 -42.5 18t-16.5 45
q0 25 17 42.5t44 17.5q26 0 42.5 -18t16.5 -45z" />
    <glyph glyph-name="at" unicode="@" horiz-adv-x="1103" 
d="M1017 299q0 -156 -74.5 -237t-169.5 -81q-86 0 -118 72q-68 -65 -157 -65q-65 0 -107 35.5t-42 94.5q0 31 12.5 57t42.5 51t89.5 40t143.5 16v16q0 58 -11 80q-22 49 -94 49q-73 0 -149 -40l-7 67q70 45 164 45q116 0 159 -72q23 -38 23 -129v-162q0 -87 62 -87
q53 0 101.5 58.5t48.5 181.5q0 156 -100 258t-275 102q-165 0 -277.5 -106.5t-112.5 -288.5q0 -210 115 -321t310 -111q70 0 161 23l4 -71q-83 -24 -175 -24q-225 0 -361.5 127t-136.5 367q0 109 37.5 200t102.5 150.5t151.5 92.5t185.5 33q211 0 332.5 -118.5t121.5 -302.5
zM637 101v118q-110 2 -157.5 -25t-47.5 -68q0 -31 23.5 -50.5t65.5 -19.5q64 0 116 45z" />
    <glyph glyph-name="A" unicode="A" horiz-adv-x="733" 
d="M683 0h-106l-74 199h-289l-68 -199h-97l255 708l107 4zM475 276l-92 246q-26 71 -30 86l-3 -8q-3 -9 -10 -32t-15 -47l-85 -245h235z" />
    <glyph glyph-name="B" unicode="B" horiz-adv-x="646" 
d="M564 196q0 -104 -100 -160q-63 -36 -197 -36h-165v710h124q116 0 185 -33q104 -49 104 -155q0 -53 -32 -94.5t-85 -56.5q81 -13 123.5 -63t42.5 -112zM419 517q0 53 -46 88q-45 33 -135 33h-40v-240h56q72 0 103 17q62 34 62 102zM464 194q0 60 -52.5 97t-151.5 37h-62
v-252h77q77 0 117 16q72 31 72 102z" />
    <glyph glyph-name="C" unicode="C" horiz-adv-x="782" 
d="M694 129l-6 -87q-114 -52 -235 -52q-147 0 -242 65q-68 47 -107 125.5t-39 172.5q0 196 138 296q96 71 251 71q114 0 218 -42l-9 -84q-118 42 -213 42q-121 0 -191 -57q-94 -76 -94 -220q0 -122 78.5 -203t216.5 -81q113 0 234 54z" />
    <glyph glyph-name="D" unicode="D" horiz-adv-x="813" 
d="M745 367q0 -140 -89 -242q-109 -127 -323 -127q-144 0 -231 2v710q72 1 191 1q256 0 365 -119q87 -95 87 -225zM645 357q0 108 -65 178q-46 51 -114.5 72.5t-175.5 21.5q-59 0 -92 -1v-546q54 -2 138 -2q170 0 252 104q57 73 57 173z" />
    <glyph glyph-name="E" unicode="E" horiz-adv-x="596" 
d="M506 82l-7 -82h-397v710h380v-82h-284v-228h264v-79h-264v-239h308z" />
    <glyph glyph-name="F" unicode="F" horiz-adv-x="574" 
d="M482 628h-284v-253h274v-81h-274v-294h-96v710h380v-82z" />
    <glyph glyph-name="G" unicode="G" horiz-adv-x="800" 
d="M700 31q-129 -41 -244 -41q-152 0 -244 65q-69 46 -108 125.5t-39 176.5q0 192 134 289q102 74 260 74q123 0 222 -38l-8 -85q-109 39 -216 39q-132 0 -202 -60q-90 -74 -90 -212q0 -127 77 -208.5t221 -81.5q63 0 140 19v234h96v-212z" />
    <glyph glyph-name="H" unicode="H" horiz-adv-x="772" 
d="M671 0h-97v315h-376v-315h-96v710h96v-311h376v311h97v-710z" />
    <glyph glyph-name="I" unicode="I" horiz-adv-x="300" 
d="M198 0h-96v710h96v-710z" />
    <glyph glyph-name="J" unicode="J" horiz-adv-x="301" 
d="M200 710v-651q0 -126 -39 -196t-139 -125l-39 68q73 51 96.5 98t23.5 134v672h97z" />
    <glyph glyph-name="K" unicode="K" horiz-adv-x="718" 
d="M198 0h-96v710h96v-710zM660 0h-131l-255 295q-48 53 -61 65l322 350h117l-321 -340z" />
    <glyph glyph-name="L" unicode="L" horiz-adv-x="568" 
d="M506 82l-7 -82h-397v710h96v-628h308z" />
    <glyph glyph-name="M" unicode="M" horiz-adv-x="1016" 
d="M919 0h-96l-20 469q-2 56 -2 122q-19 -52 -42 -104l-210 -487h-97l-205 489q-27 64 -39 101q2 -46 -1 -121l-19 -469h-90l28 710h129l249 -596l257 596h129z" />
    <glyph glyph-name="N" unicode="N" horiz-adv-x="812" 
d="M710 710v-710h-103l-417 571q3 -35 3 -114v-457h-91v710h104l415 -566q-2 23 -2 99v467h91z" />
    <glyph glyph-name="O" unicode="O" horiz-adv-x="875" 
d="M810 365q0 -99 -40 -179.5t-111 -130.5q-91 -66 -231 -66q-134 0 -234 81q-62 51 -95.5 127t-33.5 166q0 184 140 284q98 74 236 74q171 0 271 -102q98 -100 98 -254zM709 356q0 125 -77 204q-74 77 -201 77q-99 0 -170 -57q-44 -33 -69.5 -87.5t-25.5 -119.5
q0 -149 92 -233q32 -30 77 -48.5t93 -18.5h8q101 0 166 48q107 79 107 235z" />
    <glyph glyph-name="P" unicode="P" horiz-adv-x="608" 
d="M198 0h-96v710h128q147 0 223 -53q89 -61 89 -174q0 -67 -32 -120.5t-90 -82.5q-70 -36 -168 -25v77q81 -5 125 22q66 41 66 122q0 77 -60 117q-50 34 -149 34h-36v-627z" />
    <glyph glyph-name="Q" unicode="Q" horiz-adv-x="876" 
d="M810 366q0 -99 -40 -180t-111 -131q-59 -42 -133 -54q44 -32 65 -43q141 -92 292 -92q45 0 78 6l-5 -70q-45 -13 -106 -13q-170 0 -328 107q-35 22 -123 96q-118 6 -205 78q-62 52 -95.5 128t-33.5 166q0 183 140 283q96 74 236 74q172 0 271 -102q98 -100 98 -253z
M709 356q0 126 -77 205q-73 76 -201 76q-98 0 -170 -56q-44 -33 -69.5 -88t-25.5 -120q0 -147 92 -233q32 -30 77.5 -48.5t92.5 -18.5h8q101 0 166 48q107 79 107 235z" />
    <glyph glyph-name="R" unicode="R" horiz-adv-x="725" 
d="M696 66l-12 -70q-86 0 -137.5 29.5t-126.5 129.5l-89 118h-133v-273h-96v710h146q156 0 232 -66q67 -57 67 -150q0 -133 -119 -189l84 -108q54 -70 94 -96.5t90 -34.5zM446 486q0 63 -45 102q-49 41 -153 41h-50v-280q57 -2 108 -2q58 0 100 39q40 38 40 100z" />
    <glyph glyph-name="S" unicode="S" horiz-adv-x="579" 
d="M506 195q0 -37 -14.5 -72t-44 -65.5t-80 -49t-116.5 -18.5q-99 0 -187 35l-3 87q107 -37 190 -37q77 0 112 33t35 78q0 36 -22 65.5t-86 58.5l-56 26q-86 39 -121.5 85.5t-35.5 108.5q1 79 64.5 134.5t178.5 55.5q87 0 159 -26l-7 -82q-82 26 -149 26q-72 0 -107.5 -28.5
t-35.5 -72.5q0 -35 23.5 -63t90.5 -58l56 -24q86 -38 121 -86.5t35 -110.5z" />
    <glyph glyph-name="T" unicode="T" horiz-adv-x="629" 
d="M593 710l-6 -82h-225v-628h-97v628h-224v82h552z" />
    <glyph glyph-name="U" unicode="U" horiz-adv-x="773" 
d="M676 710v-368q0 -99 -14 -158.5t-53 -103.5q-77 -91 -224 -91q-161 0 -233 98q-31 42 -43 101t-12 156v366h97v-367q0 -76 9 -123t34 -81q50 -65 156 -65q96 0 144 59q27 32 37.5 77t10.5 118v382h91z" />
    <glyph glyph-name="V" unicode="V" horiz-adv-x="691" 
d="M664 710l-260 -708l-110 -4l-267 712h106l219 -607l214 607h98z" />
    <glyph glyph-name="W" unicode="W" horiz-adv-x="1057" 
d="M1025 710l-240 -708l-113 -4l-146 409l-138 -405l-112 -4l-247 712h103l209 -612l142 430l-65 182h101l212 -609l198 609h96z" />
    <glyph glyph-name="X" unicode="X" horiz-adv-x="717" 
d="M670 0h-121l-199 285l-183 -285h-107l236 355l-249 355h119l196 -283l184 283h104l-233 -354z" />
    <glyph glyph-name="Y" unicode="Y" horiz-adv-x="665" 
d="M382 0h-96v307l-269 403h115l208 -316l204 316h104l-266 -402v-308z" />
    <glyph glyph-name="Z" unicode="Z" horiz-adv-x="649" 
d="M589 83l-7 -83h-525v72l372 555h-366v83h491v-66l-378 -561h413z" />
    <glyph glyph-name="bracketleft" unicode="[" horiz-adv-x="362" 
d="M335 -241l-3 -62h-238v1143h241l-3 -62h-156v-1019h159z" />
    <glyph glyph-name="backslash" unicode="\" horiz-adv-x="467" 
d="M402 -253l-408 1089l71 27l408 -1089z" />
    <glyph glyph-name="bracketright" unicode="]" horiz-adv-x="362" 
d="M268 -303h-241l3 62h157v1019h-160l3 62h238v-1143z" />
    <glyph glyph-name="asciicircum" unicode="^" horiz-adv-x="491" 
d="M457 246h-82l-131 291l-129 -291h-81l180 389h64z" />
    <glyph glyph-name="underscore" unicode="_" horiz-adv-x="500" 
d="M0 -107v78h500v-78h-500z" />
    <glyph glyph-name="grave" unicode="`" horiz-adv-x="343" 
d="M293 640l-22 -63l-221 137l22 77z" />
    <glyph glyph-name="a" unicode="a" horiz-adv-x="527" 
d="M505 54l-4 -57q-31 -6 -59 -6q-72 0 -91 59q-64 -61 -154 -61q-67 0 -110 36.5t-43 96.5q0 25 7.5 46.5t27.5 44t51.5 39t85 27t122.5 11.5v17q0 58 -10 80q-23 50 -97 50q-75 0 -153 -41l-6 69q70 47 168 47q120 0 163 -73q24 -40 24 -133v-164q0 -30 1 -40.5t7.5 -25.5
t23 -19t46.5 -3zM338 105v120q-111 2 -159 -25.5t-48 -68.5q0 -31 23.5 -51.5t65.5 -20.5q65 0 118 46z" />
    <glyph glyph-name="b" unicode="b" horiz-adv-x="587" 
d="M529 264q0 -127 -72.5 -201t-202.5 -74q-94 0 -184 31q7 63 7 98v647l91 9v-264q0 -42 -4 -70q57 72 155 72q91 0 150.5 -65t59.5 -183zM435 251q0 90 -40 137t-97 47q-74 0 -130 -61v-233q0 -46 -3 -62q48 -17 101 -17q79 0 124 49t45 140z" />
    <glyph glyph-name="c" unicode="c" horiz-adv-x="505" 
d="M442 99l-2 -75q-63 -33 -139 -33q-115 0 -181 69.5t-66 185.5q0 129 68 197.5t179 68.5q74 0 132 -25l-8 -76q-59 24 -121 24q-71 0 -114 -43.5t-43 -132.5q0 -92 46.5 -141.5t119.5 -49.5q59 0 129 31z" />
    <glyph glyph-name="d" unicode="d" horiz-adv-x="583" 
d="M506 3l-83 -8l-3 64q-60 -70 -156 -70q-91 0 -150.5 65.5t-59.5 184.5q0 125 71.5 199t196.5 74q53 0 93 -13v266l91 9v-771zM415 127v294q-47 18 -96 18q-80 0 -125.5 -49t-45.5 -139q0 -91 40 -138t97 -47q74 0 130 61z" />
    <glyph glyph-name="e" unicode="e" horiz-adv-x="544" 
d="M483 99l-3 -70q-72 -37 -163 -39q-128 -1 -197.5 72t-69.5 196q0 115 64.5 185t170.5 70q97 0 150.5 -69t41.5 -193h-337q-1 -89 50 -137.5t138 -48.5q78 0 155 34zM390 315q1 61 -31.5 96.5t-86.5 35.5q-51 0 -88.5 -35.5t-41.5 -97.5z" />
    <glyph glyph-name="f" unicode="f" horiz-adv-x="348" 
d="M394 764l-7 -71q-42 10 -81 10q-103 0 -115 -103q-3 -22 -3 -61v-48h136l-5 -72h-131v-419h-91v419h-80v63l80 9v32q0 74 11 118q17 68 68.5 102t125.5 34q54 0 92 -13z" />
    <glyph glyph-name="g" unicode="g" horiz-adv-x="537" 
d="M520 482l-4 -64h-99q26 -43 26 -100q0 -83 -53.5 -139t-144.5 -56q-30 0 -45 5q-13 -16 -13 -35q0 -50 100 -53l53 -1q95 -3 136 -39q32 -29 32 -81q0 -66 -75 -129t-208 -63q-104 0 -158 44t-54 97q0 45 31 80t96 51q-34 25 -34 66q0 45 44 78q-99 48 -99 175
q0 84 54.5 140t140.5 56q66 0 115 -32h159zM356 318q0 66 -32 99.5t-77 33.5q-51 0 -80 -36t-29 -98q0 -66 31.5 -98.5t75.5 -32.5q52 0 81.5 36t29.5 96zM422 -97q0 21 -15 35q-22 20 -90 22l-50 1q-44 1 -76 11q-50 -13 -72.5 -37.5t-22.5 -53.5q0 -35 37 -62t108 -27
q81 0 131 35.5t50 75.5z" />
    <glyph glyph-name="h" unicode="h" horiz-adv-x="568" 
d="M493 0h-91v262q0 27 -2 61q-8 111 -109 111q-69 0 -123 -57v-377h-91v765l91 9v-254q0 -50 -4 -74q61 66 153 66q117 0 157 -95q19 -44 19 -143v-274z" />
    <glyph glyph-name="i" unicode="i" horiz-adv-x="245" 
d="M168 0h-91v493l91 8v-501zM184 671q0 -27 -17.5 -43.5t-44.5 -16.5q-28 0 -44.5 16.5t-16.5 44.5q0 27 17.5 43t44.5 16t44 -16.5t17 -43.5z" />
    <glyph glyph-name="j" unicode="j" horiz-adv-x="245" 
d="M168 501v-430q0 -81 -15.5 -134.5t-45.5 -92t-90 -90.5l-52 55q72 74 92 122t20 150v412zM184 671q0 -27 -17.5 -43.5t-44.5 -16.5q-28 0 -44.5 16.5t-16.5 44.5q0 27 17.5 43t44.5 16t44 -16.5t17 -43.5z" />
    <glyph glyph-name="k" unicode="k" horiz-adv-x="548" 
d="M168 0h-91v765l91 9v-774zM515 0h-115l-213 264l207 239h108l-209 -234z" />
    <glyph glyph-name="l" unicode="l" horiz-adv-x="245" 
d="M168 0h-91v765l91 9v-774z" />
    <glyph glyph-name="m" unicode="m" horiz-adv-x="889" 
d="M814 0h-91v262q0 27 -2 61q-8 111 -109 111q-74 0 -127 -63q6 -30 6 -87v-284h-90v271q0 38 -3 65q-5 44 -31.5 71t-75.5 27q-69 0 -123 -57v-377h-91v499l83 8l2 -64q61 69 155 69q102 0 147 -81q67 81 172 81q117 0 159 -95q19 -44 19 -143v-274z" />
    <glyph glyph-name="n" unicode="n" horiz-adv-x="568" 
d="M493 0h-91v262q0 27 -2 61q-8 111 -109 111q-69 0 -123 -57v-377h-91v499l83 8l2 -64q61 69 155 69q117 0 157 -95q19 -44 19 -143v-274z" />
    <glyph glyph-name="o" unicode="o" horiz-adv-x="595" 
d="M541 263q0 -128 -70.5 -200.5t-175.5 -72.5q-104 0 -172.5 71.5t-68.5 192.5q0 120 70 189.5t181 69.5q106 0 171 -67.5t65 -182.5zM448 255q0 82 -40 133t-111 51q-68 0 -109.5 -47t-41.5 -133q0 -83 41.5 -139t107.5 -56h8q64 0 104.5 52.5t40.5 138.5z" />
    <glyph glyph-name="p" unicode="p" horiz-adv-x="583" 
d="M529 264q0 -127 -72.5 -201t-202.5 -74q-52 0 -86 11v-250h-91v749l84 8l2 -68q58 73 156 73q91 0 150.5 -65t59.5 -183zM435 251q0 90 -40 137t-97 47q-74 0 -130 -61v-294q44 -18 98 -18q79 0 124 49t45 140z" />
    <glyph glyph-name="q" unicode="q" horiz-adv-x="583" 
d="M506 -250h-91v246q0 39 4 63q-59 -70 -155 -70q-90 0 -150 65.5t-60 184.5q0 127 74 200t208 73q70 0 170 -19v-743zM415 127v300q-44 12 -90 12q-83 0 -130 -48t-47 -141q0 -91 40.5 -137.5t96.5 -46.5q74 0 130 61z" />
    <glyph glyph-name="r" unicode="r" horiz-adv-x="380" 
d="M348 503l-7 -81q-29 8 -60 8q-72 0 -113 -66v-364h-91v499l84 8l1 -73q41 78 127 78q35 0 59 -9z" />
    <glyph glyph-name="s" unicode="s" horiz-adv-x="456" 
d="M394 145q0 -59 -47.5 -106.5t-143.5 -47.5q-77 0 -144 32l-2 75q76 -34 143 -34q49 0 74.5 23t25.5 52q0 23 -16.5 42.5t-64.5 35.5l-47 16q-113 39 -113 136q0 53 46 98t137 45q79 0 132 -26l-6 -70q-63 24 -123 24q-47 0 -71.5 -20.5t-24.5 -45.5q0 -46 80 -72l47 -16
q118 -41 118 -141z" />
    <glyph glyph-name="t" unicode="t" horiz-adv-x="378" 
d="M348 84l-1 -71q-48 -22 -100 -22q-160 0 -160 163v265h-77v63l81 9l14 102l73 1v-103h153l-4 -72h-149v-256q0 -96 87 -96q39 0 83 17z" />
    <glyph glyph-name="u" unicode="u" horiz-adv-x="568" 
d="M491 4l-83 -8l-2 63q-61 -69 -155 -69q-115 0 -157 95q-19 45 -19 144v269l91 9v-267q0 -34 3 -61q7 -111 108 -111q69 0 123 58v372l91 9v-503z" />
    <glyph glyph-name="v" unicode="v" horiz-adv-x="543" 
d="M519 503l-197 -501l-106 -4l-193 505h97l127 -344q4 -12 8.5 -24t7 -20.5t4.5 -15t3 -11.5l2 -4q0 6 24 75l130 344h93z" />
    <glyph glyph-name="w" unicode="w" horiz-adv-x="848" 
d="M822 503l-169 -501l-102 -4l-129 393l-130 -389l-104 -4l-164 505h97l103 -340l19 -71q0 7 23 71l113 340h94l109 -336l22 -75q8 30 22 73l105 338h91z" />
    <glyph glyph-name="x" unicode="x" horiz-adv-x="530" 
d="M504 0h-111l-136 192l-129 -192h-100l175 251l-183 252h109l135 -194l132 194h98l-175 -251z" />
    <glyph glyph-name="y" unicode="y" horiz-adv-x="540" 
d="M504 503q-18 -141 -63 -285q-62 -201 -149 -310q-88 -111 -241 -171l-33 76q142 58 202 139q-47 109 -99 246.5t-81 221.5l-29 83h103q87 -277 165 -470q42 75 82 211q36 121 52 259h91z" />
    <glyph glyph-name="z" unicode="z" horiz-adv-x="506" 
d="M448 73l-10 -73h-378v63l261 368h-250v72h361v-65l-259 -365h275z" />
    <glyph glyph-name="braceleft" unicode="{" horiz-adv-x="469" 
d="M442 -239v-61q-135 -9 -188.5 37.5t-53.5 156.5v146q0 54 -4.5 85t-20 58t-46 40t-82.5 17l2 63q88 7 119.5 44.5t31.5 131.5v161q0 120 56.5 163t185.5 36v-60q-90 0 -124 -27.5t-34 -104.5v-144q0 -110 -25.5 -160t-105.5 -68q76 -12 103.5 -61.5t27.5 -157.5v-147
q0 -87 30.5 -117t127.5 -31z" />
    <glyph glyph-name="bar" unicode="|" horiz-adv-x="208" 
d="M137 770v-1020h-66v1020h66z" />
    <glyph glyph-name="braceright" unicode="}" horiz-adv-x="469" 
d="M422 308l-2 -63q-88 -7 -119.5 -44.5t-31.5 -131.5v-173q0 -120 -56 -163t-186 -36l1 60q89 0 123 27t34 104v157q0 110 26 160.5t106 67.5q-76 12 -104 62t-28 157v134q0 88 -30 118t-127 31v61q135 9 188 -37.5t53 -156.5v-134q0 -54 4.5 -85t20 -58t46 -40t82.5 -17z
" />
    <glyph glyph-name="asciitilde" unicode="~" horiz-adv-x="543" 
d="M499 404q-28 -90 -64.5 -121.5t-79.5 -31.5q-29 0 -86 21l-19 7q-36 13 -55 13q-50 0 -87 -95l-60 24q28 90 64.5 121.5t79.5 31.5q29 0 86 -21l19 -7q33 -13 54 -13q51 0 88 94z" />
    <glyph glyph-name="exclamdown" unicode="&#xa1;" horiz-adv-x="272" 
d="M86 -194l2 146q2 183 11 347h76q9 -164 11 -347l2 -146h-102zM76 465q0 26 17.5 43t43.5 17t42.5 -18t16.5 -45q0 -25 -17 -42.5t-44 -17.5q-26 0 -42.5 18t-16.5 45z" />
    <glyph glyph-name="cent" unicode="&#xa2;" horiz-adv-x="587" 
d="M473 99l-2 -75q-63 -33 -136 -33l-3 -90l-53 3l3 90q-95 13 -149 81t-54 172q0 121 61 189t161 77l3 90l53 -1l-3 -89q60 -2 110 -24l-8 -75q-50 19 -105 23l-13 -369q66 0 135 31zM298 435q-58 -9 -91.5 -52.5t-33.5 -122.5q0 -74 30 -121t82 -63z" />
    <glyph glyph-name="sterling" unicode="&#xa3;" horiz-adv-x="587" 
d="M530 82l-7 -82h-399q-40 0 -84 -5l-4 64q64 33 90.5 68.5t26.5 85.5q0 39 -14 100h-95v56h82q-11 61 -11 105q0 125 72.5 185t185.5 60q66 0 127 -19l-10 -76q-66 16 -120 16q-67 0 -113 -39.5t-46 -128.5q0 -38 13 -103h215v-56h-203q12 -57 12 -96q0 -87 -70 -141
q32 6 82 6h270z" />
    <glyph glyph-name="currency" unicode="&#xa4;" horiz-adv-x="508" 
d="M477 159l-42 -42l-75 74q-48 -35 -109 -35q-60 0 -108 35l-75 -74l-42 42l75 74q-35 47 -35 109q0 61 35 107l-75 76l42 41l75 -75q47 36 108 36q60 0 109 -36l75 75l42 -41l-75 -76q35 -50 35 -107q0 -60 -35 -109zM377 342q0 52 -37 89t-89 37t-89 -37t-37 -89t37 -89
t89 -37q53 0 89.5 37t36.5 89z" />
    <glyph glyph-name="yen" unicode="&#xa5;" horiz-adv-x="587" 
d="M585 710l-223 -365h179v-51h-198v-102h198v-52h-198v-140h-96v140h-195v52h195v102h-195v51h175l-225 365h112l188 -306l182 306h101z" />
    <glyph glyph-name="brokenbar" unicode="&#xa6;" horiz-adv-x="208" 
d="M137 770v-439h-66v439h66zM137 189v-439h-66v439h66z" />
    <glyph glyph-name="section" unicode="&#xa7;" horiz-adv-x="621" 
d="M570 56q0 -66 -41 -122.5t-108 -91.5q-82 -43 -184 -43q-68 0 -128 20l8 79q69 -20 116 -20q35 0 58 12q53 27 53 81q0 28 -18.5 62t-77.5 103l-44 49q-87 101 -118 160.5t-31 115.5q0 66 41 122t108 91q79 43 184 43q73 0 128 -20l-8 -79q-65 20 -116 20q-36 0 -58 -12
q-53 -26 -53 -80q0 -29 18 -63t78 -102l44 -50q87 -101 118 -160.5t31 -114.5zM490 42q0 42 -26.5 93t-97.5 134l-43 49q-72 82 -96.5 126t-24.5 78q0 51 35 86q-45 -17 -73.5 -54t-28.5 -80q0 -42 26.5 -93t97.5 -133l43 -50q72 -82 96.5 -126t24.5 -78q0 -51 -35 -86
q45 17 73.5 54t28.5 80z" />
    <glyph glyph-name="dieresis" unicode="&#xa8;" horiz-adv-x="406" 
d="M158 678q0 -28 -15 -43t-40 -15q-24 0 -38.5 16.5t-14.5 42.5q0 25 14.5 40.5t40.5 15.5q25 0 39 -16t14 -41zM356 678q0 -28 -15.5 -43t-39.5 -15t-39 16.5t-15 42.5q0 25 15 40.5t41 15.5q25 0 39 -16t14 -41z" />
    <glyph glyph-name="copyright" unicode="&#xa9;" horiz-adv-x="888" 
d="M587 245l-6 -63q-65 -30 -125 -30q-88 0 -140 35q-80 54 -80 169q0 94 62 146.5t154 52.5q63 0 118 -21l-5 -62q-58 21 -112 21q-60 0 -98.5 -33t-38.5 -99q0 -67 37.5 -107t108.5 -40q53 0 125 31zM760 345q0 143 -84 231.5t-231 88.5q-142 0 -229 -81t-87 -222
q0 -143 84 -231.5t232 -88.5q142 0 228.5 81t86.5 222zM830 355q0 -172 -112.5 -272.5t-279.5 -100.5t-273.5 101.5t-106.5 268.5q0 172 112.5 272.5t280.5 100.5q167 0 273 -101t106 -269z" />
    <glyph glyph-name="ordfeminine" unicode="&#xaa;" horiz-adv-x="348" 
d="M319 445l-4 -43q-16 -3 -33 -3q-48 0 -62 38q-39 -39 -95 -39q-43 0 -69.5 23t-26.5 60q0 43 40.5 74t141.5 31v13q0 33 -14 49.5t-52 16.5q-48 0 -102 -27l-5 51q55 31 116 31q119 0 119 -110v-114q0 -19 2 -28t12.5 -15.5t31.5 -7.5zM211 478v62q-66 2 -93.5 -13.5
t-27.5 -37.5q0 -18 13.5 -29t38.5 -11q37 0 69 29z" />
    <glyph glyph-name="guillemotleft" unicode="&#xab;" horiz-adv-x="551" 
d="M28 260l200 234l60 -48l-157 -182l162 -193l-64 -50zM274 260l180 211l55 -44l-142 -164l146 -173l-58 -45z" />
    <glyph glyph-name="logicalnot" unicode="&#xac;" horiz-adv-x="548" 
d="M512 181h-69v126h-407v71h476v-197z" />
    <glyph glyph-name="registered" unicode="&#xae;" horiz-adv-x="765" 
d="M707 413q0 -146 -93.5 -231t-235.5 -85t-231 86.5t-89 226.5q0 146 94 230.5t236 84.5t230.5 -86t88.5 -226zM647 404q0 121 -69 195.5t-194 74.5q-121 0 -193.5 -67.5t-72.5 -187.5q0 -121 69 -195.5t194 -74.5q121 0 193.5 67.5t72.5 187.5zM554 288l-8 -41
q-44 -1 -67 11t-59 57l-51 65h-47v-131h-61v344h83q66 0 105 -26t39 -79q0 -29 -15.5 -53.5t-44.5 -36.5l57 -65q23 -26 36 -35t33 -10zM426 484q0 65 -92 65h-13v-126h39q29 0 47.5 16t18.5 45z" />
    <glyph glyph-name="macron" unicode="&#xaf;" horiz-adv-x="351" 
d="M301 640h-251v68h251v-68z" />
    <glyph glyph-name="macron" unicode="&#x2c9;" horiz-adv-x="351" 
d="M301 640h-251v68h251v-68z" />
    <glyph glyph-name="degree" unicode="&#xb0;" horiz-adv-x="415" 
d="M385 540q0 -80 -53.5 -129.5t-129.5 -49.5q-75 0 -124 49t-49 130q0 80 53 130t130 50q75 0 124 -49.5t49 -130.5zM308 539q0 50 -30 80.5t-71 30.5q-42 0 -71.5 -29.5t-29.5 -79.5q0 -49 30 -80t71 -31t71 30t30 79z" />
    <glyph glyph-name="plusminus" unicode="&#xb1;" horiz-adv-x="548" 
d="M512 370h-203v-184h-71v184h-202v71h202v184h71v-184h203v-71zM512 3h-476v71h476v-71z" />
    <glyph glyph-name="two.sup" unicode="&#xb2;" 
d="M343 460l-6 -60h-285v51l82 85q64 67 87 104t23 68q0 34 -23 54.5t-61 20.5q-52 0 -105 -33l-6 56q55 35 121 35q65 0 105 -37t40 -91q0 -44 -27.5 -91.5t-100.5 -117.5l-45 -44h201z" />
    <glyph glyph-name="two.sup" unicode="&#x2072;" 
d="M343 460l-6 -60h-285v51l82 85q64 67 87 104t23 68q0 34 -23 54.5t-61 20.5q-52 0 -105 -33l-6 56q55 35 121 35q65 0 105 -37t40 -91q0 -44 -27.5 -91.5t-100.5 -117.5l-45 -44h201z" />
    <glyph glyph-name="three.sup" unicode="&#xb3;" 
d="M327 514q0 -48 -40 -85.5t-116 -37.5q-66 0 -124 37l-1 62q64 -41 124 -41q42 0 64.5 18t22.5 44q0 66 -133 83v51q123 17 123 79q0 25 -19.5 42.5t-58.5 17.5q-49 0 -106 -34l-6 56q55 35 122 35q65 0 101 -32.5t36 -78.5q0 -35 -23 -64t-73 -42q56 -14 81.5 -44.5
t25.5 -65.5z" />
    <glyph glyph-name="three.sup" unicode="&#x2073;" 
d="M327 514q0 -48 -40 -85.5t-116 -37.5q-66 0 -124 37l-1 62q64 -41 124 -41q42 0 64.5 18t22.5 44q0 66 -133 83v51q123 17 123 79q0 25 -19.5 42.5t-58.5 17.5q-49 0 -106 -34l-6 56q55 35 122 35q65 0 101 -32.5t36 -78.5q0 -35 -23 -64t-73 -42q56 -14 81.5 -44.5
t25.5 -65.5z" />
    <glyph glyph-name="acute" unicode="&#xb4;" horiz-adv-x="343" 
d="M293 714l-221 -137l-22 63l221 151z" />
    <glyph glyph-name="paragraph" unicode="&#xb6;" horiz-adv-x="679" 
d="M595 149q0 -189 -85 -272.5t-247 -83.5q-80 0 -139 22l-8 83q60 -24 117 -24q122 0 122 213v180q-83 -2 -144 23q-55 21 -88 71.5t-33 117.5q0 77 37.5 133.5t105.5 79.5q55 18 151 18h53v-619q0 -86 -15.5 -132t-45.5 -76q41 11 69 33t48 77t20 141v576h82v-561z" />
    <glyph glyph-name="periodcentered" unicode="&#xb7;" horiz-adv-x="238" 
d="M180 301q0 -26 -17.5 -43.5t-44.5 -17.5q-26 0 -43 18t-17 46q0 26 17 43.5t45 17.5q27 0 43.5 -18.5t16.5 -45.5z" />
    <glyph glyph-name="periodcentered" unicode="&#x2219;" horiz-adv-x="238" 
d="M180 301q0 -26 -17.5 -43.5t-44.5 -17.5q-26 0 -43 18t-17 46q0 26 17 43.5t45 17.5q27 0 43.5 -18.5t16.5 -45.5z" />
    <glyph glyph-name="cedilla" unicode="&#xb8;" horiz-adv-x="285" 
d="M235 -157q0 -40 -31 -69t-83 -29q-39 0 -71 15v55q32 -13 63 -13q25 0 38 11.5t13 28.5q0 54 -108 66l13 48q87 -5 126.5 -38.5t39.5 -74.5z" />
    <glyph glyph-name="one.sup" unicode="&#xb9;" horiz-adv-x="288" 
d="M205 400h-67v372l-105 -8l-4 56l117 13h59v-433z" />
    <glyph glyph-name="one.sup" unicode="&#x2071;" horiz-adv-x="288" 
d="M205 400h-67v372l-105 -8l-4 56l117 13h59v-433z" />
    <glyph glyph-name="ordmasculine" unicode="&#xba;" horiz-adv-x="387" 
d="M350 566q0 -78 -45 -122.5t-113 -44.5q-66 0 -110 43.5t-44 118.5q0 74 45 116.5t116 42.5q68 0 109.5 -41.5t41.5 -112.5zM285 562q0 47 -24.5 75.5t-67.5 28.5q-41 0 -65.5 -26t-24.5 -76q0 -48 24.5 -79.5t64.5 -31.5h5q39 0 63.5 29.5t24.5 79.5z" />
    <glyph glyph-name="guillemotright" unicode="&#xbb;" horiz-adv-x="551" 
d="M523 256l-200 -234l-60 48l157 182l-162 193l64 50zM277 256l-180 -211l-55 44l142 164l-146 173l58 45z" />
    <glyph glyph-name="onequarter" unicode="&#xbc;" horiz-adv-x="840" 
d="M594 741l-357 -770l-49 23l357 770zM215 300h-67v372l-105 -8l-4 56l117 13h59v-433zM779 160l-5 -57h-59v-103h-66v103h-204v51l200 278h70v-272h64zM651 350l-134 -190h132v129z" />
    <glyph glyph-name="onehalf" unicode="&#xbd;" horiz-adv-x="840" 
d="M576 741l-357 -770l-49 23l357 770zM215 300h-67v372l-105 -8l-4 56l117 13h59v-433zM805 60l-6 -60h-285v51l82 85q64 67 87 104t23 68q0 34 -23 54.5t-61 20.5q-52 0 -105 -33l-6 56q55 35 121 35q65 0 105 -37t40 -91q0 -44 -27.5 -91.5t-100.5 -117.5l-45 -44h201z
" />
    <glyph glyph-name="threequarters" unicode="&#xbe;" horiz-adv-x="840" 
d="M627 741l-357 -770l-49 23l357 770zM790 160l-5 -57h-59v-103h-66v103h-204v51l200 278h70v-272h64zM662 350l-134 -190h132v129zM324 414q0 -48 -40 -85.5t-116 -37.5q-66 0 -124 37l-1 62q64 -41 124 -41q42 0 64.5 18t22.5 44q0 66 -133 83v51q123 17 123 79
q0 25 -19.5 42.5t-58.5 17.5q-49 0 -106 -34l-6 56q55 35 122 35q65 0 101 -32.5t36 -78.5q0 -35 -23 -64t-73 -42q56 -14 81.5 -44.5t25.5 -65.5z" />
    <glyph glyph-name="questiondown" unicode="&#xbf;" horiz-adv-x="421" 
d="M47 -55q0 82 87 149l23 18q59 47 59 95q0 28 -24 73l73 23q45 -58 45 -113q0 -67 -83 -132l-23 -18q-60 -47 -60 -91q0 -34 30 -57t79 -23q42 0 104 22l9 -75q-62 -25 -131 -25q-87 0 -137.5 46t-50.5 108zM181 460q0 26 17 43t44 17q26 0 42.5 -18t16.5 -45
q0 -25 -17 -42.5t-44 -17.5q-26 0 -42.5 18t-16.5 45z" />
    <glyph glyph-name="Agrave" unicode="&#xc0;" horiz-adv-x="733" 
d="M683 0h-106l-74 199h-289l-68 -199h-97l255 708l107 4zM475 276l-92 246q-26 71 -30 86l-3 -8q-3 -9 -10 -32t-15 -47l-85 -245h235zM471 842l-13 -68l-232 101l10 81z" />
    <glyph glyph-name="Aacute" unicode="&#xc1;" horiz-adv-x="733" 
d="M683 0h-106l-74 199h-289l-68 -199h-97l255 708l107 4zM475 276l-92 246q-26 71 -30 86l-3 -8q-3 -9 -10 -32t-15 -47l-85 -245h235zM499 875l-232 -101l-13 68l234 114z" />
    <glyph glyph-name="Acircumflex" unicode="&#xc2;" horiz-adv-x="733" 
d="M683 0h-106l-74 199h-289l-68 -199h-97l255 708l107 4zM475 276l-92 246q-26 71 -30 86l-3 -8q-3 -9 -10 -32t-15 -47l-85 -245h235zM546 822l-55 -54l-131 106l-135 -105l-47 49l187 145z" />
    <glyph glyph-name="Atilde" unicode="&#xc3;" horiz-adv-x="733" 
d="M683 0h-106l-74 199h-289l-68 -199h-97l255 708l107 4zM475 276l-92 246q-26 71 -30 86l-3 -8q-3 -9 -10 -32t-15 -47l-85 -245h235zM545 932q-22 -71 -53 -96t-68 -25q-23 0 -69 17l-14 5q-26 10 -40 10q-40 0 -67 -66l-55 17q22 71 52.5 96t68.5 25q23 0 69 -17l13 -5
q26 -10 41 -10q40 0 67 65z" />
    <glyph glyph-name="Adieresis" unicode="&#xc4;" horiz-adv-x="733" 
d="M683 0h-106l-74 199h-289l-68 -199h-97l255 708l107 4zM475 276l-92 246q-26 71 -30 86l-3 -8q-3 -9 -10 -32t-15 -47l-85 -245h235zM313 858q0 -27 -15.5 -42.5t-39.5 -15.5q-23 0 -38 17t-15 42q0 24 14.5 39t40.5 15q25 0 39 -15.5t14 -39.5zM517 858
q0 -27 -15.5 -42.5t-39.5 -15.5q-23 0 -38 17t-15 42q0 24 14.5 39t40.5 15q25 0 39 -15.5t14 -39.5z" />
    <glyph glyph-name="Aring" unicode="&#xc5;" horiz-adv-x="733" 
d="M683 0h-106l-74 199h-289l-68 -199h-97l255 708l107 4zM488 853q0 -53 -37 -86t-93 -33q-55 0 -89 31.5t-34 84.5q0 54 36.5 87t93.5 33q55 0 89 -31.5t34 -85.5zM475 276l-92 246q-26 71 -30 86l-3 -8q-3 -9 -10 -32t-15 -47l-85 -245h235zM418 849q0 29 -15.5 48.5
t-41.5 19.5q-25 0 -41 -16.5t-16 -46.5q0 -29 15.5 -48.5t40.5 -19.5q26 0 42 16.5t16 46.5z" />
    <glyph glyph-name="AE" unicode="&#xc6;" horiz-adv-x="962" 
d="M872 82l-7 -82h-397v199h-243l-116 -199h-106l420 710h425v-82h-284v-228h264v-79h-264v-239h308zM468 276v353q-17 -37 -49 -93l-151 -260h200z" />
    <glyph glyph-name="Ccedilla" unicode="&#xc7;" horiz-adv-x="782" 
d="M694 129l-6 -87q-114 -52 -235 -52q-147 0 -242 65q-68 47 -107 125.5t-39 172.5q0 196 138 296q96 71 251 71q114 0 218 -42l-9 -84q-118 42 -213 42q-121 0 -191 -57q-94 -76 -94 -220q0 -122 78.5 -203t216.5 -81q113 0 234 54zM488 -155q0 -42 -31 -72.5t-82 -30.5
q-39 0 -64 15l-2 64q37 -15 62 -15q19 0 31 10t12 25q0 49 -106 61l18 55q86 -4 124 -38t38 -74z" />
    <glyph glyph-name="Egrave" unicode="&#xc8;" horiz-adv-x="596" 
d="M506 82l-7 -82h-397v710h380v-82h-284v-228h264v-79h-264v-239h308zM404 842l-13 -68l-232 101l10 81z" />
    <glyph glyph-name="Eacute" unicode="&#xc9;" horiz-adv-x="596" 
d="M506 82l-7 -82h-397v710h380v-82h-284v-228h264v-79h-264v-239h308zM433 875l-232 -101l-13 68l234 114z" />
    <glyph glyph-name="Ecircumflex" unicode="&#xca;" horiz-adv-x="596" 
d="M506 82l-7 -82h-397v710h380v-82h-284v-228h264v-79h-264v-239h308zM483 822l-55 -54l-131 106l-135 -105l-47 49l187 145z" />
    <glyph glyph-name="Edieresis" unicode="&#xcb;" horiz-adv-x="596" 
d="M506 82l-7 -82h-397v710h380v-82h-284v-228h264v-79h-264v-239h308zM250 858q0 -27 -15.5 -42.5t-39.5 -15.5q-23 0 -38 17t-15 42q0 24 14.5 39t40.5 15q25 0 39 -15.5t14 -39.5zM454 858q0 -27 -15.5 -42.5t-39.5 -15.5q-23 0 -38 17t-15 42q0 24 14.5 39t40.5 15
q25 0 39 -15.5t14 -39.5z" />
    <glyph glyph-name="Igrave" unicode="&#xcc;" horiz-adv-x="300" 
d="M198 0h-96v710h96v-710zM267 842l-13 -68l-232 101l10 81z" />
    <glyph glyph-name="Iacute" unicode="&#xcd;" horiz-adv-x="300" 
d="M198 0h-96v710h96v-710zM280 875l-232 -101l-13 68l234 114z" />
    <glyph glyph-name="Icircumflex" unicode="&#xce;" horiz-adv-x="300" 
d="M198 0h-96v710h96v-710zM335 822l-55 -54l-131 106l-135 -105l-47 49l187 145z" />
    <glyph glyph-name="Idieresis" unicode="&#xcf;" horiz-adv-x="300" 
d="M198 0h-96v710h96v-710zM102 858q0 -27 -15.5 -42.5t-39.5 -15.5q-23 0 -38 17t-15 42q0 24 14.5 39t40.5 15q25 0 39 -15.5t14 -39.5zM306 858q0 -27 -15.5 -42.5t-39.5 -15.5q-23 0 -38 17t-15 42q0 24 14.5 39t40.5 15q25 0 39 -15.5t14 -39.5z" />
    <glyph glyph-name="Eth" unicode="&#xd0;" horiz-adv-x="813" 
d="M745 367q0 -143 -89 -242q-106 -127 -323 -127q-144 0 -231 2v328h-95v68h95v314q72 1 191 1q259 0 365 -119q87 -92 87 -225zM645 357q0 108 -65 178q-46 51 -114.5 72.5t-175.5 21.5q-59 0 -92 -1v-232h198v-68h-198v-246q54 -2 138 -2q176 0 252 104q57 68 57 173z
" />
    <glyph glyph-name="Ntilde" unicode="&#xd1;" horiz-adv-x="812" 
d="M710 710v-710h-103l-417 571q3 -35 3 -114v-457h-91v710h104l415 -566q-2 23 -2 99v467h91zM592 932q-22 -71 -53 -96t-68 -25q-23 0 -69 17l-14 5q-26 10 -40 10q-40 0 -67 -66l-55 17q22 71 52.5 96t68.5 25q23 0 69 -17l13 -5q26 -10 41 -10q40 0 67 65z" />
    <glyph glyph-name="Ograve" unicode="&#xd2;" horiz-adv-x="875" 
d="M810 365q0 -99 -40 -179.5t-111 -130.5q-91 -66 -231 -66q-134 0 -234 81q-62 51 -95.5 127t-33.5 166q0 184 140 284q98 74 236 74q171 0 271 -102q98 -100 98 -254zM709 356q0 125 -77 204q-74 77 -201 77q-99 0 -170 -57q-44 -33 -69.5 -87.5t-25.5 -119.5
q0 -149 92 -233q32 -30 77 -48.5t93 -18.5h8q101 0 166 48q107 79 107 235zM541 842l-13 -68l-232 101l10 81z" />
    <glyph glyph-name="Oacute" unicode="&#xd3;" horiz-adv-x="875" 
d="M810 365q0 -99 -40 -179.5t-111 -130.5q-91 -66 -231 -66q-134 0 -234 81q-62 51 -95.5 127t-33.5 166q0 184 140 284q98 74 236 74q171 0 271 -102q98 -100 98 -254zM709 356q0 125 -77 204q-74 77 -201 77q-99 0 -170 -57q-44 -33 -69.5 -87.5t-25.5 -119.5
q0 -149 92 -233q32 -30 77 -48.5t93 -18.5h8q101 0 166 48q107 79 107 235zM583 875l-232 -101l-13 68l234 114z" />
    <glyph glyph-name="Ocircumflex" unicode="&#xd4;" horiz-adv-x="875" 
d="M810 365q0 -99 -40 -179.5t-111 -130.5q-91 -66 -231 -66q-134 0 -234 81q-62 51 -95.5 127t-33.5 166q0 184 140 284q98 74 236 74q171 0 271 -102q98 -100 98 -254zM709 356q0 125 -77 204q-74 77 -201 77q-99 0 -170 -57q-44 -33 -69.5 -87.5t-25.5 -119.5
q0 -149 92 -233q32 -30 77 -48.5t93 -18.5h8q101 0 166 48q107 79 107 235zM623 822l-55 -54l-131 106l-135 -105l-47 49l187 145z" />
    <glyph glyph-name="Otilde" unicode="&#xd5;" horiz-adv-x="875" 
d="M810 365q0 -99 -40 -179.5t-111 -130.5q-91 -66 -231 -66q-134 0 -234 81q-62 51 -95.5 127t-33.5 166q0 184 140 284q98 74 236 74q171 0 271 -102q98 -100 98 -254zM709 356q0 125 -77 204q-74 77 -201 77q-99 0 -170 -57q-44 -33 -69.5 -87.5t-25.5 -119.5
q0 -149 92 -233q32 -30 77 -48.5t93 -18.5h8q101 0 166 48q107 79 107 235zM622 932q-22 -71 -53 -96t-68 -25q-23 0 -69 17l-14 5q-26 10 -40 10q-40 0 -67 -66l-55 17q22 71 52.5 96t68.5 25q23 0 69 -17l13 -5q26 -10 41 -10q40 0 67 65z" />
    <glyph glyph-name="Odieresis" unicode="&#xd6;" horiz-adv-x="875" 
d="M810 365q0 -99 -40 -179.5t-111 -130.5q-91 -66 -231 -66q-134 0 -234 81q-62 51 -95.5 127t-33.5 166q0 184 140 284q98 74 236 74q171 0 271 -102q98 -100 98 -254zM709 356q0 125 -77 204q-74 77 -201 77q-99 0 -170 -57q-44 -33 -69.5 -87.5t-25.5 -119.5
q0 -149 92 -233q32 -30 77 -48.5t93 -18.5h8q101 0 166 48q107 79 107 235zM390 858q0 -27 -15.5 -42.5t-39.5 -15.5q-23 0 -38 17t-15 42q0 24 14.5 39t40.5 15q25 0 39 -15.5t14 -39.5zM594 858q0 -27 -15.5 -42.5t-39.5 -15.5q-23 0 -38 17t-15 42q0 24 14.5 39t40.5 15
q25 0 39 -15.5t14 -39.5z" />
    <glyph glyph-name="multiply" unicode="&#xd7;" horiz-adv-x="548" 
d="M447 77l-174 174l-172 -174l-50 49l173 174l-173 174l50 49l172 -174l174 174l50 -49l-174 -174l174 -174z" />
    <glyph glyph-name="Oslash" unicode="&#xd8;" horiz-adv-x="875" 
d="M810 365q1 -99 -39.5 -179t-111.5 -131q-91 -66 -231 -66q-85 0 -160 35l-68 -105l-61 38l67 103q-141 108 -141 303q0 184 140 284q98 74 236 74q97 0 172 -35l71 110l61 -37l-70 -107q135 -102 135 -287zM565 609q-57 28 -134 28q-98 0 -171 -56q-44 -34 -69 -88.5
t-25 -119.5q0 -151 92 -232zM709 356q0 137 -87 215l-307 -472q52 -26 113 -26h8q102 0 166 47q107 80 107 236z" />
    <glyph glyph-name="Ugrave" unicode="&#xd9;" horiz-adv-x="773" 
d="M676 710v-368q0 -99 -14 -158.5t-53 -103.5q-77 -91 -224 -91q-161 0 -233 98q-31 42 -43 101t-12 156v366h97v-367q0 -76 9 -123t34 -81q50 -65 156 -65q96 0 144 59q27 32 37.5 77t10.5 118v382h91zM506 842l-13 -68l-232 101l10 81z" />
    <glyph glyph-name="Uacute" unicode="&#xda;" horiz-adv-x="773" 
d="M676 710v-368q0 -99 -14 -158.5t-53 -103.5q-77 -91 -224 -91q-161 0 -233 98q-31 42 -43 101t-12 156v366h97v-367q0 -76 9 -123t34 -81q50 -65 156 -65q96 0 144 59q27 32 37.5 77t10.5 118v382h91zM519 875l-232 -101l-13 68l234 114z" />
    <glyph glyph-name="Ucircumflex" unicode="&#xdb;" horiz-adv-x="773" 
d="M676 710v-368q0 -99 -14 -158.5t-53 -103.5q-77 -91 -224 -91q-161 0 -233 98q-31 42 -43 101t-12 156v366h97v-367q0 -76 9 -123t34 -81q50 -65 156 -65q96 0 144 59q27 32 37.5 77t10.5 118v382h91zM573 822l-55 -54l-131 106l-135 -105l-47 49l187 145z" />
    <glyph glyph-name="Udieresis" unicode="&#xdc;" horiz-adv-x="773" 
d="M676 710v-368q0 -99 -14 -158.5t-53 -103.5q-77 -91 -224 -91q-161 0 -233 98q-31 42 -43 101t-12 156v366h97v-367q0 -76 9 -123t34 -81q50 -65 156 -65q96 0 144 59q27 32 37.5 77t10.5 118v382h91zM340 858q0 -27 -15.5 -42.5t-39.5 -15.5q-23 0 -38 17t-15 42
q0 24 14.5 39t40.5 15q25 0 39 -15.5t14 -39.5zM544 858q0 -27 -15.5 -42.5t-39.5 -15.5q-23 0 -38 17t-15 42q0 24 14.5 39t40.5 15q25 0 39 -15.5t14 -39.5z" />
    <glyph glyph-name="Yacute" unicode="&#xdd;" horiz-adv-x="665" 
d="M382 0h-96v307l-269 403h115l208 -316l204 316h104l-266 -402v-308zM489 875l-232 -101l-13 68l234 114z" />
    <glyph glyph-name="Thorn" unicode="&#xde;" horiz-adv-x="608" 
d="M542 371q0 -66 -32 -120t-90 -82q-72 -37 -168 -26v78q81 -6 125 22q66 41 66 121q0 78 -60 118q-49 33 -149 33h-36v-515h-96v710h96v-112h37q142 0 218 -52q89 -62 89 -175z" />
    <glyph glyph-name="germandbls" unicode="&#xdf;" horiz-adv-x="691" 
d="M625 145q0 -59 -47.5 -106.5t-142.5 -47.5q-78 0 -145 33l-2 75q76 -34 143 -34q49 0 74.5 22.5t25.5 51.5q0 23 -17 42.5t-64 36.5l-23 8q-115 42 -115 137q0 30 12 55t30 41t39 33.5l39 32.5t30 37t12 47q0 38 -33 67t-103 29q-136 0 -151 -131q-3 -22 -3 -61v-513h-91
v419h-79v63l79 9v6q0 74 12 117q18 75 78 119t165 44t162 -46.5t57 -111.5q0 -40 -17 -72t-40.5 -52t-47.5 -37.5t-41 -38.5t-17 -45q0 -26 17.5 -44.5t62.5 -34.5l23 -8q118 -43 118 -142z" />
    <glyph glyph-name="agrave" unicode="&#xe0;" horiz-adv-x="527" 
d="M505 54l-4 -57q-31 -6 -59 -6q-72 0 -91 59q-64 -61 -154 -61q-67 0 -110 36.5t-43 96.5q0 25 7.5 46.5t27.5 44t51.5 39t85 27t122.5 11.5v17q0 58 -10 80q-23 50 -97 50q-75 0 -153 -41l-6 69q70 47 168 47q120 0 163 -73q24 -40 24 -133v-164q0 -30 1 -40.5t7.5 -25.5
t23 -19t46.5 -3zM338 105v120q-111 2 -159 -25.5t-48 -68.5q0 -31 23.5 -51.5t65.5 -20.5q65 0 118 46zM324 640l-22 -63l-221 137l22 77z" />
    <glyph glyph-name="aacute" unicode="&#xe1;" horiz-adv-x="527" 
d="M505 54l-4 -57q-31 -6 -59 -6q-72 0 -91 59q-64 -61 -154 -61q-67 0 -110 36.5t-43 96.5q0 25 7.5 46.5t27.5 44t51.5 39t85 27t122.5 11.5v17q0 58 -10 80q-23 50 -97 50q-75 0 -153 -41l-6 69q70 47 168 47q120 0 163 -73q24 -40 24 -133v-164q0 -30 1 -40.5t7.5 -25.5
t23 -19t46.5 -3zM338 105v120q-111 2 -159 -25.5t-48 -68.5q0 -31 23.5 -51.5t65.5 -20.5q65 0 118 46zM394 714l-221 -137l-22 63l221 151z" />
    <glyph glyph-name="acircumflex" unicode="&#xe2;" horiz-adv-x="527" 
d="M505 54l-4 -57q-31 -6 -59 -6q-72 0 -91 59q-64 -61 -154 -61q-67 0 -110 36.5t-43 96.5q0 25 7.5 46.5t27.5 44t51.5 39t85 27t122.5 11.5v17q0 58 -10 80q-23 50 -97 50q-75 0 -153 -41l-6 69q70 47 168 47q120 0 163 -73q24 -40 24 -133v-164q0 -30 1 -40.5t7.5 -25.5
t23 -19t46.5 -3zM338 105v120q-111 2 -159 -25.5t-48 -68.5q0 -31 23.5 -51.5t65.5 -20.5q65 0 118 46zM416 624l-56 -47l-122 117l-126 -116l-47 44l180 163z" />
    <glyph glyph-name="atilde" unicode="&#xe3;" horiz-adv-x="527" 
d="M505 54l-4 -57q-31 -6 -59 -6q-72 0 -91 59q-64 -61 -154 -61q-67 0 -110 36.5t-43 96.5q0 25 7.5 46.5t27.5 44t51.5 39t85 27t122.5 11.5v17q0 58 -10 80q-23 50 -97 50q-75 0 -153 -41l-6 69q70 47 168 47q120 0 163 -73q24 -40 24 -133v-164q0 -30 1 -40.5t7.5 -25.5
t23 -19t46.5 -3zM338 105v120q-111 2 -159 -25.5t-48 -68.5q0 -31 23.5 -51.5t65.5 -20.5q65 0 118 46zM423 743q-22 -71 -53 -96.5t-68 -25.5q-23 0 -69 17l-14 5q-26 10 -40 10q-40 0 -67 -65l-55 17q22 71 53 96t68 25q23 0 69 -17l13 -5q26 -10 41 -10q40 0 67 65z" />
    <glyph glyph-name="adieresis" unicode="&#xe4;" horiz-adv-x="527" 
d="M505 54l-4 -57q-31 -6 -59 -6q-72 0 -91 59q-64 -61 -154 -61q-67 0 -110 36.5t-43 96.5q0 25 7.5 46.5t27.5 44t51.5 39t85 27t122.5 11.5v17q0 58 -10 80q-23 50 -97 50q-75 0 -153 -41l-6 69q70 47 168 47q120 0 163 -73q24 -40 24 -133v-164q0 -30 1 -40.5t7.5 -25.5
t23 -19t46.5 -3zM338 105v120q-111 2 -159 -25.5t-48 -68.5q0 -31 23.5 -51.5t65.5 -20.5q65 0 118 46zM195 678q0 -28 -15 -43t-40 -15q-24 0 -38.5 16.5t-14.5 42.5q0 25 14.5 40.5t40.5 15.5q25 0 39 -16t14 -41zM393 678q0 -28 -15.5 -43t-39.5 -15t-39 16.5t-15 42.5
q0 25 15 40.5t41 15.5q25 0 39 -16t14 -41z" />
    <glyph glyph-name="aring" unicode="&#xe5;" horiz-adv-x="527" 
d="M505 54l-4 -57q-31 -6 -59 -6q-72 0 -91 59q-64 -61 -154 -61q-67 0 -110 36.5t-43 96.5q0 25 7.5 46.5t27.5 44t51.5 39t85 27t122.5 11.5v17q0 58 -10 80q-23 50 -97 50q-75 0 -153 -41l-6 69q70 47 168 47q120 0 163 -73q24 -40 24 -133v-164q0 -30 1 -40.5t7.5 -25.5
t23 -19t46.5 -3zM338 105v120q-111 2 -159 -25.5t-48 -68.5q0 -31 23.5 -51.5t65.5 -20.5q65 0 118 46zM366 687q0 -54 -36.5 -88.5t-92.5 -34.5q-55 0 -89 32t-34 85q0 55 36 89.5t92 34.5t90 -32t34 -86zM299 681q0 35 -16 54.5t-43 19.5q-26 0 -42.5 -17.5t-16.5 -50.5
q0 -35 16 -54t43 -19q26 0 42.5 17.5t16.5 49.5z" />
    <glyph glyph-name="ae" unicode="&#xe6;" horiz-adv-x="831" 
d="M770 99l-3 -70q-72 -37 -163 -39q-142 -1 -210 87q-76 -88 -194 -88q-70 0 -113 36.5t-43 96.5q0 25 7.5 46.5t27.5 44t51.5 39t85 27t122.5 11.5v17q0 58 -10 80q-23 50 -97 50q-75 0 -153 -41l-6 69q70 47 168 47q120 0 159 -76q62 77 173 77q97 0 150.5 -69t41.5 -193
h-337q-1 -89 50 -137.5t138 -48.5q77 0 155 34zM361 131q-19 45 -22 94q-112 2 -160 -25.5t-48 -68.5q0 -32 24 -52t69 -20q37 0 74 19t63 53zM677 315q1 61 -31.5 96.5t-87.5 35.5q-50 0 -87.5 -35.5t-41.5 -97.5z" />
    <glyph glyph-name="ccedilla" unicode="&#xe7;" horiz-adv-x="505" 
d="M442 99l-2 -75q-63 -33 -139 -33q-115 0 -181 69.5t-66 185.5q0 129 68 197.5t179 68.5q74 0 132 -25l-8 -76q-59 24 -121 24q-71 0 -114 -43.5t-43 -132.5q0 -92 46.5 -141.5t119.5 -49.5q59 0 129 31zM381 -157q0 -40 -31 -69t-83 -29q-39 0 -71 15v55q32 -13 63 -13
q25 0 38 11.5t13 28.5q0 54 -108 66l13 48q87 -5 126.5 -38.5t39.5 -74.5z" />
    <glyph glyph-name="egrave" unicode="&#xe8;" horiz-adv-x="544" 
d="M483 99l-3 -70q-72 -37 -163 -39q-128 -1 -197.5 72t-69.5 196q0 115 64.5 185t170.5 70q97 0 150.5 -69t41.5 -193h-337q-1 -89 50 -137.5t138 -48.5q78 0 155 34zM390 315q1 61 -31.5 96.5t-86.5 35.5q-51 0 -88.5 -35.5t-41.5 -97.5zM363 640l-22 -63l-221 137l22 77z
" />
    <glyph glyph-name="eacute" unicode="&#xe9;" horiz-adv-x="544" 
d="M483 99l-3 -70q-72 -37 -163 -39q-128 -1 -197.5 72t-69.5 196q0 115 64.5 185t170.5 70q97 0 150.5 -69t41.5 -193h-337q-1 -89 50 -137.5t138 -48.5q78 0 155 34zM390 315q1 61 -31.5 96.5t-86.5 35.5q-51 0 -88.5 -35.5t-41.5 -97.5zM428 714l-221 -137l-22 63
l221 151z" />
    <glyph glyph-name="ecircumflex" unicode="&#xea;" horiz-adv-x="544" 
d="M483 99l-3 -70q-72 -37 -163 -39q-128 -1 -197.5 72t-69.5 196q0 115 64.5 185t170.5 70q97 0 150.5 -69t41.5 -193h-337q-1 -89 50 -137.5t138 -48.5q78 0 155 34zM390 315q1 61 -31.5 96.5t-86.5 35.5q-51 0 -88.5 -35.5t-41.5 -97.5zM453 624l-56 -47l-122 117
l-126 -116l-47 44l180 163z" />
    <glyph glyph-name="edieresis" unicode="&#xeb;" horiz-adv-x="544" 
d="M483 99l-3 -70q-72 -37 -163 -39q-128 -1 -197.5 72t-69.5 196q0 115 64.5 185t170.5 70q97 0 150.5 -69t41.5 -193h-337q-1 -89 50 -137.5t138 -48.5q78 0 155 34zM390 315q1 61 -31.5 96.5t-86.5 35.5q-51 0 -88.5 -35.5t-41.5 -97.5zM232 678q0 -28 -15 -43t-40 -15
q-24 0 -38.5 16.5t-14.5 42.5q0 25 14.5 40.5t40.5 15.5q25 0 39 -16t14 -41zM430 678q0 -28 -15.5 -43t-39.5 -15t-39 16.5t-15 42.5q0 25 15 40.5t41 15.5q25 0 39 -16t14 -41z" />
    <glyph glyph-name="igrave" unicode="&#xec;" horiz-adv-x="245" 
d="M225 616l-34 -58l-189 180l38 71zM168 0h-91v493l91 8v-501z" />
    <glyph glyph-name="iacute" unicode="&#xed;" horiz-adv-x="245" 
d="M243 738l-188 -180l-34 58l185 193zM168 0h-91v493l91 8v-501z" />
    <glyph glyph-name="icircumflex" unicode="&#xee;" horiz-adv-x="245" 
d="M168 0h-91v493l91 8v-501zM300 624l-56 -47l-122 117l-126 -116l-47 44l180 163z" />
    <glyph glyph-name="idieresis" unicode="&#xef;" horiz-adv-x="245" 
d="M78 678q0 -28 -15 -43t-40 -15q-24 0 -38.5 16.5t-14.5 42.5q0 25 14.5 40.5t40.5 15.5q25 0 39 -16t14 -41zM276 678q0 -28 -15.5 -43t-39.5 -15t-39 16.5t-15 42.5q0 25 15 40.5t41 15.5q25 0 39 -16t14 -41zM168 0h-91v493l91 8v-501z" />
    <glyph glyph-name="eth" unicode="&#xf0;" horiz-adv-x="583" 
d="M473 722l-76 -52q127 -120 127 -334q0 -170 -71.5 -259t-189.5 -89q-94 0 -152 59.5t-58 160.5q0 74 29.5 130t81.5 86q66 37 155 37q53 0 97 -12q-24 111 -90 172l-125 -84l-40 49l110 74q-70 43 -176 49l10 70q139 -2 239 -69l90 60zM429 319q0 31 -3 59q-51 16 -99 16
q-73 0 -116 -32q-66 -48 -66 -143q0 -76 37.5 -117t90.5 -41q62 0 99 43q57 64 57 215z" />
    <glyph glyph-name="ntilde" unicode="&#xf1;" horiz-adv-x="568" 
d="M493 0h-91v262q0 27 -2 61q-8 111 -109 111q-69 0 -123 -57v-377h-91v499l83 8l2 -64q61 69 155 69q117 0 157 -95q19 -44 19 -143v-274zM468 743q-22 -71 -53 -96.5t-68 -25.5q-23 0 -69 17l-14 5q-26 10 -40 10q-40 0 -67 -65l-55 17q22 71 53 96t68 25q23 0 69 -17
l13 -5q26 -10 41 -10q40 0 67 65z" />
    <glyph glyph-name="ograve" unicode="&#xf2;" horiz-adv-x="595" 
d="M541 263q0 -128 -70.5 -200.5t-175.5 -72.5q-104 0 -172.5 71.5t-68.5 192.5q0 120 70 189.5t181 69.5q106 0 171 -67.5t65 -182.5zM448 255q0 82 -40 133t-111 51q-68 0 -109.5 -47t-41.5 -133q0 -83 41.5 -139t107.5 -56h8q64 0 104.5 52.5t40.5 138.5zM384 640
l-22 -63l-221 137l22 77z" />
    <glyph glyph-name="oacute" unicode="&#xf3;" horiz-adv-x="595" 
d="M541 263q0 -128 -70.5 -200.5t-175.5 -72.5q-104 0 -172.5 71.5t-68.5 192.5q0 120 70 189.5t181 69.5q106 0 171 -67.5t65 -182.5zM448 255q0 82 -40 133t-111 51q-68 0 -109.5 -47t-41.5 -133q0 -83 41.5 -139t107.5 -56h8q64 0 104.5 52.5t40.5 138.5zM448 714
l-221 -137l-22 63l221 151z" />
    <glyph glyph-name="ocircumflex" unicode="&#xf4;" horiz-adv-x="595" 
d="M541 263q0 -128 -70.5 -200.5t-175.5 -72.5q-104 0 -172.5 71.5t-68.5 192.5q0 120 70 189.5t181 69.5q106 0 171 -67.5t65 -182.5zM448 255q0 82 -40 133t-111 51q-68 0 -109.5 -47t-41.5 -133q0 -83 41.5 -139t107.5 -56h8q64 0 104.5 52.5t40.5 138.5zM474 624
l-56 -47l-122 117l-126 -116l-47 44l180 163z" />
    <glyph glyph-name="otilde" unicode="&#xf5;" horiz-adv-x="595" 
d="M541 263q0 -128 -70.5 -200.5t-175.5 -72.5q-104 0 -172.5 71.5t-68.5 192.5q0 120 70 189.5t181 69.5q106 0 171 -67.5t65 -182.5zM448 255q0 82 -40 133t-111 51q-68 0 -109.5 -47t-41.5 -133q0 -83 41.5 -139t107.5 -56h8q64 0 104.5 52.5t40.5 138.5zM480 743
q-22 -71 -53 -96.5t-68 -25.5q-23 0 -69 17l-14 5q-26 10 -40 10q-40 0 -67 -65l-55 17q22 71 53 96t68 25q23 0 69 -17l13 -5q26 -10 41 -10q40 0 67 65z" />
    <glyph glyph-name="odieresis" unicode="&#xf6;" horiz-adv-x="595" 
d="M541 263q0 -128 -70.5 -200.5t-175.5 -72.5q-104 0 -172.5 71.5t-68.5 192.5q0 120 70 189.5t181 69.5q106 0 171 -67.5t65 -182.5zM448 255q0 82 -40 133t-111 51q-68 0 -109.5 -47t-41.5 -133q0 -83 41.5 -139t107.5 -56h8q64 0 104.5 52.5t40.5 138.5zM253 678
q0 -28 -15 -43t-40 -15q-24 0 -38.5 16.5t-14.5 42.5q0 25 14.5 40.5t40.5 15.5q25 0 39 -16t14 -41zM451 678q0 -28 -15.5 -43t-39.5 -15t-39 16.5t-15 42.5q0 25 15 40.5t41 15.5q25 0 39 -16t14 -41z" />
    <glyph glyph-name="divide" unicode="&#xf7;" horiz-adv-x="562" 
d="M326 485q0 -21 -14 -34.5t-36 -13.5q-21 0 -34 14.5t-13 36.5q0 20 14.5 34.5t35.5 14.5t34 -15.5t13 -36.5zM326 115q0 -21 -14 -35t-36 -14q-21 0 -34 15t-13 37q0 20 14 34t36 14q21 0 34 -15t13 -36zM512 268h-476v71h476v-71z" />
    <glyph glyph-name="oslash" unicode="&#xf8;" horiz-adv-x="595" 
d="M541 263q0 -128 -70.5 -200.5t-175.5 -72.5q-62 0 -114 26l-61 -94l-51 31l62 98q-77 72 -77 203q0 120 70 189.5t181 69.5q57 0 106 -22l68 106l52 -31l-69 -108q79 -68 79 -195zM367 423q-32 17 -70 17q-68 0 -109.5 -47.5t-41.5 -133.5q0 -78 38 -130zM449 255
q0 77 -40 126l-184 -297q32 -21 70 -21h8q64 0 105 53t41 139z" />
    <glyph glyph-name="ugrave" unicode="&#xf9;" horiz-adv-x="568" 
d="M491 4l-83 -8l-2 63q-61 -69 -155 -69q-115 0 -157 95q-19 45 -19 144v269l91 9v-267q0 -34 3 -61q7 -111 108 -111q69 0 123 58v372l91 9v-503zM365 640l-22 -63l-221 137l22 77z" />
    <glyph glyph-name="uacute" unicode="&#xfa;" horiz-adv-x="568" 
d="M491 4l-83 -8l-2 63q-61 -69 -155 -69q-115 0 -157 95q-19 45 -19 144v269l91 9v-267q0 -34 3 -61q7 -111 108 -111q69 0 123 58v372l91 9v-503zM440 714l-221 -137l-22 63l221 151z" />
    <glyph glyph-name="ucircumflex" unicode="&#xfb;" horiz-adv-x="568" 
d="M491 4l-83 -8l-2 63q-61 -69 -155 -69q-115 0 -157 95q-19 45 -19 144v269l91 9v-267q0 -34 3 -61q7 -111 108 -111q69 0 123 58v372l91 9v-503zM460 624l-56 -47l-122 117l-126 -116l-47 44l180 163z" />
    <glyph glyph-name="udieresis" unicode="&#xfc;" horiz-adv-x="568" 
d="M491 4l-83 -8l-2 63q-61 -69 -155 -69q-115 0 -157 95q-19 45 -19 144v269l91 9v-267q0 -34 3 -61q7 -111 108 -111q69 0 123 58v372l91 9v-503zM239 678q0 -28 -15 -43t-40 -15q-24 0 -38.5 16.5t-14.5 42.5q0 25 14.5 40.5t40.5 15.5q25 0 39 -16t14 -41zM437 678
q0 -28 -15.5 -43t-39.5 -15t-39 16.5t-15 42.5q0 25 15 40.5t41 15.5q25 0 39 -16t14 -41z" />
    <glyph glyph-name="yacute" unicode="&#xfd;" horiz-adv-x="540" 
d="M504 503q-18 -141 -63 -285q-62 -201 -149 -310q-88 -111 -241 -171l-33 76q142 58 202 139q-47 109 -99 246.5t-81 221.5l-29 83h103q87 -277 165 -470q42 75 82 211q36 121 52 259h91zM411 714l-221 -137l-22 63l221 151z" />
    <glyph glyph-name="thorn" unicode="&#xfe;" horiz-adv-x="583" 
d="M529 264q0 -127 -72.5 -201t-202.5 -74q-46 0 -86 9v-248h-91v1015l91 9v-242l-5 -93q58 73 156 73q91 0 150.5 -65t59.5 -183zM435 251q0 90 -40 137t-97 47q-74 0 -130 -61v-296q44 -16 98 -16q79 0 124 49t45 140z" />
    <glyph glyph-name="ydieresis" unicode="&#xff;" horiz-adv-x="540" 
d="M504 503q-18 -141 -63 -285q-62 -201 -149 -310q-88 -111 -241 -171l-33 76q142 58 202 139q-47 109 -99 246.5t-81 221.5l-29 83h103q87 -277 165 -470q42 75 82 211q36 121 52 259h91zM212 678q0 -28 -15 -43t-40 -15q-24 0 -38.5 16.5t-14.5 42.5q0 25 14.5 40.5
t40.5 15.5q25 0 39 -16t14 -41zM410 678q0 -28 -15.5 -43t-39.5 -15t-39 16.5t-15 42.5q0 25 15 40.5t41 15.5q25 0 39 -16t14 -41z" />
    <glyph glyph-name="uni0100" unicode="&#x100;" horiz-adv-x="733" 
d="M683 0h-106l-74 199h-289l-68 -199h-97l255 708l107 4zM475 276l-92 246q-26 71 -30 86l-3 -8q-3 -9 -10 -32t-15 -47l-85 -245h235zM483 811h-244v71h244v-71z" />
    <glyph glyph-name="uni0101" unicode="&#x101;" horiz-adv-x="527" 
d="M505 54l-4 -57q-31 -6 -59 -6q-72 0 -91 59q-64 -61 -154 -61q-67 0 -110 36.5t-43 96.5q0 25 7.5 46.5t27.5 44t51.5 39t85 27t122.5 11.5v17q0 58 -10 80q-23 50 -97 50q-75 0 -153 -41l-6 69q70 47 168 47q120 0 163 -73q24 -40 24 -133v-164q0 -30 1 -40.5t7.5 -25.5
t23 -19t46.5 -3zM338 105v120q-111 2 -159 -25.5t-48 -68.5q0 -31 23.5 -51.5t65.5 -20.5q65 0 118 46zM365 640h-251v68h251v-68z" />
    <glyph glyph-name="uni0102" unicode="&#x102;" horiz-adv-x="733" 
d="M683 0h-106l-74 199h-289l-68 -199h-97l255 708l107 4zM475 276l-92 246q-26 71 -30 86l-3 -8q-3 -9 -10 -32t-15 -47l-85 -245h235zM454 944l68 -7q-8 -75 -51.5 -121t-113.5 -46q-82 0 -125 58q-32 42 -35 106l76 10q0 -1 1 -4.5t2 -9.5t2 -11q20 -78 86 -78
q36 0 59 27t31 76z" />
    <glyph glyph-name="uni0103" unicode="&#x103;" horiz-adv-x="527" 
d="M505 54l-4 -57q-31 -6 -59 -6q-72 0 -91 59q-64 -61 -154 -61q-67 0 -110 36.5t-43 96.5q0 25 7.5 46.5t27.5 44t51.5 39t85 27t122.5 11.5v17q0 58 -10 80q-23 50 -97 50q-75 0 -153 -41l-6 69q70 47 168 47q120 0 163 -73q24 -40 24 -133v-164q0 -30 1 -40.5t7.5 -25.5
t23 -19t46.5 -3zM338 105v120q-111 2 -159 -25.5t-48 -68.5q0 -31 23.5 -51.5t65.5 -20.5q65 0 118 46zM335 766l65 -5q-6 -77 -49 -124.5t-115 -47.5q-80 0 -123 63q-29 43 -31 105l70 10q0 -5 4 -23q19 -87 88 -87q36 0 60 29t31 80z" />
    <glyph glyph-name="uni0104" unicode="&#x104;" horiz-adv-x="733" 
d="M683 12h-2q-16 0 -46 -18.5t-51 -43.5q-24 -30 -24 -57q0 -44 49 -44q27 0 64 17v-60q-41 -22 -85 -22q-47 0 -76.5 26t-29.5 68q0 32 22 68t73 66l-74 199h-289l-68 -199h-97l255 709l107 3zM475 288l-92 246l-30 86q0 -1 -3 -10t-10 -30.5t-15 -45.5l-85 -246h235z" />
    <glyph glyph-name="uni0105" unicode="&#x105;" horiz-adv-x="527" 
d="M505 54l-4 -57q-96 -60 -96 -117q0 -43 49 -43q27 0 64 17v-60q-42 -23 -84 -23q-48 0 -77.5 26t-29.5 68q0 74 86 129q-49 8 -62 56q-64 -61 -154 -61q-67 0 -110 36.5t-43 96.5q0 25 7.5 46.5t27.5 44t51.5 39t85 27t122.5 11.5v17q0 58 -10 80q-23 50 -97 50
q-75 0 -153 -41l-6 69q70 47 168 47q120 0 163 -73q24 -40 24 -133v-164q0 -56 11.5 -72.5t66.5 -15.5zM338 105v120q-207 1 -207 -94q0 -31 23.5 -51.5t65.5 -20.5q65 0 118 46z" />
    <glyph glyph-name="uni0106" unicode="&#x106;" horiz-adv-x="782" 
d="M694 129l-6 -87q-114 -52 -235 -52q-147 0 -242 65q-68 47 -107 125.5t-39 172.5q0 196 138 296q96 71 251 71q114 0 218 -42l-9 -84q-118 42 -213 42q-121 0 -191 -57q-94 -76 -94 -220q0 -122 78.5 -203t216.5 -81q113 0 234 54zM563 875l-232 -101l-13 68l234 114z
" />
    <glyph glyph-name="uni0107" unicode="&#x107;" horiz-adv-x="505" 
d="M442 99l-2 -75q-63 -33 -139 -33q-115 0 -181 69.5t-66 185.5q0 129 68 197.5t179 68.5q74 0 132 -25l-8 -76q-59 24 -121 24q-71 0 -114 -43.5t-43 -132.5q0 -92 46.5 -141.5t119.5 -49.5q59 0 129 31zM427 714l-221 -137l-22 63l221 151z" />
    <glyph glyph-name="uni0108" unicode="&#x108;" horiz-adv-x="782" 
d="M694 129l-6 -87q-114 -52 -235 -52q-147 0 -242 65q-68 47 -107 125.5t-39 172.5q0 196 138 296q96 71 251 71q114 0 218 -42l-9 -84q-118 42 -213 42q-121 0 -191 -57q-94 -76 -94 -220q0 -122 78.5 -203t216.5 -81q113 0 234 54zM612 822l-55 -54l-131 106l-135 -105
l-47 49l187 145z" />
    <glyph glyph-name="uni0109" unicode="&#x109;" horiz-adv-x="505" 
d="M442 99l-2 -75q-63 -33 -139 -33q-115 0 -181 69.5t-66 185.5q0 129 68 197.5t179 68.5q74 0 132 -25l-8 -76q-59 24 -121 24q-71 0 -114 -43.5t-43 -132.5q0 -92 46.5 -141.5t119.5 -49.5q59 0 129 31zM455 624l-56 -47l-122 117l-126 -116l-47 44l180 163z" />
    <glyph glyph-name="uni010A" unicode="&#x10a;" horiz-adv-x="782" 
d="M694 129l-6 -87q-114 -52 -235 -52q-147 0 -242 65q-68 47 -107 125.5t-39 172.5q0 196 138 296q96 71 251 71q114 0 218 -42l-9 -84q-118 42 -213 42q-121 0 -191 -57q-94 -76 -94 -220q0 -122 78.5 -203t216.5 -81q113 0 234 54zM488 853q0 -28 -17 -44t-45 -16t-44 17
t-16 44q0 26 17 41.5t45 15.5q29 0 44.5 -16t15.5 -42z" />
    <glyph glyph-name="uni010B" unicode="&#x10b;" horiz-adv-x="505" 
d="M442 99l-2 -75q-63 -33 -139 -33q-115 0 -181 69.5t-66 185.5q0 129 68 197.5t179 68.5q74 0 132 -25l-8 -76q-59 24 -121 24q-71 0 -114 -43.5t-43 -132.5q0 -92 46.5 -141.5t119.5 -49.5q59 0 129 31zM340 675q0 -27 -17.5 -44t-44.5 -17q-28 0 -44 17.5t-16 44.5
q0 26 16.5 42t45.5 16q28 0 44 -16.5t16 -42.5z" />
    <glyph glyph-name="uni010C" unicode="&#x10c;" horiz-adv-x="782" 
d="M694 129l-6 -87q-114 -52 -235 -52q-147 0 -242 65q-68 47 -107 125.5t-39 172.5q0 196 138 296q96 71 251 71q114 0 218 -42l-9 -84q-118 42 -213 42q-121 0 -191 -57q-94 -76 -94 -220q0 -122 78.5 -203t216.5 -81q113 0 234 54zM614 903l-188 -144l-180 141l54 53
l132 -106l135 106z" />
    <glyph glyph-name="uni010D" unicode="&#x10d;" horiz-adv-x="505" 
d="M442 99l-2 -75q-63 -33 -139 -33q-115 0 -181 69.5t-66 185.5q0 129 68 197.5t179 68.5q74 0 132 -25l-8 -76q-59 24 -121 24q-71 0 -114 -43.5t-43 -132.5q0 -92 46.5 -141.5t119.5 -49.5q59 0 129 31zM103 735l57 47l121 -118l126 117l47 -45l-180 -162z" />
    <glyph glyph-name="uni010E" unicode="&#x10e;" horiz-adv-x="813" 
d="M745 367q0 -143 -89 -242q-106 -127 -323 -127q-144 0 -231 2v710q72 1 191 1q259 0 365 -119q87 -92 87 -225zM645 357q0 108 -65 178q-46 51 -114.5 72.5t-175.5 21.5q-59 0 -92 -1v-546q54 -2 138 -2q176 0 252 104q57 68 57 173zM567 903l-188 -144l-180 141l54 53
l132 -106l135 106z" />
    <glyph glyph-name="uni010F" unicode="&#x10f;" horiz-adv-x="765" 
d="M506 3l-83 -8l-3 64q-60 -70 -156 -70q-91 0 -150.5 65.5t-59.5 184.5q0 125 71.5 199t196.5 74q53 0 93 -13v266l91 9v-771zM415 127v294q-47 18 -96 18q-80 0 -125.5 -49t-45.5 -139q0 -91 40 -138t97 -47q74 0 130 61zM751 685q0 -98 -121 -197l-53 35
q43 42 63.5 76.5t18.5 58t-14 45.5q-4 6 -26 28q17 43 57 43q27 0 47 -20q28 -26 28 -69z" />
    <glyph glyph-name="uni0110" unicode="&#x110;" horiz-adv-x="821" 
d="M752 367q0 -143 -89 -242q-106 -127 -323 -127q-143 0 -231 2v328h-102v68h102v314q72 1 191 1q259 0 365 -119q87 -92 87 -225zM652 357q0 109 -65 178q-46 51 -114.5 72.5t-175.5 21.5q-59 0 -92 -1v-232h191v-68h-191v-246q55 -2 138 -2q175 0 253 104q56 69 56 173z
" />
    <glyph glyph-name="uni0111" unicode="&#x111;" horiz-adv-x="587" 
d="M506 3l-83 -8l-3 64q-60 -70 -156 -70q-91 0 -150.5 65.5t-59.5 184.5q0 125 71.5 199t196.5 74q53 0 93 -13v111h-158v67h158v88l91 9v-97h86v-67h-86v-607zM415 127v294q-47 18 -96 18q-80 0 -125.5 -49t-45.5 -139q0 -91 40 -138t97 -47q74 0 130 61z" />
    <glyph glyph-name="uni0112" unicode="&#x112;" horiz-adv-x="596" 
d="M506 82l-7 -82h-397v710h380v-82h-284v-228h264v-79h-264v-239h308zM420 811h-244v71h244v-71z" />
    <glyph glyph-name="uni0113" unicode="&#x113;" horiz-adv-x="544" 
d="M483 99l-3 -70q-72 -37 -163 -39q-128 -1 -197.5 72t-69.5 196q0 115 64.5 185t170.5 70q97 0 150.5 -69t41.5 -193h-337q-1 -89 50 -137.5t138 -48.5q78 0 155 34zM390 315q1 61 -31.5 96.5t-86.5 35.5q-51 0 -88.5 -35.5t-41.5 -97.5zM402 640h-251v68h251v-68z" />
    <glyph glyph-name="uni0114" unicode="&#x114;" horiz-adv-x="596" 
d="M506 82l-7 -82h-397v710h380v-82h-284v-228h264v-79h-264v-239h308zM391 944l68 -7q-8 -75 -51.5 -121t-113.5 -46q-82 0 -125 58q-32 42 -35 106l76 10q0 -1 1 -4.5t2 -9.5t2 -11q19 -78 86 -78q36 0 59 27t31 76z" />
    <glyph glyph-name="uni0115" unicode="&#x115;" horiz-adv-x="544" 
d="M483 99l-3 -70q-72 -37 -163 -39q-128 -1 -197.5 72t-69.5 196q0 115 64.5 185t170.5 70q97 0 150.5 -69t41.5 -193h-337q-1 -89 50 -137.5t138 -48.5q78 0 155 34zM390 315q1 61 -31.5 96.5t-86.5 35.5q-51 0 -88.5 -35.5t-41.5 -97.5zM373 766l65 -5q-6 -77 -49 -124.5
t-115 -47.5q-80 0 -123 63q-29 43 -31 105l70 10q0 -5 4 -23q19 -87 88 -87q36 0 60 29t31 80z" />
    <glyph glyph-name="uni0116" unicode="&#x116;" horiz-adv-x="596" 
d="M506 82l-7 -82h-397v710h380v-82h-284v-228h264v-79h-264v-239h308zM360 853q0 -28 -17 -44t-45 -16t-44 17t-16 44q0 26 17 41.5t45 15.5q29 0 44.5 -16t15.5 -42z" />
    <glyph glyph-name="uni0117" unicode="&#x117;" horiz-adv-x="544" 
d="M483 99l-3 -70q-72 -37 -163 -39q-128 -1 -197.5 72t-69.5 196q0 115 64.5 185t170.5 70q97 0 150.5 -69t41.5 -193h-337q-1 -89 50 -137.5t138 -48.5q78 0 155 34zM390 315q1 61 -31.5 96.5t-86.5 35.5q-51 0 -88.5 -35.5t-41.5 -97.5zM338 675q0 -27 -17.5 -44
t-44.5 -17q-28 0 -44 17.5t-16 44.5q0 26 16.5 42t45.5 16q28 0 44 -16.5t16 -42.5z" />
    <glyph glyph-name="uni0118" unicode="&#x118;" horiz-adv-x="596" 
d="M506 82l-7 -82q-98 -62 -98 -120q0 -43 48 -43q27 0 65 17v-60q-43 -23 -85 -23q-47 0 -76.5 26t-29.5 68q0 80 97 135h-318v710h380v-82h-284v-228h264v-79h-264v-239h308z" />
    <glyph glyph-name="uni0119" unicode="&#x119;" horiz-adv-x="544" 
d="M483 99l-3 -70q-72 -53 -76 -56q-55 -47 -55 -93q0 -43 48 -43q27 0 65 17v-60q-43 -23 -85 -23q-48 0 -77.5 26t-29.5 68q0 30 20.5 65.5t64.5 63.5q-16 -4 -38 -4q-128 -1 -197.5 72t-69.5 196q0 115 64.5 185t170.5 70q97 0 150.5 -69t41.5 -193h-337
q-1 -89 50 -137.5t138 -48.5q78 0 155 34zM390 315q1 61 -31.5 96.5t-86.5 35.5q-51 0 -88.5 -35.5t-41.5 -97.5z" />
    <glyph glyph-name="uni011A" unicode="&#x11a;" horiz-adv-x="596" 
d="M506 82l-7 -82h-397v710h380v-82h-284v-228h264v-79h-264v-239h308zM485 903l-188 -144l-180 141l54 53l132 -106l135 106z" />
    <glyph glyph-name="uni011B" unicode="&#x11b;" horiz-adv-x="544" 
d="M483 99l-3 -70q-72 -37 -163 -39q-128 -1 -197.5 72t-69.5 196q0 115 64.5 185t170.5 70q97 0 150.5 -69t41.5 -193h-337q-1 -89 50 -137.5t138 -48.5q78 0 155 34zM390 315q1 61 -31.5 96.5t-86.5 35.5q-51 0 -88.5 -35.5t-41.5 -97.5zM101 735l57 47l121 -118l126 117
l47 -45l-180 -162z" />
    <glyph glyph-name="uni011C" unicode="&#x11c;" horiz-adv-x="800" 
d="M700 31q-129 -41 -244 -41q-152 0 -244 65q-69 46 -108 125.5t-39 176.5q0 192 134 289q102 74 260 74q123 0 222 -38l-8 -85q-109 39 -216 39q-132 0 -202 -60q-90 -74 -90 -212q0 -127 77 -208.5t221 -81.5q63 0 140 19v234h96v-212zM616 822l-55 -54l-131 106
l-135 -105l-47 49l187 145z" />
    <glyph glyph-name="uni011D" unicode="&#x11d;" horiz-adv-x="537" 
d="M520 482l-4 -64h-99q26 -43 26 -100q0 -83 -53.5 -139t-144.5 -56q-30 0 -45 5q-13 -16 -13 -35q0 -50 100 -53l53 -1q95 -3 136 -39q32 -29 32 -81q0 -66 -75 -129t-208 -63q-104 0 -158 44t-54 97q0 45 31 80t96 51q-34 25 -34 66q0 45 44 78q-99 48 -99 175
q0 84 54.5 140t140.5 56q66 0 115 -32h159zM356 318q0 66 -32 99.5t-77 33.5q-51 0 -80 -36t-29 -98q0 -66 31.5 -98.5t75.5 -32.5q52 0 81.5 36t29.5 96zM422 -97q0 21 -15 35q-22 20 -90 22l-50 1q-44 1 -76 11q-50 -13 -72.5 -37.5t-22.5 -53.5q0 -35 37 -62t108 -27
q81 0 131 35.5t50 75.5zM425 624l-56 -47l-122 117l-126 -116l-47 44l180 163z" />
    <glyph glyph-name="uni011E" unicode="&#x11e;" horiz-adv-x="800" 
d="M700 31q-129 -41 -244 -41q-152 0 -244 65q-69 46 -108 125.5t-39 176.5q0 192 134 289q102 74 260 74q123 0 222 -38l-8 -85q-109 39 -216 39q-132 0 -202 -60q-90 -74 -90 -212q0 -127 77 -208.5t221 -81.5q63 0 140 19v234h96v-212zM524 944l68 -7q-8 -75 -51.5 -121
t-113.5 -46q-82 0 -125 58q-32 42 -35 106l76 10q0 -1 1 -4.5t2 -9.5t2 -11q20 -78 86 -78q36 0 59 27t31 76z" />
    <glyph glyph-name="uni011F" unicode="&#x11f;" horiz-adv-x="537" 
d="M520 482l-4 -64h-99q26 -43 26 -100q0 -83 -53.5 -139t-144.5 -56q-30 0 -45 5q-13 -16 -13 -35q0 -50 100 -53l53 -1q95 -3 136 -39q32 -29 32 -81q0 -66 -75 -129t-208 -63q-104 0 -158 44t-54 97q0 45 31 80t96 51q-34 25 -34 66q0 45 44 78q-99 48 -99 175
q0 84 54.5 140t140.5 56q66 0 115 -32h159zM356 318q0 66 -32 99.5t-77 33.5q-51 0 -80 -36t-29 -98q0 -66 31.5 -98.5t75.5 -32.5q52 0 81.5 36t29.5 96zM422 -97q0 21 -15 35q-22 20 -90 22l-50 1q-44 1 -76 11q-50 -13 -72.5 -37.5t-22.5 -53.5q0 -35 37 -62t108 -27
q81 0 131 35.5t50 75.5zM345 766l65 -5q-6 -77 -49 -124.5t-115 -47.5q-80 0 -123 63q-29 43 -31 105l70 10q0 -5 4 -23q19 -87 88 -87q36 0 60 29t31 80z" />
    <glyph glyph-name="uni0120" unicode="&#x120;" horiz-adv-x="800" 
d="M700 31q-129 -41 -244 -41q-152 0 -244 65q-69 46 -108 125.5t-39 176.5q0 192 134 289q102 74 260 74q123 0 222 -38l-8 -85q-109 39 -216 39q-132 0 -202 -60q-90 -74 -90 -212q0 -127 77 -208.5t221 -81.5q63 0 140 19v234h96v-212zM493 853q0 -28 -17 -44t-45 -16
t-44 17t-16 44q0 26 17 41.5t45 15.5q29 0 44.5 -16t15.5 -42z" />
    <glyph glyph-name="uni0121" unicode="&#x121;" horiz-adv-x="537" 
d="M520 482l-4 -64h-99q26 -43 26 -100q0 -83 -53.5 -139t-144.5 -56q-30 0 -45 5q-13 -16 -13 -35q0 -50 100 -53l53 -1q95 -3 136 -39q32 -29 32 -81q0 -66 -75 -129t-208 -63q-104 0 -158 44t-54 97q0 45 31 80t96 51q-34 25 -34 66q0 45 44 78q-99 48 -99 175
q0 84 54.5 140t140.5 56q66 0 115 -32h159zM356 318q0 66 -32 99.5t-77 33.5q-51 0 -80 -36t-29 -98q0 -66 31.5 -98.5t75.5 -32.5q52 0 81.5 36t29.5 96zM422 -97q0 21 -15 35q-22 20 -90 22l-50 1q-44 1 -76 11q-50 -13 -72.5 -37.5t-22.5 -53.5q0 -35 37 -62t108 -27
q81 0 131 35.5t50 75.5zM310 675q0 -27 -17.5 -44t-44.5 -17q-28 0 -44 17.5t-16 44.5q0 26 16.5 42t45.5 16q28 0 44 -16.5t16 -42.5z" />
    <glyph glyph-name="uni0122" unicode="&#x122;" horiz-adv-x="800" 
d="M700 31q-129 -41 -244 -41q-152 0 -244 65q-69 46 -108 125.5t-39 176.5q0 192 134 289q102 74 260 74q123 0 222 -38l-8 -85q-109 39 -216 39q-132 0 -202 -60q-90 -74 -90 -212q0 -127 77 -208.5t221 -81.5q63 0 140 19v234h96v-212zM483 -139q0 -69 -98 -154l-52 32
q43 44 58 75.5t-1 58.5q-4 7 -11 14l-11 11l-5 4q18 36 55 36q23 0 39 -13q26 -21 26 -64z" />
    <glyph glyph-name="uni0123" unicode="&#x123;" horiz-adv-x="537" 
d="M520 482l-4 -64h-99q26 -43 26 -100q0 -83 -53.5 -139t-144.5 -56q-30 0 -45 5q-13 -16 -13 -35q0 -50 100 -53l53 -1q95 -3 136 -39q32 -29 32 -81q0 -66 -75 -129t-208 -63q-104 0 -158 44t-54 97q0 45 31 80t96 51q-34 25 -34 66q0 45 44 78q-99 48 -99 175
q0 84 54.5 140t140.5 56q66 0 115 -32h159zM356 318q0 66 -32 99.5t-77 33.5q-51 0 -80 -36t-29 -98q0 -66 31.5 -98.5t75.5 -32.5q52 0 81.5 36t29.5 96zM422 -97q0 21 -15 35q-22 20 -90 22l-50 1q-44 1 -76 11q-50 -13 -72.5 -37.5t-22.5 -53.5q0 -35 37 -62t108 -27
q81 0 131 35.5t50 75.5zM191 661q0 68 93 149l47 -29q-82 -84 -51 -135q4 -7 8.5 -13.5t7.5 -9.5t4 -3q-20 -33 -49 -33q-26 0 -42 19q-18 21 -18 55z" />
    <glyph glyph-name="uni0124" unicode="&#x124;" horiz-adv-x="772" 
d="M671 0h-97v315h-376v-315h-96v710h96v-311h376v311h97v-710zM571 822l-55 -54l-131 106l-135 -105l-47 49l187 145z" />
    <glyph glyph-name="uni0125" unicode="&#x125;" horiz-adv-x="568" 
d="M493 0h-91v262q0 27 -2 61q-8 111 -109 111q-69 0 -123 -57v-377h-91v765l91 9v-254q0 -50 -4 -74q61 66 153 66q117 0 157 -95q19 -44 19 -143v-274zM317 850l-47 -57l-145 91l-134 -91l-42 52l183 122z" />
    <glyph glyph-name="Hbar" unicode="&#x126;" horiz-adv-x="779" 
d="M757 504h-83v-504h-96v309h-376v-309h-97v504h-83v69h83v137h97v-137h376v137h96v-137h83v-69zM578 392v112h-376v-112h376z" />
    <glyph glyph-name="hbar" unicode="&#x127;" horiz-adv-x="568" 
d="M493 0h-91v262q0 27 -2 61q-8 111 -109 111q-69 0 -123 -57v-377h-91v610h-82v67h82v88l91 9v-97h155v-67h-155v-90q0 -50 -4 -74q61 66 153 66q117 0 157 -95q19 -44 19 -143v-274z" />
    <glyph glyph-name="uni0128" unicode="&#x128;" horiz-adv-x="300" 
d="M198 0h-96v710h96v-710zM333 932q-22 -71 -53 -96t-68 -25q-23 0 -69 17l-14 5q-26 10 -40 10q-40 0 -67 -66l-55 17q22 71 52.5 96t68.5 25q23 0 69 -17l13 -5q26 -10 41 -10q40 0 67 65z" />
    <glyph glyph-name="uni0129" unicode="&#x129;" horiz-adv-x="245" 
d="M301 744q-22 -71 -53 -96t-68 -25q-23 0 -69 17l-6 2q-26 10 -41 10q-39 0 -66 -65l-55 16q22 71 52.5 96t68.5 25q26 0 69 -16l5 -3q26 -10 41 -10q39 0 67 66zM168 0h-91v493l91 8v-501z" />
    <glyph glyph-name="uni012A" unicode="&#x12a;" horiz-adv-x="300" 
d="M198 0h-96v710h96v-710zM272 811h-244v71h244v-71z" />
    <glyph glyph-name="uni012B" unicode="&#x12b;" horiz-adv-x="245" 
d="M248 640h-251v68h251v-68zM168 0h-91v493l91 8v-501z" />
    <glyph glyph-name="uni012C" unicode="&#x12c;" horiz-adv-x="300" 
d="M198 0h-96v710h96v-710zM242 944l68 -7q-8 -75 -51.5 -121t-113.5 -46q-82 0 -125 58q-32 42 -35 106l76 10q0 -1 1 -4.5t2 -9.5t2 -11q20 -78 86 -78q36 0 59 27t31 76z" />
    <glyph glyph-name="uni012D" unicode="&#x12d;" horiz-adv-x="245" 
d="M219 766l65 -5q-6 -77 -49 -124.5t-115 -47.5q-80 0 -123 63q-29 43 -31 105l70 10q0 -5 4 -23q19 -87 88 -87q36 0 60 29t31 80zM168 0h-91v493l91 8v-501z" />
    <glyph glyph-name="uni012E" unicode="&#x12e;" horiz-adv-x="300" 
d="M205 710v-710q-87 -58 -87 -112q0 -20 12 -32.5t34 -12.5q28 0 65 17l3 -59q-43 -23 -87 -23q-47 0 -76.5 26t-29.5 68q0 73 85 128h-15v710h96z" />
    <glyph glyph-name="uni012F" unicode="&#x12f;" horiz-adv-x="245" 
d="M168 0q-98 -62 -98 -120q0 -43 49 -43q27 0 64 17v-60q-43 -23 -85 -23q-47 0 -76.5 26t-29.5 68q0 80 97 135h-12v493l91 8v-501zM184 671q0 -27 -17.5 -43.5t-44.5 -16.5q-28 0 -44.5 16.5t-16.5 44.5q0 27 17.5 43t44.5 16t44 -16.5t17 -43.5z" />
    <glyph glyph-name="uni0130" unicode="&#x130;" horiz-adv-x="300" 
d="M198 0h-96v710h96v-710zM211 853q0 -28 -17 -44t-45 -16t-44 17t-16 44q0 26 17 41.5t45 15.5q29 0 44.5 -16t15.5 -42z" />
    <glyph glyph-name="dotlessi" unicode="&#x131;" horiz-adv-x="252" 
d="M172 0h-91v493l91 8v-501z" />
    <glyph glyph-name="uni0134" unicode="&#x134;" horiz-adv-x="301" 
d="M200 710v-651q0 -126 -39 -196t-139 -125l-39 68q73 51 96.5 98t23.5 134v672h97zM334 822l-55 -54l-131 106l-135 -105l-47 49l187 145z" />
    <glyph glyph-name="uni0135" unicode="&#x135;" horiz-adv-x="245" 
d="M168 501v-430q0 -81 -15.5 -134.5t-45.5 -92t-91 -90.5l-52 55q73 74 93 122t20 150v412zM299 624l-56 -47l-122 117l-126 -116l-47 44l180 163z" />
    <glyph glyph-name="uni0136" unicode="&#x136;" horiz-adv-x="718" 
d="M198 0h-96v710h96v-710zM660 0h-131l-255 295q-48 53 -61 65l322 350h117l-321 -340zM412 -139q0 -69 -98 -154l-52 32q43 44 58 75.5t-1 58.5q-4 7 -10.5 14t-11.5 11l-5 4q18 36 55 36q23 0 39 -13q26 -21 26 -64z" />
    <glyph glyph-name="uni0137" unicode="&#x137;" horiz-adv-x="548" 
d="M168 0h-91v765l91 9v-774zM515 0h-115l-213 264l207 239h108l-209 -234zM320 -129q0 -68 -93 -149l-47 29q82 84 51 135q-4 7 -8.5 13.5t-7.5 9.5t-4 3q19 33 49 33q26 0 42 -19q18 -21 18 -55z" />
    <glyph glyph-name="uni0138" unicode="&#x138;" horiz-adv-x="566" 
d="M517 0h-115l-214 262q35 43 81 104q68 91 108.5 116.5t91.5 25.5q27 0 62 -7l-11 -79q-22 6 -40 6q-19 0 -32 -3.5t-40.5 -25.5t-63.5 -65l-52 -62zM168 0h-91v498l91 9v-507z" />
    <glyph glyph-name="uni0139" unicode="&#x139;" horiz-adv-x="568" 
d="M506 82l-7 -82h-397v710h96v-628h308zM399 875l-232 -101l-13 68l234 114z" />
    <glyph glyph-name="uni013A" unicode="&#x13a;" horiz-adv-x="245" 
d="M168 0h-91v765l91 9v-774zM288 884l-232 -101l-13 68l234 114z" />
    <glyph glyph-name="uni013B" unicode="&#x13b;" horiz-adv-x="568" 
d="M506 82l-7 -82h-397v710h96v-628h308zM366 -139q0 -69 -98 -154l-52 32q43 44 58 75.5t-1 58.5q-4 7 -10.5 14t-11.5 11l-5 4q18 36 55 36q23 0 39 -13q26 -21 26 -64z" />
    <glyph glyph-name="uni013C" unicode="&#x13c;" horiz-adv-x="245" 
d="M168 0h-91v765l91 9v-774zM177 -129q0 -68 -93 -149l-47 29q82 84 51 135q-4 7 -8.5 13.5t-7.5 9.5t-4 3q20 33 49 33q26 0 42 -19q18 -21 18 -55z" />
    <glyph glyph-name="uni013D" unicode="&#x13d;" horiz-adv-x="640" 
d="M516 82l-7 -82h-398v710h97v-628h308zM592 656q0 -100 -125 -203l-53 35q118 110 71 185q-10 14 -26 30q21 41 60 41q29 0 48 -22q25 -25 25 -66z" />
    <glyph glyph-name="uni013E" unicode="&#x13e;" horiz-adv-x="400" 
d="M168 0h-91v765l91 9v-774zM401 685q0 -98 -121 -197l-53 35q43 42 63.5 76.5t18.5 58t-14 45.5q-4 6 -26 28q17 43 57 43q27 0 47 -20q28 -26 28 -69z" />
    <glyph glyph-name="Ldot" unicode="&#x13f;" horiz-adv-x="606" 
d="M516 82l-7 -82h-397v710h96v-628h308zM539 379q0 -26 -17.5 -43.5t-44.5 -17.5q-26 0 -43 18t-17 46q0 26 17 43.5t45 17.5q27 0 43.5 -18.5t16.5 -45.5z" />
    <glyph glyph-name="ldot" unicode="&#x140;" horiz-adv-x="375" 
d="M168 0h-91v765l91 9v-774zM366 301q0 -26 -17.5 -43.5t-44.5 -17.5q-26 0 -43 18t-17 46q0 26 17 43.5t45 17.5q27 0 43.5 -18.5t16.5 -45.5z" />
    <glyph glyph-name="Lslash" unicode="&#x141;" horiz-adv-x="573" 
d="M512 82l-8 -82h-397v278l-72 -38l-32 64l104 56v350h97v-298l151 82l32 -65l-183 -99v-248h308z" />
    <glyph glyph-name="lslash" unicode="&#x142;" horiz-adv-x="284" 
d="M185 0h-91v257l-74 -54l-39 59l113 83v420l91 9v-363l88 65l39 -60l-127 -93v-323z" />
    <glyph glyph-name="uni0143" unicode="&#x143;" horiz-adv-x="812" 
d="M710 710v-710h-103l-417 571q3 -35 3 -114v-457h-91v710h104l415 -566q-2 23 -2 99v467h91zM539 875l-232 -101l-13 68l234 114z" />
    <glyph glyph-name="uni0144" unicode="&#x144;" horiz-adv-x="568" 
d="M493 0h-91v262q0 27 -2 61q-8 111 -109 111q-69 0 -123 -57v-377h-91v499l83 8l2 -64q61 69 155 69q117 0 157 -95q19 -44 19 -143v-274zM433 714l-221 -137l-22 63l221 151z" />
    <glyph glyph-name="uni0145" unicode="&#x145;" horiz-adv-x="812" 
d="M710 710v-710h-103l-417 571q3 -35 3 -114v-457h-91v710h104l415 -566q-2 23 -2 99v467h91zM483 -139q0 -69 -98 -154l-52 32q43 44 58 75.5t-1 58.5q-4 7 -11 14l-11 11l-5 4q18 36 55 36q23 0 39 -13q26 -21 26 -64z" />
    <glyph glyph-name="uni0146" unicode="&#x146;" horiz-adv-x="568" 
d="M493 0h-91v262q0 27 -2 61q-8 111 -109 111q-69 0 -123 -57v-377h-91v499l83 8l2 -64q61 69 155 69q117 0 157 -95q19 -44 19 -143v-274zM340 -129q0 -68 -93 -149l-47 29q82 84 51 135q-4 7 -8.5 13.5t-7.5 9.5t-4 3q20 33 49 33q26 0 42 -19q18 -21 18 -55z" />
    <glyph glyph-name="uni0147" unicode="&#x147;" horiz-adv-x="812" 
d="M710 710v-710h-103l-417 571q3 -35 3 -114v-457h-91v710h104l415 -566q-2 23 -2 99v467h91zM596 903l-188 -144l-180 141l54 53l132 -106l135 106z" />
    <glyph glyph-name="uni0148" unicode="&#x148;" horiz-adv-x="568" 
d="M493 0h-91v262q0 27 -2 61q-8 111 -109 111q-69 0 -123 -57v-377h-91v499l83 8l2 -64q61 69 155 69q117 0 157 -95q19 -44 19 -143v-274zM110 735l57 47l121 -118l126 117l47 -45l-180 -162z" />
    <glyph glyph-name="Eng" unicode="&#x14a;" horiz-adv-x="812" 
d="M710 710v-692q0 -76 -12.5 -121.5t-43.5 -74.5q-47 -45 -132 -45q-49 0 -108 22l-2 86q62 -25 108 -25q48 0 70 22q25 25 25 65q0 11 -1.5 20.5t-7 22t-10 20.5t-16.5 26t-20 29t-28 38t-33 45l-308 422q2 -48 2 -113v-457h-91v710h104l414 -566q-1 22 -1 99v467h91z" />
    <glyph glyph-name="eng" unicode="&#x14b;" horiz-adv-x="568" 
d="M230 -194l-1 73q52 -18 95 -18q35 0 54 19q24 24 24 98v284q0 27 -2 61q-8 111 -109 111q-69 0 -123 -57v-377h-91v499l83 8l2 -64q61 69 155 69q117 0 157 -95q19 -44 19 -143v-218v-28.5v-28.5t-0.5 -25.5t-1 -26t-2 -22.5t-4 -23t-6 -20t-8 -20t-10.5 -16.5t-14 -16.5
q-41 -42 -118 -42q-55 0 -99 19z" />
    <glyph glyph-name="uni014C" unicode="&#x14c;" horiz-adv-x="875" 
d="M810 365q0 -99 -40 -179.5t-111 -130.5q-91 -66 -231 -66q-134 0 -234 81q-62 51 -95.5 127t-33.5 166q0 184 140 284q98 74 236 74q171 0 271 -102q98 -100 98 -254zM709 356q0 125 -77 204q-74 77 -201 77q-99 0 -170 -57q-44 -33 -69.5 -87.5t-25.5 -119.5
q0 -149 92 -233q32 -30 77 -48.5t93 -18.5h8q101 0 166 48q107 79 107 235zM560 811h-244v71h244v-71z" />
    <glyph glyph-name="uni014D" unicode="&#x14d;" horiz-adv-x="595" 
d="M541 263q0 -128 -70.5 -200.5t-175.5 -72.5q-104 0 -172.5 71.5t-68.5 192.5q0 120 70 189.5t181 69.5q106 0 171 -67.5t65 -182.5zM448 255q0 82 -40 133t-111 51q-68 0 -109.5 -47t-41.5 -133q0 -83 41.5 -139t107.5 -56h8q64 0 104.5 52.5t40.5 138.5zM423 640h-251
v68h251v-68z" />
    <glyph glyph-name="uni014E" unicode="&#x14e;" horiz-adv-x="875" 
d="M810 365q0 -99 -40 -179.5t-111 -130.5q-91 -66 -231 -66q-134 0 -234 81q-62 51 -95.5 127t-33.5 166q0 184 140 284q98 74 236 74q171 0 271 -102q98 -100 98 -254zM709 356q0 125 -77 204q-74 77 -201 77q-99 0 -170 -57q-44 -33 -69.5 -87.5t-25.5 -119.5
q0 -149 92 -233q32 -30 77 -48.5t93 -18.5h8q101 0 166 48q107 79 107 235zM531 944l68 -7q-8 -75 -51.5 -121t-113.5 -46q-82 0 -125 58q-32 42 -35 106l76 10q0 -1 1 -4.5t2 -9.5t2 -11q19 -78 86 -78q36 0 59 27t31 76z" />
    <glyph glyph-name="uni014F" unicode="&#x14f;" horiz-adv-x="595" 
d="M541 263q0 -128 -70.5 -200.5t-175.5 -72.5q-104 0 -172.5 71.5t-68.5 192.5q0 120 70 189.5t181 69.5q106 0 171 -67.5t65 -182.5zM448 255q0 82 -40 133t-111 51q-68 0 -109.5 -47t-41.5 -133q0 -83 41.5 -139t107.5 -56h8q64 0 104.5 52.5t40.5 138.5zM393 766l65 -5
q-6 -77 -49 -124.5t-115 -47.5q-80 0 -123 63q-29 43 -31 105l70 10q0 -5 4 -23q19 -87 88 -87q36 0 60 29t31 80z" />
    <glyph glyph-name="uni0150" unicode="&#x150;" horiz-adv-x="875" 
d="M810 365q0 -99 -40 -179.5t-111 -130.5q-91 -66 -231 -66q-134 0 -234 81q-62 51 -95.5 127t-33.5 166q0 184 140 284q98 74 236 74q171 0 271 -102q98 -100 98 -254zM709 356q0 125 -77 204q-74 77 -201 77q-99 0 -170 -57q-44 -33 -69.5 -87.5t-25.5 -119.5
q0 -149 92 -233q32 -30 77 -48.5t93 -18.5h8q101 0 166 48q107 79 107 235zM738 899l-203 -136l-27 62l204 148zM512 910l-185 -151l-31 58l185 162z" />
    <glyph glyph-name="uni0151" unicode="&#x151;" horiz-adv-x="595" 
d="M541 263q0 -128 -70.5 -200.5t-175.5 -72.5q-104 0 -172.5 71.5t-68.5 192.5q0 120 70 189.5t181 69.5q106 0 171 -67.5t65 -182.5zM448 255q0 82 -40 133t-111 51q-68 0 -109.5 -47t-41.5 -133q0 -83 41.5 -139t107.5 -56h8q64 0 104.5 52.5t40.5 138.5zM577 730
l-191 -169l-33 58l188 181zM376 736l-167 -176l-35 54l162 186z" />
    <glyph glyph-name="OE" unicode="&#x152;" horiz-adv-x="1063" 
d="M973 82l-7 -82h-398q-86 -11 -137 -11q-147 0 -241 78q-125 104 -125 296q0 94 35 168t98 119q95 71 239 71q57 0 131 -11h381v-82h-284v-228h263v-79h-263v-239h308zM568 88v534q-63 15 -134 15q-110 0 -179 -54q-42 -32 -65.5 -88t-23.5 -122q0 -154 88 -236
q69 -64 178 -64h7q63 0 129 15z" />
    <glyph glyph-name="oe" unicode="&#x153;" horiz-adv-x="939" 
d="M879 99l-3 -70q-72 -37 -163 -39q-76 -1 -133 27t-89 80q-32 -52 -84 -79.5t-114 -27.5q-104 0 -172.5 71.5t-68.5 192.5q0 120 70 189.5t181 69.5q128 0 190 -98q62 98 187 98q97 0 151 -69t42 -193h-337q-1 -89 49.5 -137.5t138.5 -48.5q77 0 155 34zM446 255
q0 82 -40.5 133t-111.5 51q-67 0 -108.5 -47t-41.5 -133q0 -84 41 -139.5t108 -55.5h7q64 0 105 52.5t41 138.5zM786 315q1 61 -32 96.5t-87 35.5q-51 0 -88 -35t-41 -98z" />
    <glyph glyph-name="uni0154" unicode="&#x154;" horiz-adv-x="725" 
d="M696 66l-12 -70q-86 0 -137.5 29.5t-126.5 129.5l-89 118h-133v-273h-96v710h146q157 0 232 -66q67 -57 67 -150q0 -133 -119 -189l84 -108q54 -70 94 -96.5t90 -34.5zM446 486q0 63 -45 102q-49 41 -153 41h-50v-280q57 -2 108 -2q61 0 100 39q40 37 40 100zM422 875
l-232 -101l-13 68l234 114z" />
    <glyph glyph-name="uni0155" unicode="&#x155;" horiz-adv-x="380" 
d="M348 503l-7 -81q-29 8 -60 8q-72 0 -113 -66v-364h-91v499l84 8l1 -73q41 78 127 78q35 0 59 -9zM350 714l-221 -137l-22 63l221 151z" />
    <glyph glyph-name="uni0156" unicode="&#x156;" horiz-adv-x="725" 
d="M696 66l-12 -70q-86 0 -137.5 29.5t-126.5 129.5l-89 118h-133v-273h-96v710h146q157 0 232 -66q67 -57 67 -150q0 -133 -119 -189l84 -108q54 -70 94 -96.5t90 -34.5zM446 486q0 63 -45 102q-49 41 -153 41h-50v-280q57 -2 108 -2q61 0 100 39q40 37 40 100zM407 -139
q0 -69 -98 -154l-52 32q43 44 58 75.5t-1 58.5q-4 7 -11 14l-11 11l-5 4q18 36 55 36q23 0 39 -13q26 -21 26 -64z" />
    <glyph glyph-name="uni0157" unicode="&#x157;" horiz-adv-x="380" 
d="M348 503l-7 -81q-29 8 -60 8q-72 0 -113 -66v-364h-91v499l84 8l1 -73q41 78 127 78q35 0 59 -9zM194 -129q0 -68 -93 -149l-47 29q82 84 51 135q-4 7 -8.5 13.5t-7.5 9.5t-4 3q19 33 49 33q26 0 42 -19q18 -21 18 -55z" />
    <glyph glyph-name="uni0158" unicode="&#x158;" horiz-adv-x="725" 
d="M696 66l-12 -70q-86 0 -137.5 29.5t-126.5 129.5l-89 118h-133v-273h-96v710h146q157 0 232 -66q67 -57 67 -150q0 -133 -119 -189l84 -108q54 -70 94 -96.5t90 -34.5zM446 486q0 63 -45 102q-49 41 -153 41h-50v-280q57 -2 108 -2q61 0 100 39q40 37 40 100zM479 903
l-188 -144l-180 141l54 53l132 -106l135 106z" />
    <glyph glyph-name="uni0159" unicode="&#x159;" horiz-adv-x="380" 
d="M348 503l-7 -81q-29 8 -60 8q-72 0 -113 -66v-364h-91v499l84 8l1 -73q41 78 127 78q35 0 59 -9zM26 735l57 47l121 -118l126 117l47 -45l-180 -162z" />
    <glyph glyph-name="uni015A" unicode="&#x15a;" horiz-adv-x="579" 
d="M506 195q0 -37 -14.5 -72t-44 -65.5t-80 -49t-116.5 -18.5q-99 0 -187 35l-3 87q107 -37 190 -37q77 0 112 33t35 78q0 36 -22 65.5t-86 58.5l-56 26q-86 39 -121.5 85.5t-35.5 108.5q1 79 64.5 134.5t178.5 55.5q87 0 159 -26l-7 -82q-82 26 -149 26q-72 0 -107.5 -28.5
t-35.5 -72.5q0 -35 23.5 -63t90.5 -58l56 -24q86 -38 121 -86.5t35 -110.5zM443 875l-232 -101l-13 68l234 114z" />
    <glyph glyph-name="uni015B" unicode="&#x15b;" horiz-adv-x="456" 
d="M394 145q0 -59 -47.5 -106.5t-143.5 -47.5q-77 0 -144 32l-2 75q76 -34 143 -34q49 0 74.5 23t25.5 52q0 23 -16.5 42.5t-64.5 35.5l-47 16q-113 39 -113 136q0 53 46 98t137 45q79 0 132 -26l-6 -70q-63 24 -123 24q-47 0 -71.5 -20.5t-24.5 -45.5q0 -46 80 -72l47 -16
q118 -41 118 -141zM382 714l-221 -137l-22 63l221 151z" />
    <glyph glyph-name="uni015C" unicode="&#x15c;" horiz-adv-x="579" 
d="M506 195q0 -37 -14.5 -72t-44 -65.5t-80 -49t-116.5 -18.5q-99 0 -187 35l-3 87q107 -37 190 -37q77 0 112 33t35 78q0 36 -22 65.5t-86 58.5l-56 26q-86 39 -121.5 85.5t-35.5 108.5q1 79 64.5 134.5t178.5 55.5q87 0 159 -26l-7 -82q-82 26 -149 26q-72 0 -107.5 -28.5
t-35.5 -72.5q0 -35 23.5 -63t90.5 -58l56 -24q86 -38 121 -86.5t35 -110.5zM490 822l-55 -54l-131 106l-135 -105l-47 49l187 145z" />
    <glyph glyph-name="uni015D" unicode="&#x15d;" horiz-adv-x="456" 
d="M394 145q0 -59 -47.5 -106.5t-143.5 -47.5q-77 0 -144 32l-2 75q76 -34 143 -34q49 0 74.5 23t25.5 52q0 23 -16.5 42.5t-64.5 35.5l-47 16q-113 39 -113 136q0 53 46 98t137 45q79 0 132 -26l-6 -70q-63 24 -123 24q-47 0 -71.5 -20.5t-24.5 -45.5q0 -46 80 -72l47 -16
q118 -41 118 -141zM410 624l-56 -47l-122 117l-126 -116l-47 44l180 163z" />
    <glyph glyph-name="uni015E" unicode="&#x15e;" horiz-adv-x="579" 
d="M506 195q0 -37 -14.5 -72t-44 -65.5t-80 -49t-116.5 -18.5q-99 0 -187 35l-3 87q107 -37 190 -37q77 0 112 33t35 78q0 36 -22 65.5t-86 58.5l-56 26q-86 39 -121.5 85.5t-35.5 108.5q1 79 64.5 134.5t178.5 55.5q87 0 159 -26l-7 -82q-82 26 -149 26q-72 0 -107.5 -28.5
t-35.5 -72.5q0 -35 23.5 -63t90.5 -58l56 -24q86 -38 121 -86.5t35 -110.5zM376 -155q0 -42 -31 -72.5t-82 -30.5q-38 0 -64 15l-2 64q37 -15 62 -15q19 0 31 10t12 25q0 49 -106 61l18 55q86 -4 124 -38t38 -74z" />
    <glyph glyph-name="uni015F" unicode="&#x15f;" horiz-adv-x="456" 
d="M394 145q0 -59 -47.5 -106.5t-143.5 -47.5q-77 0 -144 32l-2 75q76 -34 143 -34q49 0 74.5 23t25.5 52q0 23 -16.5 42.5t-64.5 35.5l-47 16q-113 39 -113 136q0 53 46 98t137 45q79 0 132 -26l-6 -70q-63 24 -123 24q-47 0 -71.5 -20.5t-24.5 -45.5q0 -46 80 -72l47 -16
q118 -41 118 -141zM323 -157q0 -40 -31 -69t-83 -29q-39 0 -71 15v55q32 -13 63 -13q25 0 38 11.5t13 28.5q0 54 -108 66l13 48q87 -5 126.5 -38.5t39.5 -74.5z" />
    <glyph glyph-name="Scaron" unicode="&#x160;" horiz-adv-x="579" 
d="M506 195q0 -37 -14.5 -72t-44 -65.5t-80 -49t-116.5 -18.5q-99 0 -187 35l-3 87q107 -37 190 -37q77 0 112 33t35 78q0 36 -22 65.5t-86 58.5l-56 26q-86 39 -121.5 85.5t-35.5 108.5q1 79 64.5 134.5t178.5 55.5q87 0 159 -26l-7 -82q-82 26 -149 26q-72 0 -107.5 -28.5
t-35.5 -72.5q0 -35 23.5 -63t90.5 -58l56 -24q86 -38 121 -86.5t35 -110.5zM492 903l-188 -144l-180 141l54 53l132 -106l135 106z" />
    <glyph glyph-name="scaron" unicode="&#x161;" horiz-adv-x="456" 
d="M394 145q0 -59 -47.5 -106.5t-143.5 -47.5q-77 0 -144 32l-2 75q76 -34 143 -34q49 0 74.5 23t25.5 52q0 23 -16.5 42.5t-64.5 35.5l-47 16q-113 39 -113 136q0 53 46 98t137 45q79 0 132 -26l-6 -70q-63 24 -123 24q-47 0 -71.5 -20.5t-24.5 -45.5q0 -46 80 -72l47 -16
q118 -41 118 -141zM58 735l57 47l121 -118l126 117l47 -45l-180 -162z" />
    <glyph glyph-name="uni0162" unicode="&#x162;" horiz-adv-x="629" 
d="M593 710l-6 -82h-225v-628h-97v628h-224v82h552zM375 -139q0 -69 -98 -154l-52 32q43 44 58 75.5t-1 58.5q-4 7 -11 14l-11 11l-5 4q18 36 55 36q23 0 39 -13q26 -21 26 -64z" />
    <glyph glyph-name="uni0163" unicode="&#x163;" horiz-adv-x="378" 
d="M348 84l-1 -71q-48 -22 -100 -22q-160 0 -160 163v265h-77v63l81 9l14 102l73 1v-103h153l-4 -72h-149v-256q0 -96 87 -96q39 0 83 17zM249 -129q0 -68 -93 -149l-47 29q82 84 51 135q-4 7 -8.5 13.5t-7.5 9.5t-4 3q20 33 49 33q26 0 42 -19q18 -21 18 -55z" />
    <glyph glyph-name="uni0164" unicode="&#x164;" horiz-adv-x="629" 
d="M593 710l-6 -82h-225v-628h-97v628h-224v82h552zM504 903l-188 -144l-180 141l54 53l132 -106l135 106z" />
    <glyph glyph-name="uni0165" unicode="&#x165;" horiz-adv-x="529" 
d="M348 84l-1 -71q-48 -22 -100 -22q-160 0 -160 163v265h-77v63l81 9l14 102l73 1v-103h153l-4 -72h-149v-256q0 -96 87 -96q39 0 83 17zM515 685q0 -98 -121 -197l-53 35q43 42 63.5 76.5t18.5 58t-14 45.5q-4 6 -26 28q17 43 57 43q27 0 47 -20q28 -26 28 -69z" />
    <glyph glyph-name="Tbar" unicode="&#x166;" horiz-adv-x="629" 
d="M592 710l-6 -82h-226v-278h155v-72h-155v-278h-96v278h-154v72h154v278h-225v82h553z" />
    <glyph glyph-name="tbar" unicode="&#x167;" horiz-adv-x="378" 
d="M348 84l-1 -71q-48 -22 -100 -22q-160 0 -160 163v79h-77v62h77v124h-77v63l81 9l14 102l73 1v-103h153l-4 -72h-149v-124h129v-62h-129v-70q0 -96 87 -96q39 0 83 17z" />
    <glyph glyph-name="uni0168" unicode="&#x168;" horiz-adv-x="773" 
d="M676 710v-368q0 -99 -14 -158.5t-53 -103.5q-77 -91 -224 -91q-161 0 -233 98q-31 42 -43 101t-12 156v366h97v-367q0 -76 9 -123t34 -81q50 -65 156 -65q96 0 144 59q27 32 37.5 77t10.5 118v382h91zM572 932q-22 -71 -53 -96t-68 -25q-23 0 -69 17l-14 5q-26 10 -40 10
q-40 0 -67 -66l-55 17q22 71 52.5 96t68.5 25q23 0 69 -17l13 -5q26 -10 41 -10q40 0 67 65z" />
    <glyph glyph-name="uni0169" unicode="&#x169;" horiz-adv-x="568" 
d="M491 4l-83 -8l-2 63q-61 -69 -155 -69q-115 0 -157 95q-19 45 -19 144v269l91 9v-267q0 -34 3 -61q7 -111 108 -111q69 0 123 58v372l91 9v-503zM466 743q-22 -71 -53 -96.5t-68 -25.5q-23 0 -69 17l-14 5q-26 10 -40 10q-40 0 -67 -65l-55 17q22 71 53 96t68 25
q23 0 69 -17l13 -5q26 -10 41 -10q40 0 67 65z" />
    <glyph glyph-name="uni016A" unicode="&#x16a;" horiz-adv-x="773" 
d="M676 710v-368q0 -99 -14 -158.5t-53 -103.5q-77 -91 -224 -91q-161 0 -233 98q-31 42 -43 101t-12 156v366h97v-367q0 -76 9 -123t34 -81q50 -65 156 -65q96 0 144 59q27 32 37.5 77t10.5 118v382h91zM511 811h-244v71h244v-71z" />
    <glyph glyph-name="uni016B" unicode="&#x16b;" horiz-adv-x="568" 
d="M491 4l-83 -8l-2 63q-61 -69 -155 -69q-115 0 -157 95q-19 45 -19 144v269l91 9v-267q0 -34 3 -61q7 -111 108 -111q69 0 123 58v372l91 9v-503zM409 640h-251v68h251v-68z" />
    <glyph glyph-name="uni016C" unicode="&#x16c;" horiz-adv-x="773" 
d="M676 710v-368q0 -99 -14 -158.5t-53 -103.5q-77 -91 -224 -91q-161 0 -233 98q-31 42 -43 101t-12 156v366h97v-367q0 -76 9 -123t34 -81q50 -65 156 -65q96 0 144 59q27 32 37.5 77t10.5 118v382h91zM481 944l68 -7q-8 -75 -51.5 -121t-113.5 -46q-82 0 -125 58
q-32 42 -35 106l76 10q0 -1 1 -4.5t2 -9.5t2 -11q19 -78 86 -78q36 0 59 27t31 76z" />
    <glyph glyph-name="uni016D" unicode="&#x16d;" horiz-adv-x="568" 
d="M491 4l-83 -8l-2 63q-61 -69 -155 -69q-115 0 -157 95q-19 45 -19 144v269l91 9v-267q0 -34 3 -61q7 -111 108 -111q69 0 123 58v372l91 9v-503zM379 766l65 -5q-6 -77 -49 -124.5t-115 -47.5q-80 0 -123 63q-29 43 -31 105l70 10q0 -5 4 -23q19 -87 88 -87q36 0 60 29
t31 80z" />
    <glyph glyph-name="Uring" unicode="&#x16e;" horiz-adv-x="773" 
d="M676 710v-368q0 -99 -14 -158.5t-53 -103.5q-77 -91 -224 -91q-161 0 -233 98q-31 42 -43 101t-12 156v366h97v-367q0 -76 9 -123t34 -81q50 -65 156 -65q96 0 144 59q27 32 37.5 77t10.5 118v382h91zM515 853q0 -53 -37 -86t-93 -33q-55 0 -89 31.5t-34 84.5
q0 54 36.5 87t93.5 33q55 0 89 -31.5t34 -85.5zM445 849q0 29 -15.5 48.5t-41.5 19.5q-25 0 -41 -16.5t-16 -46.5q0 -29 15.5 -48.5t40.5 -19.5q26 0 42 16.5t16 46.5z" />
    <glyph glyph-name="uring" unicode="&#x16f;" horiz-adv-x="568" 
d="M491 4l-83 -8l-2 63q-61 -69 -155 -69q-115 0 -157 95q-19 45 -19 144v269l91 9v-267q0 -34 3 -61q7 -111 108 -111q69 0 123 58v372l91 9v-503zM410 687q0 -54 -36.5 -88.5t-92.5 -34.5q-55 0 -89 32t-34 85q0 55 36 89.5t92 34.5t90 -32t34 -86zM343 681q0 35 -16 54.5
t-43 19.5q-26 0 -42.5 -17.5t-16.5 -50.5q0 -35 16 -54t43 -19q26 0 42.5 17.5t16.5 49.5z" />
    <glyph glyph-name="uni0170" unicode="&#x170;" horiz-adv-x="773" 
d="M676 710v-368q0 -99 -14 -158.5t-53 -103.5q-77 -91 -224 -91q-161 0 -233 98q-31 42 -43 101t-12 156v366h97v-367q0 -76 9 -123t34 -81q50 -65 156 -65q96 0 144 59q27 32 37.5 77t10.5 118v382h91zM688 899l-203 -136l-27 62l204 148zM462 910l-185 -151l-31 58
l185 162z" />
    <glyph glyph-name="uni0171" unicode="&#x171;" horiz-adv-x="568" 
d="M491 4l-83 -8l-2 63q-61 -69 -155 -69q-115 0 -157 95q-19 45 -19 144v269l91 9v-267q0 -34 3 -61q7 -111 108 -111q69 0 123 58v372l91 9v-503zM558 730l-191 -169l-33 58l188 181zM357 736l-167 -176l-35 54l162 186z" />
    <glyph glyph-name="uni0172" unicode="&#x172;" horiz-adv-x="773" 
d="M676 710v-370q0 -100 -14 -159t-53 -104q-23 -27 -45.5 -43t-49 -30t-44.5 -27q-67 -48 -67 -97q0 -20 12.5 -31.5t34.5 -11.5q30 0 64 17l3 -60q-43 -23 -87 -23q-47 0 -76.5 26t-29.5 68q0 68 75 124q-167 -10 -247 95q-31 42 -43 101t-12 156v369h97v-370
q0 -145 43 -202q49 -67 157 -67q95 0 144 59q47 59 47 194v386h91z" />
    <glyph glyph-name="uni0173" unicode="&#x173;" horiz-adv-x="568" 
d="M491 3q-102 -64 -102 -123q0 -43 49 -43q27 0 65 17v-60q-43 -23 -85 -23q-48 0 -77.5 26t-29.5 68q0 79 97 135l-2 59q-61 -69 -155 -69q-115 0 -157 95q-19 45 -19 144v269l91 9v-267q0 -34 3 -61q7 -111 108 -111q69 0 123 58v372l91 9v-504z" />
    <glyph glyph-name="uni0174" unicode="&#x174;" horiz-adv-x="1057" 
d="M1025 710l-240 -708l-113 -4l-146 409l-138 -405l-112 -4l-247 712h103l209 -612l142 430l-65 182h101l212 -609l198 609h96zM708 822l-55 -54l-131 106l-135 -105l-47 49l187 145z" />
    <glyph glyph-name="uni0175" unicode="&#x175;" horiz-adv-x="848" 
d="M822 503l-169 -501l-102 -4l-129 393l-130 -389l-104 -4l-164 505h97l103 -340l19 -71q0 7 23 71l113 340h94l109 -336q16 -51 22 -75q0 7 22 73l105 338h91zM603 624l-56 -47l-122 117l-126 -116l-47 44l180 163z" />
    <glyph glyph-name="uni0176" unicode="&#x176;" horiz-adv-x="665" 
d="M382 0h-96v307l-269 403h115l208 -316l204 316h104l-266 -402v-308zM515 822l-55 -54l-131 106l-135 -105l-47 49l187 145z" />
    <glyph glyph-name="uni0177" unicode="&#x177;" horiz-adv-x="540" 
d="M504 503q-18 -141 -63 -285q-62 -201 -149 -310q-88 -111 -241 -171l-33 76q142 58 202 139q-47 109 -99 246.5t-81 221.5l-29 83h103q87 -277 165 -470q42 75 82 211q36 121 52 259h91zM382 640h-251v68h251v-68z" />
    <glyph glyph-name="Ydieresis" unicode="&#x178;" horiz-adv-x="665" 
d="M382 0h-96v307l-269 403h115l208 -316l204 316h104l-266 -402v-308zM282 858q0 -27 -15.5 -42.5t-39.5 -15.5q-23 0 -38 17t-15 42q0 24 14.5 39t40.5 15q25 0 39 -15.5t14 -39.5zM486 858q0 -27 -15.5 -42.5t-39.5 -15.5q-23 0 -38 17t-15 42q0 24 14.5 39t40.5 15
q25 0 39 -15.5t14 -39.5z" />
    <glyph glyph-name="uni0179" unicode="&#x179;" horiz-adv-x="649" 
d="M589 83l-7 -83h-525v72l372 555h-366v83h491v-66l-378 -561h413zM463 875l-232 -101l-13 68l234 114z" />
    <glyph glyph-name="uni017A" unicode="&#x17a;" horiz-adv-x="506" 
d="M448 73l-10 -73h-378v63l261 368h-250v72h361v-65l-259 -365h275zM413 714l-221 -137l-22 63l221 151z" />
    <glyph glyph-name="uni017B" unicode="&#x17b;" horiz-adv-x="649" 
d="M589 83l-7 -83h-525v72l372 555h-366v83h491v-66l-378 -561h413zM380 853q0 -28 -17 -44t-45 -16t-44 17t-16 44q0 26 17 41.5t45 15.5q29 0 44.5 -16t15.5 -42z" />
    <glyph glyph-name="uni017C" unicode="&#x17c;" horiz-adv-x="506" 
d="M448 73l-10 -73h-378v63l261 368h-250v72h361v-65l-259 -365h275zM320 675q0 -27 -17.5 -44t-44.5 -17q-28 0 -44 17.5t-16 44.5q0 26 16.5 42t45.5 16q28 0 44 -16.5t16 -42.5z" />
    <glyph glyph-name="Zcaron" unicode="&#x17d;" horiz-adv-x="649" 
d="M589 83l-7 -83h-525v72l372 555h-366v83h491v-66l-378 -561h413zM505 903l-188 -144l-180 141l54 53l132 -106l135 106z" />
    <glyph glyph-name="zcaron" unicode="&#x17e;" horiz-adv-x="506" 
d="M448 73l-10 -73h-378v63l261 368h-250v72h361v-65l-259 -365h275zM84 735l57 47l121 -118l126 117l47 -45l-180 -162z" />
    <glyph glyph-name="longs" unicode="&#x17f;" horiz-adv-x="298" 
d="M394 764l-7 -71q-42 10 -81 10q-51 0 -80 -23.5t-35 -78.5q-3 -23 -3 -62v-539h-91v419h-80v63l80 9v32q0 74 11 118q17 68 68.5 102t125.5 34q54 0 92 -13z" />
    <glyph glyph-name="uni018F" unicode="&#x18f;" horiz-adv-x="746" 
d="M680 347q0 -165 -88.5 -261t-233.5 -96q-129 0 -205 80t-76 227q0 6 3 54h498q1 139 -72.5 212t-202.5 73q-103 0 -226 -54l4 82q114 55 232 56q175 1 271 -100t96 -273zM574 270l-392 -1v-7q0 -89 53 -140t136 -51q76 0 135.5 52.5t67.5 146.5z" />
    <glyph glyph-name="florin" unicode="&#x192;" horiz-adv-x="587" 
d="M524 708l-8 -74q-43 11 -77 11q-53 0 -82.5 -32.5t-33.5 -114.5l-3 -68h161v-64h-163l-8 -236q-11 -310 -217 -310q-50 0 -84 14l-1 76q42 -13 80 -13q117 0 125 210l9 259h-136v64h138l3 54q6 127 64.5 182t147.5 55q40 0 85 -13z" />
    <glyph glyph-name="uni019F" unicode="&#x19f;" horiz-adv-x="875" 
d="M810 365q0 -99 -40 -180t-111 -131q-92 -65 -231 -65q-136 0 -234 80q-62 52 -95.5 128.5t-33.5 165.5q0 93 37.5 166t102.5 119q97 73 236 73q172 0 271 -101q98 -100 98 -255zM707 394q-9 99 -74 167q-75 77 -202 77q-99 0 -171 -57q-40 -30 -65 -80t-28 -107h540z
M708 326h-540q14 -118 89 -187q32 -30 77.5 -48.5t93.5 -18.5h8q103 0 166 48q95 70 106 206z" />
    <glyph glyph-name="uni01CF" unicode="&#x1cf;" horiz-adv-x="300" 
d="M198 0h-96v710h96v-710zM337 903l-188 -144l-180 141l54 53l132 -106l135 106z" />
    <glyph glyph-name="uni01D0" unicode="&#x1d0;" horiz-adv-x="245" 
d="M-53 735l57 47l121 -118l126 117l47 -45l-180 -162zM168 0h-91v493l91 8v-501z" />
    <glyph glyph-name="uni01E6" unicode="&#x1e6;" horiz-adv-x="800" 
d="M700 31q-129 -41 -244 -41q-152 0 -244 65q-69 46 -108 125.5t-39 176.5q0 192 134 289q102 74 260 74q123 0 222 -38l-8 -85q-109 39 -216 39q-132 0 -202 -60q-90 -74 -90 -212q0 -127 77 -208.5t221 -81.5q63 0 140 19v234h96v-212zM618 903l-188 -144l-180 141l54 53
l132 -106l135 106z" />
    <glyph glyph-name="uni01E7" unicode="&#x1e7;" horiz-adv-x="537" 
d="M520 482l-4 -64h-99q26 -43 26 -100q0 -83 -53.5 -139t-144.5 -56q-30 0 -45 5q-13 -16 -13 -35q0 -50 100 -53l53 -1q95 -3 136 -39q32 -29 32 -81q0 -66 -75 -129t-208 -63q-104 0 -158 44t-54 97q0 45 31 80t96 51q-34 25 -34 66q0 45 44 78q-99 48 -99 175
q0 84 54.5 140t140.5 56q66 0 115 -32h159zM356 318q0 66 -32 99.5t-77 33.5q-51 0 -80 -36t-29 -98q0 -66 31.5 -98.5t75.5 -32.5q52 0 81.5 36t29.5 96zM422 -97q0 21 -15 35q-22 20 -90 22l-50 1q-44 1 -76 11q-50 -13 -72.5 -37.5t-22.5 -53.5q0 -35 37 -62t108 -27
q81 0 131 35.5t50 75.5zM73 735l57 47l121 -118l126 117l47 -45l-180 -162z" />
    <glyph glyph-name="uni01FA" unicode="&#x1fa;" horiz-adv-x="733" 
d="M683 0h-106l-74 199h-289l-68 -199h-97l243 675q-64 28 -64 98q0 52 37 84.5t94 32.5q55 0 89.5 -30.5t34.5 -82.5q0 -66 -60 -96zM475 276l-92 246l-30 85l-3 -9q-3 -10 -10 -32t-15 -45l-85 -245h235zM484 997l-233 -79l-10 67l236 90zM413 773q0 27 -16 45.5t-41 18.5
q-26 0 -42.5 -15.5t-16.5 -43.5q0 -27 16.5 -45t41.5 -18q26 0 42 15t16 43z" />
    <glyph glyph-name="uni01FB" unicode="&#x1fb;" horiz-adv-x="527" 
d="M505 54l-4 -57q-31 -6 -59 -6q-72 0 -91 59q-64 -61 -154 -61q-67 0 -110 36.5t-43 96.5q0 25 7.5 46.5t27.5 44t51.5 39t85 27t122.5 11.5v17q0 58 -10 80q-23 50 -97 50q-75 0 -153 -41l-6 69q36 24 81 35q-41 32 -41 88q0 51 36.5 84.5t91.5 33.5q53 0 86.5 -31
t33.5 -81q0 -57 -44 -91q59 -17 87 -64q24 -40 24 -133v-164q0 -30 1 -40.5t7.5 -25.5t23 -19t46.5 -3zM338 105v120q-111 2 -159 -25.5t-48 -68.5q0 -31 23.5 -51.5t65.5 -20.5q65 0 118 46zM373 817l-244 -94l-11 64l246 108zM293 588q0 31 -16 50t-41 19t-41 -17t-16 -47
t16 -49t41 -19t41 16.5t16 46.5z" />
    <glyph glyph-name="uni01FC" unicode="&#x1fc;" horiz-adv-x="962" 
d="M872 82l-7 -82h-397v199h-243l-116 -199h-106l420 710h425v-82h-284v-228h264v-79h-264v-239h308zM468 276v353q-17 -37 -49 -93l-151 -260h200zM690 875l-232 -101l-13 68l234 114z" />
    <glyph glyph-name="uni01FD" unicode="&#x1fd;" horiz-adv-x="831" 
d="M770 99l-3 -70q-72 -37 -163 -39q-142 -1 -210 87q-76 -88 -194 -88q-70 0 -113 36.5t-43 96.5q0 25 7.5 46.5t27.5 44t51.5 39t85 27t122.5 11.5v17q0 58 -10 80q-23 50 -97 50q-75 0 -153 -41l-6 69q70 47 168 47q120 0 159 -76q62 77 173 77q97 0 150.5 -69t41.5 -193
h-337q-1 -89 50 -137.5t138 -48.5q77 0 155 34zM361 131q-19 45 -22 94q-112 2 -160 -25.5t-48 -68.5q0 -32 24 -52t69 -20q37 0 74 19t63 53zM677 315q1 61 -31.5 96.5t-87.5 35.5q-50 0 -87.5 -35.5t-41.5 -97.5zM565 714l-221 -137l-22 63l221 151z" />
    <glyph glyph-name="uni01FE" unicode="&#x1fe;" horiz-adv-x="875" 
d="M810 365q1 -99 -39.5 -179t-111.5 -131q-91 -66 -231 -66q-85 0 -160 35l-68 -105l-61 38l67 103q-141 108 -141 303q0 184 140 284q98 74 236 74q97 0 172 -35l71 110l61 -37l-70 -107q135 -102 135 -287zM565 609q-57 28 -134 28q-98 0 -171 -56q-44 -34 -69 -88.5
t-25 -119.5q0 -151 92 -232zM709 356q0 137 -87 215l-307 -472q52 -26 113 -26h8q102 0 166 47q107 80 107 236zM585 875l-232 -101l-13 68l234 114z" />
    <glyph glyph-name="uni01FF" unicode="&#x1ff;" horiz-adv-x="595" 
d="M438 714l-221 -137l-22 63l221 151zM541 263q0 -128 -70.5 -200.5t-175.5 -72.5q-62 0 -114 26l-61 -94l-51 31l62 98q-77 72 -77 203q0 120 70 189.5t181 69.5q57 0 106 -22l68 106l52 -31l-69 -108q79 -68 79 -195zM367 423q-32 17 -70 17q-68 0 -109.5 -47.5
t-41.5 -133.5q0 -78 38 -130zM449 255q0 77 -40 126l-184 -297q32 -21 70 -21h8q64 0 105 53t41 139z" />
    <glyph glyph-name="uni0218" unicode="&#x218;" horiz-adv-x="579" 
d="M506 195q0 -37 -14.5 -72t-44 -65.5t-80 -49t-116.5 -18.5q-99 0 -187 35l-3 87q107 -37 190 -37q77 0 112 33t35 78q0 36 -22 65.5t-86 58.5l-56 26q-86 39 -121.5 85.5t-35.5 108.5q1 79 64.5 134.5t178.5 55.5q87 0 159 -26l-7 -82q-82 26 -149 26q-72 0 -107.5 -28.5
t-35.5 -72.5q0 -35 23.5 -63t90.5 -58l56 -24q86 -38 121 -86.5t35 -110.5zM358 -139q0 -69 -98 -154l-52 32q43 44 58 75.5t-1 58.5q-4 7 -11 14t-12 11l-4 4q18 36 55 36q23 0 39 -13q26 -21 26 -64z" />
    <glyph glyph-name="uni0219" unicode="&#x219;" horiz-adv-x="456" 
d="M394 145q0 -59 -47.5 -106.5t-143.5 -47.5q-77 0 -144 32l-2 75q76 -34 143 -34q49 0 74.5 23t25.5 52q0 23 -16.5 42.5t-64.5 35.5l-47 16q-113 39 -113 136q0 53 46 98t137 45q79 0 132 -26l-6 -70q-63 24 -123 24q-47 0 -71.5 -20.5t-24.5 -45.5q0 -46 80 -72l47 -16
q118 -41 118 -141zM281 -129q0 -68 -93 -149l-47 29q82 84 51 135q-4 7 -8.5 13.5t-7.5 9.5t-4 3q20 33 49 33q26 0 42 -19q18 -21 18 -55z" />
    <glyph glyph-name="uni021A" unicode="&#x21a;" horiz-adv-x="629" 
d="M593 710l-6 -82h-225v-628h-97v628h-224v82h552zM404 -155q0 -42 -31 -72.5t-82 -30.5q-39 0 -64 15l-2 64q37 -15 62 -15q19 0 31 10t12 25q0 49 -106 61l18 55q86 -4 124 -38t38 -74z" />
    <glyph glyph-name="uni021B" unicode="&#x21b;" horiz-adv-x="378" 
d="M348 84l-1 -71q-48 -22 -100 -22q-160 0 -160 163v265h-77v63l81 9l14 102l73 1v-103h153l-4 -72h-149v-256q0 -96 87 -96q39 0 83 17zM292 -157q0 -40 -31 -69t-83 -29q-40 0 -71 15v55q32 -13 63 -13q25 0 38 11.5t13 28.5q0 54 -108 66l13 48q87 -5 126.5 -38.5
t39.5 -74.5z" />
    <glyph glyph-name="uni0232" unicode="&#x232;" horiz-adv-x="665" 
d="M382 0h-96v307l-269 403h115l208 -316l204 316h104l-266 -402v-308zM452 811h-244v71h244v-71z" />
    <glyph glyph-name="uni0233" unicode="&#x233;" horiz-adv-x="540" 
d="M504 503q-18 -141 -63 -285q-62 -201 -149 -310q-88 -111 -241 -171l-33 76q142 58 202 139q-47 109 -99 246.5t-81 221.5l-29 83h103q87 -277 165 -470q42 75 82 211q36 121 52 259h91zM382 640h-251v68h251v-68z" />
    <glyph glyph-name="dotlessj" unicode="&#x237;" horiz-adv-x="252" 
d="M172 501v-430q0 -81 -15.5 -134.5t-45.5 -92t-91 -90.5l-52 55q73 74 93 122t20 150v412z" />
    <glyph glyph-name="uni0259" unicode="&#x259;" horiz-adv-x="544" 
d="M61 403l3 70q72 37 163 39q128 1 197.5 -72t69.5 -196q0 -115 -64.5 -185t-170.5 -70q-97 0 -150.5 69t-41.5 193h337q1 89 -50 137.5t-138 48.5q-78 0 -155 -34zM154 187q-1 -61 31.5 -96.5t86.5 -35.5q51 0 88.5 35.5t41.5 97.5z" />
    <glyph glyph-name="uni0275" unicode="&#x275;" horiz-adv-x="595" 
d="M541 263q0 -128 -70.5 -200.5t-175.5 -72.5q-104 0 -172.5 71.5t-68.5 192.5q0 120 70 189.5t181 69.5q106 0 171 -67.5t65 -182.5zM448 285q-7 69 -47 112t-104 43q-63 0 -104 -41t-47 -114h302zM448 223h-301q9 -70 49 -115t99 -45h8q58 0 98 44t47 116z" />
    <glyph glyph-name="circumflex" unicode="&#x2c6;" horiz-adv-x="451" 
d="M401 624l-56 -47l-122 117l-126 -116l-47 44l180 163z" />
    <glyph glyph-name="caron" unicode="&#x2c7;" horiz-adv-x="451" 
d="M50 738l57 47l121 -118l126 117l47 -45l-180 -162z" />
    <glyph glyph-name="breve" unicode="&#x2d8;" horiz-adv-x="418" 
d="M303 766l65 -5q-6 -77 -49 -124.5t-115 -47.5q-80 0 -123 63q-29 43 -31 105l70 10q0 -5 4 -23q19 -87 88 -87q36 0 60 29t31 80z" />
    <glyph glyph-name="dotaccent" unicode="&#x2d9;" horiz-adv-x="222" 
d="M172 675q0 -27 -17.5 -44t-44.5 -17q-28 0 -44 17.5t-16 44.5q0 26 16.5 42t45.5 16q28 0 44 -16.5t16 -42.5z" />
    <glyph glyph-name="ring" unicode="&#x2da;" horiz-adv-x="352" 
d="M302 687q0 -54 -36.5 -88.5t-92.5 -34.5q-55 0 -89 32t-34 85q0 55 36 89.5t92 34.5t90 -32t34 -86zM235 681q0 35 -16 54.5t-43 19.5q-26 0 -42.5 -17.5t-16.5 -50.5q0 -35 16 -54t43 -19q26 0 42.5 17.5t16.5 49.5z" />
    <glyph glyph-name="ogonek" unicode="&#x2db;" horiz-adv-x="292" 
d="M148 0h78q-98 -62 -98 -120q0 -43 49 -43q27 0 65 17v-60q-43 -23 -85 -23q-48 0 -77.5 26t-29.5 68q0 79 98 135z" />
    <glyph glyph-name="tilde" unicode="&#x2dc;" horiz-adv-x="466" 
d="M416 743q-22 -71 -53 -96.5t-68 -25.5q-23 0 -69 17l-14 5q-26 10 -40 10q-40 0 -67 -65l-55 17q22 71 53 96t68 25q23 0 69 -17l13 -5q26 -10 41 -10q40 0 67 65z" />
    <glyph glyph-name="hungarumlaut" unicode="&#x2dd;" horiz-adv-x="503" 
d="M453 730l-191 -169l-33 58l188 181zM252 736l-167 -176l-35 54l162 186z" />
    <glyph glyph-name="uni0394" unicode="&#x394;" horiz-adv-x="707" 
d="M670 0h-643l274 710h98zM533 85l-191 505l-191 -505h382z" />
    <glyph glyph-name="uni03A9" unicode="&#x3a9;" horiz-adv-x="921" 
d="M837 0h-311v71q189 137 189 312q0 123 -75 188t-184 65t-183 -67.5t-74 -178.5q0 -91 45.5 -173.5t126.5 -145.5v-71h-290v80h173q-156 130 -156 308q0 147 106 239.5t254 92.5q154 0 256 -89.5t102 -240.5q0 -182 -172 -310h193v-80z" />
    <glyph glyph-name="uni03BC" unicode="&#x3bc;" horiz-adv-x="573" 
d="M493 4l-83 -8l-2 63q-62 -69 -155 -69q-61 0 -93 37q7 -28 7 -78v-199h-90v748l90 9v-267q0 -34 3 -61q7 -111 109 -111q68 0 123 58v372l91 9v-503z" />
    <glyph glyph-name="uni1E80" unicode="&#x1e80;" horiz-adv-x="1057" 
d="M1025 710l-240 -708l-113 -4l-146 409l-138 -405l-112 -4l-247 712h103l209 -612l142 430l-65 182h101l212 -609l198 609h96zM641 842l-13 -68l-232 101l10 81z" />
    <glyph glyph-name="uni1E81" unicode="&#x1e81;" horiz-adv-x="848" 
d="M822 503l-169 -501l-102 -4l-129 393l-130 -389l-104 -4l-164 505h97l103 -340l19 -71q0 7 23 71l113 340h94l109 -336l22 -75q8 30 22 73l105 338h91zM516 640l-22 -63l-221 137l22 77z" />
    <glyph glyph-name="uni1E82" unicode="&#x1e82;" horiz-adv-x="1057" 
d="M1025 710l-240 -708l-113 -4l-146 409l-138 -405l-112 -4l-247 712h103l209 -612l142 430l-65 182h101l212 -609l198 609h96zM654 875l-232 -101l-13 68l234 114z" />
    <glyph glyph-name="uni1E83" unicode="&#x1e83;" horiz-adv-x="848" 
d="M822 503l-169 -501l-102 -4l-129 393l-130 -389l-104 -4l-164 505h97l103 -340l19 -71q0 7 23 71l113 340h94l109 -336l22 -75q8 30 22 73l105 338h91zM575 714l-221 -137l-22 63l221 151z" />
    <glyph glyph-name="uni1E84" unicode="&#x1e84;" horiz-adv-x="1057" 
d="M1025 710l-240 -708l-113 -4l-146 409l-138 -405l-112 -4l-247 712h103l209 -612l142 430l-65 182h101l212 -609l198 609h96zM475 858q0 -27 -15.5 -42.5t-39.5 -15.5q-23 0 -38 17t-15 42q0 24 14.5 39t40.5 15q25 0 39 -15.5t14 -39.5zM679 858q0 -27 -15.5 -42.5
t-39.5 -15.5q-23 0 -38 17t-15 42q0 24 14.5 39t40.5 15q25 0 39 -15.5t14 -39.5z" />
    <glyph glyph-name="uni1E85" unicode="&#x1e85;" horiz-adv-x="848" 
d="M822 503l-169 -501l-102 -4l-129 393l-130 -389l-104 -4l-164 505h97l103 -340l19 -71q0 7 23 71l113 340h94l109 -336q16 -51 22 -75q0 7 22 73l105 338h91zM580 678q0 -28 -15.5 -43t-39.5 -15t-39 16.5t-15 42.5q0 25 15 40.5t41 15.5q25 0 39 -16t14 -41zM382 678
q0 -28 -15 -43t-40 -15q-24 0 -38.5 16.5t-14.5 42.5q0 25 14.5 40.5t40.5 15.5q25 0 39 -16t14 -41z" />
    <glyph glyph-name="uni1EBC" unicode="&#x1ebc;" horiz-adv-x="596" 
d="M506 82l-7 -82h-397v710h380v-82h-284v-228h264v-79h-264v-239h308zM482 932q-22 -71 -53 -96t-68 -25q-23 0 -69 17l-14 5q-26 10 -40 10q-40 0 -67 -66l-55 17q22 71 52.5 96t68.5 25q23 0 69 -17l13 -5q26 -10 41 -10q40 0 67 65z" />
    <glyph glyph-name="uni1EBD" unicode="&#x1ebd;" horiz-adv-x="544" 
d="M483 99l-3 -70q-72 -37 -163 -39q-128 -1 -197.5 72t-69.5 196q0 115 64.5 185t170.5 70q97 0 150.5 -69t41.5 -193h-337q-1 -89 50 -137.5t138 -48.5q78 0 155 34zM390 315q1 61 -31.5 96.5t-86.5 35.5q-51 0 -88.5 -35.5t-41.5 -97.5zM460 743q-22 -71 -53 -96.5
t-68 -25.5q-23 0 -69 17l-14 5q-26 10 -40 10q-40 0 -67 -65l-55 17q22 71 53 96t68 25q23 0 69 -17l13 -5q26 -10 41 -10q40 0 67 65z" />
    <glyph glyph-name="uni1EF2" unicode="&#x1ef2;" horiz-adv-x="665" 
d="M382 0h-96v307l-269 403h115l208 -316l204 316h104l-266 -402v-308zM418 842l-13 -68l-232 101l10 81z" />
    <glyph glyph-name="uni1EF3" unicode="&#x1ef3;" horiz-adv-x="540" 
d="M504 503q-18 -141 -63 -285q-62 -201 -149 -310q-88 -111 -241 -171l-33 76q142 58 202 139q-47 109 -99 246.5t-81 221.5l-29 83h103q87 -277 165 -470q42 75 82 211q36 121 52 259h91zM341 640l-22 -63l-221 137l22 77z" />
    <glyph glyph-name="uni1EF8" unicode="&#x1ef8;" horiz-adv-x="665" 
d="M382 0h-96v307l-269 403h115l208 -316l204 316h104l-266 -402v-308zM514 932q-22 -71 -53 -96t-68 -25q-23 0 -69 17l-14 5q-26 10 -40 10q-40 0 -67 -66l-55 17q22 71 52.5 96t68.5 25q23 0 69 -17l13 -5q26 -10 41 -10q40 0 67 65z" />
    <glyph glyph-name="uni1EF9" unicode="&#x1ef9;" horiz-adv-x="540" 
d="M504 503q-18 -141 -63 -285q-62 -201 -149 -310q-88 -111 -241 -171l-33 76q142 58 202 139q-47 109 -99 246.5t-81 221.5l-29 83h103q87 -277 165 -470q42 75 82 211q36 121 52 259h91zM440 743q-22 -71 -53 -96.5t-68 -25.5q-23 0 -69 17l-14 5q-26 10 -40 10
q-40 0 -67 -65l-55 17q22 71 53 96t68 25q23 0 69 -17l13 -5q26 -10 41 -10q40 0 67 65z" />
    <glyph glyph-name="endash" unicode="&#x2013;" horiz-adv-x="500" 
d="M20 233v81h460v-81h-460z" />
    <glyph glyph-name="emdash" unicode="&#x2014;" horiz-adv-x="1000" 
d="M20 233v81h960v-81h-960z" />
    <glyph glyph-name="quoteleft" unicode="&#x2018;" horiz-adv-x="238" 
d="M48 603q0 88 116 197l53 -35q-109 -111 -63 -184q5 -7 11.5 -14.5t10.5 -10.5l5 -4q-20 -40 -60 -40q-28 0 -48 20q-25 25 -25 71z" />
    <glyph glyph-name="quoteright" unicode="&#x2019;" horiz-adv-x="238" 
d="M190 662q0 -88 -116 -197l-53 35q109 111 63 184q-5 7 -11.5 14.5t-10.5 11.5l-5 3q20 40 60 40q28 0 48 -20q25 -25 25 -71z" />
    <glyph glyph-name="quotesinglbase" unicode="&#x201a;" horiz-adv-x="238" 
d="M190 40q0 -88 -116 -197l-53 35q109 111 63 184q-5 7 -11.5 14.5t-10.5 11.5l-5 3q20 40 60 40q28 0 48 -20q25 -25 25 -71z" />
    <glyph glyph-name="quotedblleft" unicode="&#x201c;" horiz-adv-x="426" 
d="M248 605q0 84 106 185l51 -36q-40 -41 -56 -76t-13.5 -55.5t15.5 -40.5l25 -31q-24 -36 -57 -36q-27 0 -47 21q-24 26 -24 69zM48 606q0 86 110 194l53 -35q-105 -111 -58 -184l24 -31q-21 -35 -57 -35q-28 0 -48 21q-24 26 -24 70z" />
    <glyph glyph-name="quotedblright" unicode="&#x201d;" horiz-adv-x="426" 
d="M178 664q0 -84 -106 -185l-51 36q40 41 56 76t13.5 55.5t-15.5 40.5l-25 31q24 36 57 36q27 0 47 -21q24 -26 24 -69zM378 663q0 -86 -110 -194l-53 35q105 111 58 184l-24 31q21 35 57 35q28 0 48 -21q24 -26 24 -70z" />
    <glyph glyph-name="quotedblbase" unicode="&#x201e;" horiz-adv-x="426" 
d="M178 41q0 -84 -106 -185l-51 36q40 41 56 76t13.5 55.5t-15.5 40.5l-25 31q24 36 57 36q27 0 47 -21q24 -26 24 -69zM378 40q0 -86 -110 -194l-53 35q105 111 58 184l-24 31q21 35 57 35q28 0 48 -21q24 -26 24 -70z" />
    <glyph glyph-name="dagger" unicode="&#x2020;" horiz-adv-x="586" 
d="M560 387l-89 2l-146 10q12 -125 12 -195q0 -87 -6 -454h-76q-6 367 -6 454q0 70 12 195q-78 -8 -146 -10l-89 -2v84l89 -2l146 -10q-8 79 -9 144l-2 114h86l-2 -114l-9 -144q78 8 146 10l89 2v-84z" />
    <glyph glyph-name="daggerdbl" unicode="&#x2021;" horiz-adv-x="586" 
d="M560 -5l-89 2l-146 9q8 -78 9 -143l2 -115h-86l2 115l9 143q-78 -8 -146 -9l-89 -2v83l89 -2l146 -9q-11 109 -11 169q0 59 11 168q-78 -8 -146 -9l-89 -2v83l89 -2l146 -9q-8 78 -9 143l-2 115h86l-2 -115l-9 -143q78 8 146 9l89 2v-83l-89 2l-146 9q11 -109 11 -168
q0 -60 -11 -169q78 8 146 9l89 2v-83z" />
    <glyph glyph-name="bullet" unicode="&#x2022;" horiz-adv-x="245" 
d="M208 370q0 -35 -26 -59.5t-63 -24.5q-36 0 -59 26t-23 63q0 36 24.5 60.5t62.5 24.5q37 0 60.5 -26t23.5 -64z" />
    <glyph glyph-name="ellipsis" unicode="&#x2026;" horiz-adv-x="603" 
d="M178 51q0 -26 -17 -43.5t-44 -17.5q-26 0 -42.5 18t-16.5 46q0 26 16.5 43.5t44.5 17.5q27 0 43 -18t16 -46zM361 51q0 -26 -17 -43.5t-44 -17.5q-26 0 -42.5 18t-16.5 46q0 26 17 43.5t45 17.5q26 0 42 -18.5t16 -45.5zM545 51q0 -27 -17.5 -44t-44.5 -17
q-26 0 -42.5 18t-16.5 46q0 26 17 43.5t45 17.5q27 0 43 -18t16 -46z" />
    <glyph glyph-name="perthousand" unicode="&#x2030;" horiz-adv-x="1196" 
d="M353 544q0 -91 -45 -137t-113 -46q-69 0 -111.5 46.5t-42.5 129.5q0 91 45.5 137t113.5 46t110.5 -46.5t42.5 -129.5zM282 537q0 60 -23 91.5t-64 31.5q-83 0 -83 -116q0 -60 23 -92t64 -32q83 0 83 117zM623 734l-351 -756l-61 26l352 756zM779 174q0 -91 -45.5 -137.5
t-113.5 -46.5t-111 46.5t-43 129.5q0 91 45.5 137t113.5 46q69 0 111.5 -46t42.5 -129zM708 167q0 59 -23 91t-64 32q-83 0 -83 -117q0 -60 23 -91.5t64 -31.5q83 0 83 117zM1151 174q0 -91 -45.5 -137.5t-113.5 -46.5q-69 0 -111.5 46.5t-42.5 129.5q0 91 45.5 137
t113.5 46t111 -46t43 -129zM1079 167q0 59 -23 91t-63 32q-83 0 -83 -117q0 -60 22.5 -91.5t63.5 -31.5q83 0 83 117z" />
    <glyph glyph-name="guilsinglleft" unicode="&#x2039;" horiz-adv-x="331" 
d="M28 259l200 234l60 -48l-157 -182l162 -193l-64 -50z" />
    <glyph glyph-name="guilsinglright" unicode="&#x203a;" horiz-adv-x="331" 
d="M303 256l-200 -234l-60 48l157 182l-162 193l64 50z" />
    <glyph glyph-name="fraction" unicode="&#x2044;" horiz-adv-x="399" 
d="M403 741l-357 -770l-49 23l357 770z" />
    <glyph glyph-name="fraction" unicode="&#x2215;" horiz-adv-x="399" 
d="M403 741l-357 -770l-49 23l357 770z" />
    <glyph glyph-name="zero.sup" unicode="&#x2070;" 
d="M353 619q0 -114 -46.5 -171t-122.5 -57q-74 0 -117 54t-43 168q0 113 46 170.5t122 57.5q74 0 117.5 -54.5t43.5 -167.5zM284 615q0 84 -25.5 125.5t-70.5 41.5q-95 0 -95 -166q0 -167 95 -167q96 0 96 166z" />
    <glyph glyph-name="four.sup" unicode="&#x2074;" 
d="M357 560l-5 -57h-59v-103h-66v103h-204v51l200 278h70v-272h64zM229 750l-134 -190h132v129z" />
    <glyph glyph-name="five.sup" unicode="&#x2075;" 
d="M330 842l-8 -63l-177 -9l-18 -92q102 -12 149 -54t47 -98q0 -54 -41.5 -94.5t-112.5 -40.5q-61 0 -114 32v62q61 -35 112 -35q39 0 61.5 21.5t22.5 51.5q0 40 -46.5 70.5t-150.5 31.5l39 204z" />
    <glyph glyph-name="six.sup" unicode="&#x2076;" 
d="M343 530q0 -55 -40 -97t-105 -42q-68 0 -115 51.5t-47 152.5q0 105 62.5 175t177.5 70q32 0 55 -3v-57q-27 3 -57 3q-66 0 -112 -38t-54 -105q40 27 88 27q64 0 105.5 -37.5t41.5 -99.5zM273 525q0 38 -24 61t-64 23q-45 0 -81 -26q0 -69 29 -101.5t66 -32.5q34 0 54 21
t20 55z" />
    <glyph glyph-name="seven.sup" unicode="&#x2077;" 
d="M323 832v-56l-206 -385l-60 23l191 356h-219l4 62h290z" />
    <glyph glyph-name="eight.sup" unicode="&#x2078;" 
d="M341 515q0 -51 -44 -87.5t-113 -36.5q-68 0 -110.5 33t-42.5 84q0 69 87 110q-79 40 -79 104q0 50 41 84.5t108 34.5t104.5 -30.5t37.5 -78.5q0 -69 -83 -104q94 -41 94 -113zM264 728q0 25 -20.5 42.5t-57.5 17.5q-36 0 -57.5 -18t-21.5 -43q0 -43 83 -77q74 31 74 78z
M271 511q0 50 -99 83q-74 -32 -74 -81q0 -29 24 -48.5t65 -19.5q37 0 60.5 19t23.5 47z" />
    <glyph glyph-name="nine.sup" unicode="&#x2079;" 
d="M340 637q0 -106 -62.5 -176t-177.5 -70q-26 0 -56 4v57q27 -3 57 -3q66 0 112.5 37.5t54.5 104.5q-42 -27 -89 -27q-64 0 -105.5 37.5t-41.5 100.5q0 55 40 97t105 42q68 0 115.5 -51.5t47.5 -152.5zM271 648q0 70 -29 102.5t-66 32.5q-34 0 -54 -21t-20 -56
q0 -37 24.5 -60.5t64.5 -23.5q44 0 80 26z" />
    <glyph glyph-name="parenleft.sup" unicode="&#x207d;" horiz-adv-x="291" 
d="M263 323l-45 -25q-86 51 -130 132.5t-44 182.5q0 100 44 181.5t130 131.5l45 -24q-158 -98 -158 -289q0 -192 158 -290z" />
    <glyph glyph-name="parenright.sup" unicode="&#x207e;" horiz-adv-x="291" 
d="M266 613q0 -101 -44 -182.5t-129 -132.5l-45 25q157 97 157 290q0 192 -157 289l45 24q85 -50 129 -131.5t44 -181.5z" />
    <glyph glyph-name="zero.inf" unicode="&#x2080;" 
d="M353 79q0 -114 -46.5 -171t-122.5 -57q-74 0 -117 54t-43 168q0 113 46 170.5t122 57.5q74 0 117.5 -54.5t43.5 -167.5zM284 75q0 84 -25.5 125.5t-70.5 41.5q-95 0 -95 -166q0 -167 95 -167q96 0 96 166z" />
    <glyph glyph-name="one.inf" unicode="&#x2081;" horiz-adv-x="288" 
d="M205 -140h-67v372l-105 -8l-4 56l117 13h59v-433z" />
    <glyph glyph-name="two.inf" unicode="&#x2082;" 
d="M343 -80l-6 -60h-285v51l82 85q64 67 87 104t23 68q0 34 -23 54.5t-61 20.5q-52 0 -105 -33l-6 56q55 35 121 35q65 0 105 -37t40 -91q0 -44 -27.5 -91.5t-100.5 -117.5l-45 -44h201z" />
    <glyph glyph-name="three.inf" unicode="&#x2083;" 
d="M327 -26q0 -48 -40 -85.5t-116 -37.5q-66 0 -124 37l-1 62q64 -41 124 -41q42 0 64.5 18t22.5 44q0 66 -133 83v51q123 17 123 79q0 25 -19.5 42.5t-58.5 17.5q-49 0 -106 -34l-6 56q55 35 122 35q65 0 101 -32.5t36 -78.5q0 -35 -23 -64t-73 -42q56 -14 81.5 -44.5
t25.5 -65.5z" />
    <glyph glyph-name="four.inf" unicode="&#x2084;" 
d="M357 20l-5 -57h-59v-103h-66v103h-204v51l200 278h70v-272h64zM229 210l-134 -190h132v129z" />
    <glyph glyph-name="five.inf" unicode="&#x2085;" 
d="M329 302l-8 -63l-177 -9l-18 -92q102 -12 149 -54t47 -98q0 -54 -41.5 -94.5t-112.5 -40.5q-61 0 -114 32v62q61 -35 112 -35q39 0 61.5 21.5t22.5 51.5q0 40 -46.5 70.5t-150.5 31.5l39 204z" />
    <glyph glyph-name="six.inf" unicode="&#x2086;" 
d="M343 -1q0 -55 -40 -97t-105 -42q-68 0 -115 51.5t-47 152.5q0 105 62.5 175t177.5 70q32 0 55 -3v-57q-27 3 -57 3q-66 0 -112 -38t-54 -105q40 27 88 27q64 0 105.5 -37.5t41.5 -99.5zM273 -6q0 38 -24 61t-64 23q-45 0 -81 -26q0 -69 29 -101.5t66 -32.5q34 0 54 21
t20 55z" />
    <glyph glyph-name="seven.inf" unicode="&#x2087;" 
d="M323 298v-56l-206 -385l-60 23l191 356h-219l4 62h290z" />
    <glyph glyph-name="eight.inf" unicode="&#x2088;" 
d="M341 -25q0 -51 -44 -87.5t-113 -36.5q-68 0 -110.5 33t-42.5 84q0 69 87 110q-79 40 -79 104q0 50 41 84.5t108 34.5t104.5 -30.5t37.5 -78.5q0 -69 -83 -104q94 -41 94 -113zM264 188q0 25 -20.5 42.5t-57.5 17.5q-36 0 -57.5 -18t-21.5 -43q0 -43 83 -77q74 31 74 78z
M271 -29q0 50 -99 83q-74 -32 -74 -81q0 -29 24 -48.5t65 -19.5q37 0 60.5 19t23.5 47z" />
    <glyph glyph-name="nine.inf" unicode="&#x2089;" 
d="M340 97q0 -106 -62.5 -176t-177.5 -70q-26 0 -56 4v57q27 -3 57 -3q66 0 112.5 37.5t54.5 104.5q-42 -27 -89 -27q-64 0 -105.5 37.5t-41.5 100.5q0 55 40 97t105 42q68 0 115.5 -51.5t47.5 -152.5zM271 108q0 70 -29 102.5t-66 32.5q-34 0 -54 -21t-20 -56
q0 -37 24.5 -60.5t64.5 -23.5q44 0 80 26z" />
    <glyph glyph-name="parenleft.inf" unicode="&#x208d;" horiz-adv-x="291" 
d="M263 -217l-45 -25q-86 51 -130 132.5t-44 182.5q0 100 44 181.5t130 131.5l45 -24q-158 -98 -158 -289q0 -192 158 -290z" />
    <glyph glyph-name="parenright.inf" unicode="&#x208e;" horiz-adv-x="291" 
d="M266 73q0 -101 -44 -182.5t-129 -132.5l-45 25q157 97 157 290q0 192 -157 289l45 24q85 -50 129 -131.5t44 -181.5z" />
    <glyph glyph-name="uni20A1" unicode="&#x20a1;" horiz-adv-x="587" 
d="M542 124l-7 -83q-56 -27 -108 -35l-3 -98l-52 3l2 89q-44 -1 -92 8l-3 -100l-52 3l3 113q-183 69 -183 329q0 140 54.5 224.5t151.5 115.5l4 110l52 -1l-4 -96q46 9 94 5l3 92l52 -1l-4 -97q33 -6 75 -20l-8 -82q-29 11 -70 20l-17 -536q48 6 112 37zM250 603
q-104 -58 -104 -241q0 -175 87 -238zM396 631q-47 5 -93 -8l-19 -528q39 -13 93 -13z" />
    <glyph glyph-name="uni20A3" unicode="&#x20a3;" horiz-adv-x="587" 
d="M513 630h-284v-234h274v-80h-274v-119h183v-56h-183v-141h-96v141h-104v56h104v513h380v-80z" />
    <glyph glyph-name="uni20A4" unicode="&#x20a4;" horiz-adv-x="587" 
d="M530 82l-7 -82h-399q-40 0 -84 -5l-4 64q67 35 95 75t21 105h-108v51h100q-19 88 -22 105h-78v51h72q-9 129 60.5 201t196.5 72q66 0 127 -19l-10 -76q-66 16 -120 16q-82 0 -124 -52t-34 -142h227v-51h-220q3 -15 22 -105h198v-51h-192q9 -105 -69 -163q32 6 82 6h270z
" />
    <glyph glyph-name="uni20A9" unicode="&#x20a9;" horiz-adv-x="1175" 
d="M1147 307h-201l-106 -305l-106 -4l-148 407l-142 -403l-108 -4l-110 309h-198v52h181l-39 107h-142v51h124l-68 193h103l66 -193h293l-70 193h99l67 -193h285l64 193h96l-68 -193h128v-51h-145l-38 -107h183v-52zM526 466h-255l37 -107h180zM471 307h-145l73 -208z
M910 466h-249l38 -107h175zM857 307h-140l72 -201z" />
    <glyph glyph-name="Euro" unicode="&#x20ac;" horiz-adv-x="587" 
d="M451 254h-252q10 -91 61.5 -137.5t127.5 -46.5q71 0 152 39l-6 -81q-72 -38 -159 -38q-116 0 -189.5 69.5t-86.5 194.5h-73v51h69q-2 21 -2 53l3 52h-70v51h75q16 128 94.5 193.5t189.5 65.5q77 0 142 -24l-8 -79q-69 23 -132 23q-77 0 -128.5 -45t-60.5 -134h253v-51
h-259q-2 -22 -2 -52l3 -53h258v-51z" />
    <glyph glyph-name="uni20B4" unicode="&#x20b4;" horiz-adv-x="566" 
d="M541 257h-312q-49 -43 -49 -89q0 -40 37 -68t114 -28q70 0 174 36l-2 -84q-94 -34 -188 -34q-128 0 -184.5 51t-56.5 117q0 53 41 99h-90v49h134q36 34 117 96h-251v49h303q56 51 56 98q0 38 -34 64t-91 26q-76 0 -162 -33l-10 77q89 37 183 37q110 0 163 -47.5
t53 -114.5q0 -56 -45 -107h100v-49h-142q-31 -31 -113 -96h255v-49z" />
    <glyph glyph-name="uni2113" unicode="&#x2113;" horiz-adv-x="521" 
d="M455 555q0 -183 -226 -268v-124q0 -53 21.5 -74t61.5 -21q44 0 114 29l-2 -74q-65 -33 -123 -33q-158 0 -158 166v111q-48 -15 -79 -22v70q42 10 79 24v184q0 97 44 147t120 50q65 0 106.5 -43.5t41.5 -121.5zM372 548q0 52 -19.5 78t-52.5 26q-34 0 -52.5 -29.5
t-18.5 -84.5v-176q143 60 143 186z" />
    <glyph glyph-name="uni2116" unicode="&#x2116;" horiz-adv-x="1274" 
d="M690 710v-710h-103l-396 571q2 -48 2 -114v-457h-91v710h104l394 -568q-1 23 -1 101v467h91zM1209 517q0 -104 -57 -162.5t-143 -58.5q-84 0 -139.5 58t-55.5 156q0 97 57 153.5t147 56.5q85 0 138 -54.5t53 -148.5zM1131 511q0 67 -32 106.5t-88 39.5q-55 0 -87 -37.5
t-32 -104.5t32 -111t86 -44h6q52 0 83.5 41t31.5 110zM832 153v68h365v-68h-365z" />
    <glyph glyph-name="uni2117" unicode="&#x2117;" horiz-adv-x="888" 
d="M613 414q0 -63 -47.5 -101t-117.5 -38q-5 0 -25 2v57q7 -1 19 -1q41 0 66.5 20t25.5 59q0 81 -117 81h-25v-341h-77v400h112q50 0 90 -12t68 -44t28 -82zM760 345q0 143 -84 231.5t-231 88.5q-142 0 -229 -81t-87 -222q0 -143 84 -231.5t232 -88.5q142 0 228.5 81
t86.5 222zM830 355q0 -172 -112.5 -272.5t-279.5 -100.5t-273.5 101.5t-106.5 268.5q0 172 112.5 272.5t280.5 100.5q167 0 273 -101t106 -269z" />
    <glyph glyph-name="trademark" unicode="&#x2122;" horiz-adv-x="1023" 
d="M377 710l-4 -65h-131v-364h-73v364h-132v65h340zM966 281h-70l-13 326l-148 -326h-64l-141 325l-12 -325h-66l16 429h93l146 -339l153 339h89z" />
    <glyph glyph-name="uni212E" unicode="&#x212e;" horiz-adv-x="810" 
d="M754 345h-576q1 -136 64 -219.5t181 -83.5q64 0 124 28t100 80h83q-120 -164 -316 -164q-162 0 -261 105t-99 255q0 177 101.5 276.5t257.5 99.5q159 0 251 -93.5t90 -283.5zM627 396q0 76 -18 131.5t-50 85.5t-68.5 43.5t-79.5 13.5q-89 0 -148 -50q-84 -69 -85 -224
h449z" />
    <glyph glyph-name="uni2153" unicode="&#x2153;" horiz-adv-x="840" 
d="M573 741l-357 -770l-49 23l357 770zM215 300h-67v372l-105 -8l-4 56l117 13h59v-433zM774 114q0 -48 -40 -85.5t-116 -37.5q-66 0 -124 37l-1 62q64 -41 124 -41q42 0 64.5 18t22.5 44q0 66 -133 83v51q123 17 123 79q0 25 -19.5 42.5t-58.5 17.5q-49 0 -106 -34l-6 56
q55 35 122 35q65 0 101 -32.5t36 -78.5q0 -35 -23 -64t-73 -42q56 -14 81.5 -44.5t25.5 -65.5z" />
    <glyph glyph-name="uni2154" unicode="&#x2154;" horiz-adv-x="840" 
d="M623 741l-357 -770l-49 23l357 770zM329 360l-6 -60h-285v51l82 85q64 67 87 104t23 68q0 34 -23 54.5t-61 20.5q-52 0 -105 -33l-6 56q55 35 121 35q65 0 105 -37t40 -91q0 -44 -27.5 -91.5t-100.5 -117.5l-45 -44h201zM792 114q0 -48 -40 -85.5t-116 -37.5
q-66 0 -124 37l-1 62q64 -41 124 -41q42 0 64.5 18t22.5 44q0 66 -133 83v51q123 17 123 79q0 25 -19.5 42.5t-58.5 17.5q-49 0 -106 -34l-6 56q55 35 122 35q65 0 101 -32.5t36 -78.5q0 -35 -23 -64t-73 -42q56 -14 81.5 -44.5t25.5 -65.5z" />
    <glyph glyph-name="uni215B" unicode="&#x215b;" horiz-adv-x="840" 
d="M584 741l-357 -770l-49 23l357 770zM215 300h-67v372l-105 -8l-4 56l117 13h59v-433zM780 115q0 -51 -44 -87.5t-113 -36.5q-68 0 -110.5 33t-42.5 84q0 69 87 110q-79 40 -79 104q0 50 41 84.5t108 34.5t104.5 -30.5t37.5 -78.5q0 -69 -83 -104q94 -41 94 -113zM703 328
q0 25 -20.5 42.5t-57.5 17.5q-36 0 -57.5 -18t-21.5 -43q0 -43 83 -77q74 31 74 78zM710 111q0 50 -99 83q-74 -32 -74 -81q0 -29 24 -48.5t65 -19.5q37 0 60.5 19t23.5 47z" />
    <glyph glyph-name="uni215C" unicode="&#x215c;" horiz-adv-x="840" 
d="M607 741l-357 -770l-49 23l357 770zM791 115q0 -51 -44 -87.5t-113 -36.5q-68 0 -110.5 33t-42.5 84q0 69 87 110q-79 40 -79 104q0 50 41 84.5t108 34.5t104.5 -30.5t37.5 -78.5q0 -69 -83 -104q94 -41 94 -113zM714 328q0 25 -20.5 42.5t-57.5 17.5q-36 0 -57.5 -18
t-21.5 -43q0 -43 83 -77q74 31 74 78zM721 111q0 50 -99 83q-74 -32 -74 -81q0 -29 24 -48.5t65 -19.5q37 0 60.5 19t23.5 47zM321 414q0 -48 -40 -85.5t-116 -37.5q-66 0 -124 37l-1 62q64 -41 124 -41q42 0 64.5 18t22.5 44q0 66 -133 83v51q123 17 123 79
q0 25 -19.5 42.5t-58.5 17.5q-49 0 -106 -34l-6 56q55 35 122 35q65 0 101 -32.5t36 -78.5q0 -35 -23 -64t-73 -42q56 -14 81.5 -44.5t25.5 -65.5z" />
    <glyph glyph-name="uni215D" unicode="&#x215d;" horiz-adv-x="840" 
d="M598 741l-357 -770l-49 23l357 770zM323 742l-8 -63l-177 -9l-18 -92q102 -12 149 -54t47 -98q0 -54 -41.5 -94.5t-112.5 -40.5q-61 0 -114 32v62q61 -35 112 -35q39 0 61.5 21.5t22.5 51.5q0 40 -46.5 70.5t-150.5 31.5l39 204zM788 115q0 -51 -44 -87.5t-113 -36.5
q-68 0 -110.5 33t-42.5 84q0 69 87 110q-79 40 -79 104q0 50 41 84.5t108 34.5t104.5 -30.5t37.5 -78.5q0 -69 -83 -104q94 -41 94 -113zM711 328q0 25 -20.5 42.5t-57.5 17.5q-36 0 -57.5 -18t-21.5 -43q0 -43 83 -77q74 31 74 78zM718 111q0 50 -99 83q-74 -32 -74 -81
q0 -29 24 -48.5t65 -19.5q37 0 60.5 19t23.5 47z" />
    <glyph glyph-name="uni215E" unicode="&#x215e;" horiz-adv-x="840" 
d="M567 741l-357 -770l-49 23l357 770zM781 115q0 -51 -44 -87.5t-113 -36.5q-68 0 -110.5 33t-42.5 84q0 69 87 110q-79 40 -79 104q0 50 41 84.5t108 34.5t104.5 -30.5t37.5 -78.5q0 -69 -83 -104q94 -41 94 -113zM704 328q0 25 -20.5 42.5t-57.5 17.5q-36 0 -57.5 -18
t-21.5 -43q0 -43 83 -77q74 31 74 78zM711 111q0 50 -99 83q-74 -32 -74 -81q0 -29 24 -48.5t65 -19.5q37 0 60.5 19t23.5 47zM339 732v-56l-206 -385l-60 23l191 356h-219l4 62h290z" />
    <glyph glyph-name="uni2190" unicode="&#x2190;" horiz-adv-x="1083" 
d="M345 594l65 -52l-154 -183q-47 -56 -72 -80q51 4 107 4l742 -1v-83h-742q-56 0 -107 4q22 -21 72 -79l154 -185l-65 -52l-295 355z" />
    <glyph glyph-name="uni2191" unicode="&#x2191;" horiz-adv-x="807" 
d="M757 438l-52 -65l-183 154q-56 47 -80 72q4 -51 4 -107v-742h-84v742q0 50 3 107q-21 -22 -79 -72l-184 -154l-52 65l354 295z" />
    <glyph glyph-name="uni2192" unicode="&#x2192;" horiz-adv-x="1083" 
d="M738 -114l-65 53l154 184q50 58 72 79q-57 -3 -107 -3l-742 -1v83h742q50 0 107 -3q-22 21 -72 79l-154 184l65 53l295 -355z" />
    <glyph glyph-name="uni2193" unicode="&#x2193;" horiz-adv-x="807" 
d="M50 45l52 65l184 -154q58 -50 79 -72q-3 57 -3 107v742h84v-742q0 -56 -4 -107q24 25 80 72l183 154l52 -65l-353 -295z" />
    <glyph glyph-name="uni2196" unicode="&#x2196;" horiz-adv-x="866" 
d="M550 626l9 -82l-239 -22q-72 -6 -107 -5q45 -39 78 -73l525 -525l-59 -58l-524 524q-48 50 -73 79q0 -48 -5 -107l-22 -239l-83 8l41 459z" />
    <glyph glyph-name="uni2197" unicode="&#x2197;" horiz-adv-x="866" 
d="M816 123l-83 -8l-21 238q-6 70 -6 107q-34 -41 -72 -79l-525 -525l-59 60l524 524q37 36 79 73q-43 0 -107 4l-238 23l7 83l459 -41z" />
    <glyph glyph-name="uni2198" unicode="&#x2198;" horiz-adv-x="866" 
d="M316 -150l-7 85l238 20q77 5 107 6q-36 28 -80 71l-524 525l60 60l524 -524q15 -16 40 -43.5t33 -36.5q-1 43 4 107l22 239l83 -8l-41 -460z" />
    <glyph glyph-name="uni2199" unicode="&#x2199;" horiz-adv-x="867" 
d="M50 352l84 8l21 -238q5 -78 5 -108q43 52 72 80l524 524l61 -60l-525 -524q-15 -15 -41.5 -39t-37.5 -34q38 1 106 -3l240 -23l-9 -83l-459 42z" />
    <glyph glyph-name="partialdiff" unicode="&#x2202;" horiz-adv-x="614" 
d="M534 367q1 -189 -75 -284.5t-194 -95.5q-89 0 -148.5 58t-59.5 149q0 59 30 111t80 80q66 38 164 38q49 0 99 -13q-6 134 -57 190q-40 46 -110 46q-86 0 -173 -63l-16 73q89 66 200 66q106 0 169 -61q89 -88 91 -294zM432 337q-50 14 -100 14q-74 0 -117 -31
q-59 -41 -59 -123q0 -59 34.5 -97t86.5 -38q59 0 96 45q55 65 59 230z" />
    <glyph glyph-name="product" unicode="&#x220f;" horiz-adv-x="877" 
d="M691 -170h-97v800h-336v-800h-97v880h530v-880z" />
    <glyph glyph-name="summation" unicode="&#x2211;" horiz-adv-x="686" 
d="M622 -170h-576v78l366 351l-341 375v76h533v-81h-400l303 -330v-72l-333 -316h448v-81z" />
    <glyph glyph-name="minus" unicode="&#x2212;" horiz-adv-x="548" 
d="M512 268h-476v71h476v-71z" />
    <glyph glyph-name="radical" unicode="&#x221a;" horiz-adv-x="694" 
d="M622 770l-184 -909l-91 -29l-204 433l-102 -42l-26 60l182 78l184 -403l161 812h80z" />
    <glyph glyph-name="infinity" unicode="&#x221e;" horiz-adv-x="797" 
d="M729 301q0 -62 -43 -108.5t-114 -46.5q-68 0 -131 61l-44 42l-57 -48q-65 -56 -127 -56q-63 0 -104 41.5t-41 102.5q-1 62 42 108.5t115 46.5q69 0 130 -61l45 -42l56 48q68 56 128 56q63 0 104 -41t41 -103zM349 293l-45 42q-42 38 -82 38q-36 0 -58 -22t-23 -56
q-1 -35 21 -58t57 -23t84 40zM656 295q1 35 -21 58t-57 23q-37 0 -83 -40l-47 -39l44 -41q44 -39 83 -39q36 0 58 22.5t23 55.5z" />
    <glyph glyph-name="integral" unicode="&#x222b;" horiz-adv-x="522" 
d="M432 709l-9 -71q-29 6 -56 6q-103 0 -96 -154l20 -423q6 -127 -47 -184.5t-132 -57.5q-36 0 -71 9l9 72q25 -7 56 -7q18 0 33.5 6t31.5 21t24 48t6 80l-20 423q-6 127 47 184.5t132 57.5q38 0 72 -10z" />
    <glyph glyph-name="approxequal" unicode="&#x2248;" horiz-adv-x="540" 
d="M509 438q-60 -104 -137 -104q-42 0 -106 32q-61 33 -92 33q-43 0 -95 -67l-48 41q66 100 145 100q43 0 115 -40q49 -25 81 -25q22 0 41 15t45 51zM509 238q-60 -104 -137 -104q-42 0 -106 32q-61 33 -92 33q-43 0 -95 -67l-48 41q65 100 145 100q41 0 115 -39
q51 -26 81 -26q22 0 40.5 15t45.5 51z" />
    <glyph glyph-name="notequal" unicode="&#x2260;" horiz-adv-x="548" 
d="M512 154h-280l-87 -161l-60 31l71 130h-120v71h157l77 143h-234v70h270l91 167l60 -31l-74 -136h129v-70h-166l-78 -143h244v-71z" />
    <glyph glyph-name="lessequal" unicode="&#x2264;" horiz-adv-x="566" 
d="M533 124l-500 216v65l500 216v-76l-398 -171l398 -170v-80zM533 -24h-500v71h500v-71z" />
    <glyph glyph-name="greaterequal" unicode="&#x2265;" horiz-adv-x="566" 
d="M533 340l-500 -216v76l398 171l-398 170v80l500 -216v-65zM533 -24h-500v71h500v-71z" />
    <glyph glyph-name="uni22C5" unicode="&#x22c5;" horiz-adv-x="238" 
d="M180 301q0 -26 -17.5 -43.5t-44.5 -17.5q-26 0 -43 18t-17 46q0 26 17 43.5t45 17.5q27 0 43.5 -18.5t16.5 -45.5z" />
    <glyph glyph-name="uni2460" unicode="&#x2460;" horiz-adv-x="822" 
d="M393 140h67v433h-59l-117 -13l4 -56l105 8v-372zM741 355q0 143 -94 238.5t-236 95.5t-235.5 -95t-93.5 -239t93.5 -239t235.5 -95t236 95.5t94 238.5zM792 355q0 -160 -110 -269.5t-271 -109.5q-162 0 -271.5 108.5t-109.5 270.5q0 160 110 269.5t271 109.5
q162 0 271.5 -108.5t109.5 -270.5z" />
    <glyph glyph-name="uni2461" unicode="&#x2461;" horiz-adv-x="822" 
d="M567 140l6 60h-201l45 44q73 70 100.5 117.5t27.5 91.5q0 54 -40 91t-105 37q-66 0 -121 -35l6 -56q53 33 105 33q38 0 61 -20.5t23 -54.5q0 -31 -23 -68t-87 -104l-82 -85v-51h285zM741 355q0 143 -94 238.5t-236 95.5t-235.5 -95t-93.5 -239t93.5 -239t235.5 -95
t236 95.5t94 238.5zM792 355q0 -160 -110 -269.5t-271 -109.5q-162 0 -271.5 108.5t-109.5 270.5q0 160 110 269.5t271 109.5q162 0 271.5 -108.5t109.5 -270.5z" />
    <glyph glyph-name="uni2462" unicode="&#x2462;" horiz-adv-x="822" 
d="M555 252q0 35 -25.5 65.5t-81.5 44.5q50 13 73 42t23 64q0 46 -36 78.5t-101 32.5q-67 0 -122 -35l6 -56q57 34 106 34q39 0 58.5 -17.5t19.5 -42.5q0 -62 -123 -79v-51q133 -17 133 -83q0 -26 -22.5 -44t-64.5 -18q-60 0 -124 41l1 -62q58 -37 124 -37q76 0 116 37.5
t40 85.5zM741 355q0 143 -94 238.5t-236 95.5t-235.5 -95t-93.5 -239t93.5 -239t235.5 -95t236 95.5t94 238.5zM792 355q0 -160 -110 -269.5t-271 -109.5q-162 0 -271.5 108.5t-109.5 270.5q0 160 110 269.5t271 109.5q162 0 271.5 -108.5t109.5 -270.5z" />
    <glyph glyph-name="uni2463" unicode="&#x2463;" horiz-adv-x="822" 
d="M297 301l134 190q-2 -19 -2 -61v-129h-132zM554 244l5 57h-64v272h-70l-200 -278v-51h204v-103h66v103h59zM741 355q0 143 -94 238.5t-236 95.5t-235.5 -95t-93.5 -239t93.5 -239t235.5 -95t236 95.5t94 238.5zM792 355q0 -160 -110 -269.5t-271 -109.5
q-162 0 -271.5 108.5t-109.5 270.5q0 160 110 269.5t271 109.5q162 0 271.5 -108.5t109.5 -270.5z" />
    <glyph glyph-name="uni2464" unicode="&#x2464;" horiz-adv-x="822" 
d="M537 513l8 63l-237 -13l-39 -204q104 -1 150.5 -31.5t46.5 -70.5q0 -30 -22.5 -51.5t-61.5 -21.5q-51 0 -112 35v-62q53 -32 114 -32q71 0 112.5 40.5t41.5 94.5q0 56 -47 98t-149 54l18 92zM741 355q0 143 -94 238.5t-236 95.5t-235.5 -95t-93.5 -239t93.5 -239
t235.5 -95t236 95.5t94 238.5zM792 355q0 -160 -110 -269.5t-271 -109.5q-162 0 -271.5 108.5t-109.5 270.5q0 160 110 269.5t271 109.5q162 0 271.5 -108.5t109.5 -270.5z" />
    <glyph glyph-name="uni2465" unicode="&#x2465;" horiz-adv-x="822" 
d="M479 265q0 -34 -20 -55t-54 -21q-37 0 -66 32.5t-29 101.5q36 26 81 26q40 0 64 -23t24 -61zM549 270q0 62 -41.5 99.5t-105.5 37.5q-48 0 -88 -27q8 67 54 105t112 38q30 0 57 -3v57q-23 3 -55 3q-115 0 -177.5 -70t-62.5 -175q0 -101 47 -152.5t115 -51.5q65 0 105 42
t40 97zM741 355q0 143 -94 238.5t-236 95.5t-235.5 -95t-93.5 -239t93.5 -239t235.5 -95t236 95.5t94 238.5zM792 355q0 -160 -110 -269.5t-271 -109.5q-162 0 -271.5 108.5t-109.5 270.5q0 160 110 269.5t271 109.5q162 0 271.5 -108.5t109.5 -270.5z" />
    <glyph glyph-name="uni2466" unicode="&#x2466;" horiz-adv-x="822" 
d="M552 519v56h-290l-4 -62h219l-191 -356l60 -23zM741 355q0 143 -94 238.5t-236 95.5t-235.5 -95t-93.5 -239t93.5 -239t235.5 -95t236 95.5t94 238.5zM792 355q0 -160 -110 -269.5t-271 -109.5q-162 0 -271.5 108.5t-109.5 270.5q0 160 110 269.5t271 109.5
q162 0 271.5 -108.5t109.5 -270.5z" />
    <glyph glyph-name="uni2467" unicode="&#x2467;" horiz-adv-x="822" 
d="M494 248q0 -28 -23.5 -47t-60.5 -19q-41 0 -65 19.5t-24 48.5q0 49 74 81q99 -33 99 -83zM487 465q0 -47 -74 -78q-83 34 -83 77q0 25 21.5 43t57.5 18q37 0 57.5 -17.5t20.5 -42.5zM564 252q0 72 -94 113q83 35 83 104q0 48 -37.5 78.5t-104.5 30.5t-108 -34.5
t-41 -84.5q0 -64 79 -104q-87 -41 -87 -110q0 -51 42.5 -84t110.5 -33q69 0 113 36.5t44 87.5zM741 355q0 143 -94 238.5t-236 95.5t-235.5 -95t-93.5 -239t93.5 -239t235.5 -95t236 95.5t94 238.5zM792 355q0 -160 -110 -269.5t-271 -109.5q-162 0 -271.5 108.5
t-109.5 270.5q0 160 110 269.5t271 109.5q162 0 271.5 -108.5t109.5 -270.5z" />
    <glyph glyph-name="uni2468" unicode="&#x2468;" horiz-adv-x="822" 
d="M503 388q-36 -26 -80 -26q-40 0 -64.5 23.5t-24.5 60.5q0 35 20 56t54 21q37 0 66 -32.5t29 -102.5zM572 377q0 101 -47.5 152.5t-115.5 51.5q-65 0 -105 -42t-40 -97q0 -63 41.5 -100.5t105.5 -37.5q47 0 89 27q-8 -67 -54.5 -104.5t-112.5 -37.5q-30 0 -57 3v-57
q30 -4 56 -4q115 0 177.5 70t62.5 176zM741 355q0 143 -94 238.5t-236 95.5t-235.5 -95t-93.5 -239t93.5 -239t235.5 -95t236 95.5t94 238.5zM792 355q0 -160 -110 -269.5t-271 -109.5q-162 0 -271.5 108.5t-109.5 270.5q0 160 110 269.5t271 109.5q162 0 271.5 -108.5
t109.5 -270.5z" />
    <glyph glyph-name="uni24EA" unicode="&#x24ea;" horiz-adv-x="822" 
d="M507 356q0 -166 -96 -166q-95 0 -95 167q0 166 95 166q45 0 70.5 -41.5t25.5 -125.5zM576 360q0 113 -43.5 167.5t-117.5 54.5q-76 0 -122 -57.5t-46 -170.5q0 -114 43 -168t117 -54q76 0 122.5 57t46.5 171zM741 355q0 143 -94 238.5t-236 95.5t-235.5 -95t-93.5 -239
t93.5 -239t235.5 -95t236 95.5t94 238.5zM792 355q0 -160 -110 -269.5t-271 -109.5q-162 0 -271.5 108.5t-109.5 270.5q0 160 110 269.5t271 109.5q162 0 271.5 -108.5t109.5 -270.5z" />
    <glyph glyph-name="uni24FF" unicode="&#x24ff;" horiz-adv-x="816" 
d="M504 356q0 -166 -96 -166q-95 0 -95 167q0 166 95 166q45 0 70.5 -41.5t25.5 -125.5zM573 360q0 113 -43.5 167.5t-117.5 54.5q-76 0 -122 -57.5t-46 -170.5q0 -114 43 -168t117 -54q76 0 122.5 57t46.5 171zM782 355q0 -158 -108.5 -266.5t-265.5 -108.5t-265.5 108.5
t-108.5 266.5t108.5 266.5t265.5 108.5t265.5 -108.5t108.5 -266.5z" />
    <glyph glyph-name="lozenge" unicode="&#x25ca;" horiz-adv-x="624" 
d="M572 353l-230 -353h-77l-213 357l230 353h77zM475 347l-161 275l-166 -260l163 -274z" />
    <glyph glyph-name="uni25CB" unicode="&#x25cb;" horiz-adv-x="822" 
d="M741 355q0 143 -94 238.5t-236 95.5t-235.5 -95t-93.5 -239t93.5 -239t235.5 -95t236 95.5t94 238.5zM792 355q0 -160 -110 -269.5t-271 -109.5q-162 0 -271.5 108.5t-109.5 270.5q0 160 110 269.5t271 109.5q162 0 271.5 -108.5t109.5 -270.5z" />
    <glyph glyph-name="uni25CF" unicode="&#x25cf;" horiz-adv-x="808" 
d="M778 355q0 -158 -108.5 -266.5t-265.5 -108.5t-265.5 108.5t-108.5 266.5t108.5 266.5t265.5 108.5t265.5 -108.5t108.5 -266.5z" />
    <glyph glyph-name="uni2610" unicode="&#x2610;" horiz-adv-x="810" 
d="M764 0h-718v710h718v-710zM715 46v618h-620v-618h620z" />
    <glyph glyph-name="uni2611" unicode="&#x2611;" horiz-adv-x="810" 
d="M764 0h-718v710h718v-710zM715 46v618h-620v-618h620zM584 223l-43 -47l-136 134l-136 -134l-43 47l133 132l-133 132l43 47l136 -134l136 134l43 -47l-134 -132z" />
    <glyph glyph-name="uni2713" unicode="&#x2713;" horiz-adv-x="810" 
d="M584 223l-43 -47l-136 134l-136 -134l-43 47l133 132l-133 132l43 47l136 -134l136 134l43 -47l-134 -132z" />
    <glyph glyph-name="uni2776" unicode="&#x2776;" horiz-adv-x="816" 
d="M390 140h67v433h-59l-117 -13l4 -56l105 8v-372zM782 355q0 -158 -108.5 -266.5t-265.5 -108.5t-265.5 108.5t-108.5 266.5t108.5 266.5t265.5 108.5t265.5 -108.5t108.5 -266.5z" />
    <glyph glyph-name="uni2777" unicode="&#x2777;" horiz-adv-x="816" 
d="M565 140l6 60h-201l45 44q73 70 100.5 117.5t27.5 91.5q0 54 -40 91t-105 37q-66 0 -121 -35l6 -56q53 33 105 33q38 0 61 -20.5t23 -54.5q0 -31 -23 -68t-87 -104l-82 -85v-51h285zM782 355q0 -158 -108.5 -266.5t-265.5 -108.5t-265.5 108.5t-108.5 266.5t108.5 266.5
t265.5 108.5t265.5 -108.5t108.5 -266.5z" />
    <glyph glyph-name="uni2778" unicode="&#x2778;" horiz-adv-x="816" 
d="M552 252q0 35 -25.5 65.5t-81.5 44.5q50 13 73 42t23 64q0 46 -36 78.5t-101 32.5q-67 0 -122 -35l6 -56q57 34 106 34q39 0 58.5 -17.5t19.5 -42.5q0 -62 -123 -79v-51q133 -17 133 -83q0 -26 -22.5 -44t-64.5 -18q-60 0 -124 41l1 -62q58 -37 124 -37q76 0 116 37.5
t40 85.5zM782 355q0 -158 -108.5 -266.5t-265.5 -108.5t-265.5 108.5t-108.5 266.5t108.5 266.5t265.5 108.5t265.5 -108.5t108.5 -266.5z" />
    <glyph glyph-name="uni2779" unicode="&#x2779;" horiz-adv-x="816" 
d="M295 301l134 190q-2 -19 -2 -61v-129h-132zM552 244l5 57h-64v272h-70l-200 -278v-51h204v-103h66v103h59zM782 355q0 -158 -108.5 -266.5t-265.5 -108.5t-265.5 108.5t-108.5 266.5t108.5 266.5t265.5 108.5t265.5 -108.5t108.5 -266.5z" />
    <glyph glyph-name="uni277A" unicode="&#x277a;" horiz-adv-x="816" 
d="M534 513l8 63l-237 -13l-39 -204q104 -1 150.5 -31.5t46.5 -70.5q0 -30 -22.5 -51.5t-61.5 -21.5q-51 0 -112 35v-62q53 -32 114 -32q71 0 112.5 40.5t41.5 94.5q0 56 -47 98t-149 54l18 92zM782 355q0 -158 -108.5 -266.5t-265.5 -108.5t-265.5 108.5t-108.5 266.5
t108.5 266.5t265.5 108.5t265.5 -108.5t108.5 -266.5z" />
    <glyph glyph-name="uni277B" unicode="&#x277b;" horiz-adv-x="816" 
d="M476 265q0 -34 -20 -55t-54 -21q-37 0 -66 32.5t-29 101.5q36 26 81 26q40 0 64 -23t24 -61zM546 270q0 62 -41.5 99.5t-105.5 37.5q-48 0 -88 -27q8 67 54 105t112 38q30 0 57 -3v57q-22 3 -55 3q-115 0 -177.5 -70t-62.5 -175q0 -101 47 -152.5t115 -51.5q65 0 105 42
t40 97zM782 355q0 -158 -108.5 -266.5t-265.5 -108.5t-265.5 108.5t-108.5 266.5t108.5 266.5t265.5 108.5t265.5 -108.5t108.5 -266.5z" />
    <glyph glyph-name="uni277C" unicode="&#x277c;" horiz-adv-x="816" 
d="M549 519v56h-290l-4 -62h219l-191 -356l60 -23zM782 355q0 -158 -108.5 -266.5t-265.5 -108.5t-265.5 108.5t-108.5 266.5t108.5 266.5t265.5 108.5t265.5 -108.5t108.5 -266.5z" />
    <glyph glyph-name="uni277D" unicode="&#x277d;" horiz-adv-x="816" 
d="M491 248q0 -28 -23.5 -47t-60.5 -19q-41 0 -65 19.5t-24 48.5q0 49 74 81q99 -33 99 -83zM484 465q0 -47 -74 -78q-83 34 -83 77q0 25 21.5 43t57.5 18q37 0 57.5 -17.5t20.5 -42.5zM561 252q0 72 -94 113q83 35 83 104q0 48 -37.5 78.5t-104.5 30.5t-108 -34.5
t-41 -84.5q0 -64 79 -104q-87 -41 -87 -110q0 -51 42.5 -84t110.5 -33q69 0 113 36.5t44 87.5zM782 355q0 -158 -108.5 -266.5t-265.5 -108.5t-265.5 108.5t-108.5 266.5t108.5 266.5t265.5 108.5t265.5 -108.5t108.5 -266.5z" />
    <glyph glyph-name="uni277E" unicode="&#x277e;" horiz-adv-x="816" 
d="M500 388q-36 -26 -80 -26q-40 0 -64.5 23.5t-24.5 60.5q0 35 20 56t54 21q37 0 66 -32.5t29 -102.5zM569 377q0 101 -47.5 152.5t-115.5 51.5q-65 0 -105 -42t-40 -97q0 -63 41.5 -100.5t105.5 -37.5q47 0 89 27q-8 -67 -54.5 -104.5t-112.5 -37.5q-30 0 -57 3v-57
q30 -4 56 -4q115 0 177.5 70t62.5 176zM782 355q0 -158 -108.5 -266.5t-265.5 -108.5t-265.5 108.5t-108.5 266.5t108.5 266.5t265.5 108.5t265.5 -108.5t108.5 -266.5z" />
    <glyph glyph-name="fi" unicode="&#xfb01;" horiz-adv-x="591" 
d="M463 759l-7 -71q-67 15 -121 15q-80 0 -116 -41q-15 -16 -22 -41.5t-8 -45t-1 -57.5v-27h136l-5 -72h-131v-419h-91v419h-80v63l80 9v18q0 68 9.5 115.5t41.5 83.5q60 69 187 69q73 0 128 -18zM514 0h-91v493l91 8v-501z" />
    <glyph glyph-name="fl" unicode="&#xfb02;" horiz-adv-x="591" 
d="M514 0h-91v693q-41 10 -88 10q-80 0 -116 -41q-15 -16 -22 -41.5t-8 -45t-1 -57.5v-27h136l-5 -72h-131v-419h-91v419h-80v63l80 9v18q0 68 9.5 115.5t41.5 83.5q60 69 187 69q59 0 103 -11l76 8v-774z" />
    <glyph glyph-name="uniFF8F" unicode="&#xff8f;" horiz-adv-x="1000" 
d="M40 -210v920h920v-920h-920zM306 604q0 26 -24 26q-23 0 -23 -26q0 -25 23 -25q24 0 24 25zM299 604q0 -19 -17 -19q-16 0 -16 19q0 20 16 20q17 0 17 -20zM244 619h7q-4 11 -16 11q-16 0 -16 -16v-28h-8v-6h29v6h-14v28q0 10 9 10q7 0 9 -5zM193 580h7v49h-7v-33
q0 -11 -13 -11t-13 14v30h-7v-30q0 -20 20 -20q8 0 13 5v-4zM175 646q0 5 -5 5t-5 -5t5 -5t5 5zM149 599q0 13 -14 18q11 4 11 15q0 18 -24 18h-21v-70h22q26 0 26 19zM138 632q0 -13 -15 -13h-15v25h14q16 0 16 -12zM141 599q0 -13 -18 -13h-15v27h16q17 0 17 -14zM397 615
q0 35 -38 35h-20v-70h20q38 0 38 35zM390 615q0 -29 -31 -29h-13v58h13q31 0 31 -29zM558 596q0 13 -15 13h-9q-9 0 -9 5q0 10 12 10q9 0 13 -7h7q-4 13 -20 13q-19 0 -19 -16q0 -11 15 -11h9q9 0 9 -7q0 -11 -13 -11q-10 0 -13 7h-7q4 -13 20 -13q20 0 20 17zM603 590h-7
q-1 -5 -8 -5q-10 0 -10 11v25h18v6h-18v11h-7v-42q0 -17 17 -17q12 0 15 11zM681 559v91h-41q-23 0 -23 -20t23 -20h9v7h-9q-16 0 -16 13q0 14 16 14h16v-85h7v85h11v-85h7zM195 646q0 5 -5 5t-5 -5t5 -5t5 5zM443 580h7v49h-7v-33q0 -11 -13 -11t-13 14v30h-7v-30
q0 -20 20 -20q8 0 13 5v-4zM472 629h-7v-49h7v33q0 11 13 11t13 -14v-30h7v30q0 20 -20 20q-8 0 -13 -5v4z" />
    <glyph glyph-name="ampersand.alt.1" horiz-adv-x="921" 
d="M863 328h-173q11 -46 11 -98q0 -230 -296 -230h-282v710h381v-82h-284v-220h643v-80zM610 228q0 49 -9 100h-381v-246h182q108 0 158 31t50 115z" />
    <glyph glyph-name="ampersand.alt.2" horiz-adv-x="927" 
d="M872 270q0 -216 -118 -345.5t-319 -129.5q-174 0 -277.5 105.5t-103.5 303.5q0 184 103 268q54 45 125 45q60 0 93 -30.5t33 -74.5q0 -71 -79 -107q52 16 156 28l14 83l61 5l-3 -80l98 11l-3 -56l-97 -12l-5 -128q-2 -36 7 -52t37 -16q26 0 57 10l-2 -52q-39 -19 -82 -19
q-49 0 -71 28.5t-19 90.5l4 130l-155 -18q-65 -7 -184 -31v-24q0 -166 84 -250t222 -84q151 0 242 103.5t91 281.5q0 108 -29.5 189.5t-80.5 128.5t-112.5 70t-132.5 23q-118 0 -234 -53v74q106 51 243 51q89 0 166 -28t138.5 -83.5t97 -146.5t35.5 -209zM325 398
q0 25 -16 41t-45 16q-40 0 -74.5 -40.5t-44.5 -126.5q96 12 138 43t42 67z" />
    <glyph glyph-name="ampersand.alt.3" horiz-adv-x="823" 
d="M754 401q0 -112 -45.5 -203.5t-139 -149t-218.5 -58.5q-130 -1 -207 70.5t-77 199.5q0 110 58 181q63 76 164 76q70 0 110 -34t40 -83q0 -147 -282 -163q7 -87 62 -131t139 -44q140 0 222 98t82 234q0 148 -84 228.5t-210 80.5q-79 0 -145 -18v67q64 23 154 23
q163 0 270 -101.5t107 -272.5zM350 397q0 25 -18 41t-50 16q-51 0 -86.5 -39t-41.5 -119q196 15 196 101z" />
    <glyph glyph-name="ampersand.alt.4" horiz-adv-x="823" 
d="M764 401q0 -83 -27.5 -156.5t-78.5 -130.5t-131 -90t-178 -34q-136 -1 -215 70.5t-79 199.5q0 109 59 181q62 76 163 76q69 0 108.5 -32t39.5 -79q0 -25 -14 -48.5t-38 -32.5q39 10 168 30l-5 -68q-86 -9 -311 -39l-80 -10q7 -88 64.5 -132t146.5 -44q99 0 172.5 48
t108.5 122t35 162q0 148 -86.5 228.5t-219.5 80.5q-82 0 -152 -19v67q67 24 161 24q170 0 279.5 -101.5t109.5 -272.5zM338 397q0 25 -17.5 41t-50.5 16q-51 0 -86 -39t-41 -119q195 15 195 101z" />
    <glyph glyph-name="ampersand.alt.5" horiz-adv-x="918" 
d="M901 406l-5 -73q-127 -8 -139 -9q-24 -146 -130 -239.5t-278 -94.5q-136 -1 -215 70.5t-79 199.5q0 109 59 181q62 76 163 76q69 0 108.5 -32t39.5 -79q0 -51 -50 -77q67 30 297 56v9q0 148 -86.5 228.5t-219.5 80.5q-82 0 -152 -19v67q67 24 161 24q170 0 279.5 -101.5
t109.5 -272.5v-6l75 6t62 5zM356 62q125 0 205 71t103 182q-198 -20 -438 -64l-81 -15q7 -87 64.5 -130.5t146.5 -43.5zM338 397q0 25 -17.5 41t-50.5 16q-51 0 -86 -39t-41 -120q195 21 195 102z" />
    <glyph glyph-name="ampersand.alt.6" horiz-adv-x="669" 
d="M640 37l-74 -55q-61 31 -120 71q-76 -63 -189 -63q-101 0 -157 47t-56 113q0 92 111 143q-69 59 -69 120q0 56 45 93t117 37q71 0 112.5 -36t41.5 -90q0 -86 -117 -139q81 -68 154 -121q37 51 37 133q0 47 -11 94h83q16 -50 16 -92q0 -101 -56 -179q51 -34 132 -76z
M320 412q0 28 -21 46t-54 18q-34 0 -54 -17.5t-20 -44.5q0 -21 12.5 -40.5t49.5 -50.5q87 36 87 89zM380 103q-62 45 -175 143q-73 -33 -73 -90q0 -38 34 -66t94 -28q68 0 120 41z" />
    <glyph glyph-name="ampersand.alt.7" horiz-adv-x="754" 
d="M706 236h-133q6 -34 6 -60q0 -176 -236 -176h-236v533h324v-69h-231v-159h506v-69zM490 176q0 28 -6 60h-284v-166h142q148 0 148 106z" />
    <glyph glyph-name="uni24EA.lc" horiz-adv-x="822" 
d="M507 256q0 -166 -96 -166q-95 0 -95 167q0 166 95 166q45 0 70.5 -41.5t25.5 -125.5zM576 260q0 113 -43.5 167.5t-117.5 54.5q-76 0 -122 -57.5t-46 -170.5q0 -114 43 -168t117 -54q76 0 122.5 57t46.5 171zM741 255q0 143 -94 238.5t-236 95.5t-235.5 -95t-93.5 -239
t93.5 -239t235.5 -95t236 95.5t94 238.5zM792 255q0 -160 -110 -269.5t-271 -109.5q-162 0 -271.5 108.5t-109.5 270.5q0 160 110 269.5t271 109.5q162 0 271.5 -108.5t109.5 -270.5z" />
    <glyph glyph-name="uni2460.lc" horiz-adv-x="822" 
d="M393 40h67v433h-59l-117 -13l4 -56l105 8v-372zM741 255q0 143 -94 238.5t-236 95.5t-235.5 -95t-93.5 -239t93.5 -239t235.5 -95t236 95.5t94 238.5zM792 255q0 -160 -110 -269.5t-271 -109.5q-162 0 -271.5 108.5t-109.5 270.5q0 160 110 269.5t271 109.5
q162 0 271.5 -108.5t109.5 -270.5z" />
    <glyph glyph-name="uni2461.lc" horiz-adv-x="822" 
d="M567 40l6 60h-201l45 44q73 70 100.5 117.5t27.5 91.5q0 54 -40 91t-105 37q-66 0 -121 -35l6 -56q53 33 105 33q38 0 61 -20.5t23 -54.5q0 -31 -23 -68t-87 -104l-82 -85v-51h285zM741 255q0 143 -94 238.5t-236 95.5t-235.5 -95t-93.5 -239t93.5 -239t235.5 -95
t236 95.5t94 238.5zM792 255q0 -160 -110 -269.5t-271 -109.5q-162 0 -271.5 108.5t-109.5 270.5q0 160 110 269.5t271 109.5q162 0 271.5 -108.5t109.5 -270.5z" />
    <glyph glyph-name="uni2462.lc" horiz-adv-x="822" 
d="M555 152q0 35 -25.5 65.5t-81.5 44.5q50 13 73 42t23 64q0 46 -36 78.5t-101 32.5q-67 0 -122 -35l6 -56q57 34 106 34q39 0 58.5 -17.5t19.5 -42.5q0 -62 -123 -79v-51q133 -17 133 -83q0 -26 -22.5 -44t-64.5 -18q-60 0 -124 41l1 -62q58 -37 124 -37q76 0 116 37.5
t40 85.5zM741 255q0 143 -94 238.5t-236 95.5t-235.5 -95t-93.5 -239t93.5 -239t235.5 -95t236 95.5t94 238.5zM792 255q0 -160 -110 -269.5t-271 -109.5q-162 0 -271.5 108.5t-109.5 270.5q0 160 110 269.5t271 109.5q162 0 271.5 -108.5t109.5 -270.5z" />
    <glyph glyph-name="uni2463.lc" horiz-adv-x="822" 
d="M297 201l134 190q-2 -19 -2 -61v-129h-132zM554 144l5 57h-64v272h-70l-200 -278v-51h204v-103h66v103h59zM741 255q0 143 -94 238.5t-236 95.5t-235.5 -95t-93.5 -239t93.5 -239t235.5 -95t236 95.5t94 238.5zM792 255q0 -160 -110 -269.5t-271 -109.5
q-162 0 -271.5 108.5t-109.5 270.5q0 160 110 269.5t271 109.5q162 0 271.5 -108.5t109.5 -270.5z" />
    <glyph glyph-name="uni2464.lc" horiz-adv-x="822" 
d="M537 413l8 63l-237 -13l-39 -204q104 -1 150.5 -31.5t46.5 -70.5q0 -30 -22.5 -51.5t-61.5 -21.5q-51 0 -112 35v-62q53 -32 114 -32q71 0 112.5 40.5t41.5 94.5q0 56 -47 98t-149 54l18 92zM741 255q0 143 -94 238.5t-236 95.5t-235.5 -95t-93.5 -239t93.5 -239
t235.5 -95t236 95.5t94 238.5zM792 255q0 -160 -110 -269.5t-271 -109.5q-162 0 -271.5 108.5t-109.5 270.5q0 160 110 269.5t271 109.5q162 0 271.5 -108.5t109.5 -270.5z" />
    <glyph glyph-name="uni2465.lc" horiz-adv-x="822" 
d="M479 165q0 -34 -20 -55t-54 -21q-37 0 -66 32.5t-29 101.5q36 26 81 26q40 0 64 -23t24 -61zM549 170q0 62 -41.5 99.5t-105.5 37.5q-48 0 -88 -27q8 67 54 105t112 38q30 0 57 -3v57q-23 3 -55 3q-115 0 -177.5 -70t-62.5 -175q0 -101 47 -152.5t115 -51.5q65 0 105 42
t40 97zM741 255q0 143 -94 238.5t-236 95.5t-235.5 -95t-93.5 -239t93.5 -239t235.5 -95t236 95.5t94 238.5zM792 255q0 -160 -110 -269.5t-271 -109.5q-162 0 -271.5 108.5t-109.5 270.5q0 160 110 269.5t271 109.5q162 0 271.5 -108.5t109.5 -270.5z" />
    <glyph glyph-name="uni2466.lc" horiz-adv-x="822" 
d="M552 419v56h-290l-4 -62h219l-191 -356l60 -23zM741 255q0 143 -94 238.5t-236 95.5t-235.5 -95t-93.5 -239t93.5 -239t235.5 -95t236 95.5t94 238.5zM792 255q0 -160 -110 -269.5t-271 -109.5q-162 0 -271.5 108.5t-109.5 270.5q0 160 110 269.5t271 109.5
q162 0 271.5 -108.5t109.5 -270.5z" />
    <glyph glyph-name="uni2467.lc" horiz-adv-x="822" 
d="M494 148q0 -28 -23.5 -47t-60.5 -19q-41 0 -65 19.5t-24 48.5q0 49 74 81q99 -33 99 -83zM487 365q0 -47 -74 -78q-83 34 -83 77q0 25 21.5 43t57.5 18q37 0 57.5 -17.5t20.5 -42.5zM564 152q0 72 -94 113q83 35 83 104q0 48 -37.5 78.5t-104.5 30.5t-108 -34.5
t-41 -84.5q0 -64 79 -104q-87 -41 -87 -110q0 -51 42.5 -84t110.5 -33q69 0 113 36.5t44 87.5zM741 255q0 143 -94 238.5t-236 95.5t-235.5 -95t-93.5 -239t93.5 -239t235.5 -95t236 95.5t94 238.5zM792 255q0 -160 -110 -269.5t-271 -109.5q-162 0 -271.5 108.5
t-109.5 270.5q0 160 110 269.5t271 109.5q162 0 271.5 -108.5t109.5 -270.5z" />
    <glyph glyph-name="uni2468.lc" horiz-adv-x="822" 
d="M503 288q-36 -26 -80 -26q-40 0 -64.5 23.5t-24.5 60.5q0 35 20 56t54 21q37 0 66 -32.5t29 -102.5zM572 277q0 101 -47.5 152.5t-115.5 51.5q-65 0 -105 -42t-40 -97q0 -63 41.5 -100.5t105.5 -37.5q47 0 89 27q-8 -67 -54.5 -104.5t-112.5 -37.5q-30 0 -57 3v-57
q30 -4 56 -4q115 0 177.5 70t62.5 176zM741 255q0 143 -94 238.5t-236 95.5t-235.5 -95t-93.5 -239t93.5 -239t235.5 -95t236 95.5t94 238.5zM792 255q0 -160 -110 -269.5t-271 -109.5q-162 0 -271.5 108.5t-109.5 270.5q0 160 110 269.5t271 109.5q162 0 271.5 -108.5
t109.5 -270.5z" />
    <glyph glyph-name="uni24FF.lc" horiz-adv-x="816" 
d="M504 256q0 -166 -96 -166q-95 0 -95 167q0 166 95 166q45 0 70.5 -41.5t25.5 -125.5zM573 260q0 113 -43.5 167.5t-117.5 54.5q-76 0 -122 -57.5t-46 -170.5q0 -114 43 -168t117 -54q76 0 122.5 57t46.5 171zM782 255q0 -158 -108.5 -266.5t-265.5 -108.5t-265.5 108.5
t-108.5 266.5t108.5 266.5t265.5 108.5t265.5 -108.5t108.5 -266.5z" />
    <glyph glyph-name="uni2776.lc" horiz-adv-x="816" 
d="M390 40h67v433h-59l-117 -13l4 -56l105 8v-372zM782 255q0 -158 -108.5 -266.5t-265.5 -108.5t-265.5 108.5t-108.5 266.5t108.5 266.5t265.5 108.5t265.5 -108.5t108.5 -266.5z" />
    <glyph glyph-name="uni2777.lc" horiz-adv-x="816" 
d="M565 40l6 60h-201l45 44q73 70 100.5 117.5t27.5 91.5q0 54 -40 91t-105 37q-66 0 -121 -35l6 -56q53 33 105 33q38 0 61 -20.5t23 -54.5q0 -31 -23 -68t-87 -104l-82 -85v-51h285zM782 255q0 -158 -108.5 -266.5t-265.5 -108.5t-265.5 108.5t-108.5 266.5t108.5 266.5
t265.5 108.5t265.5 -108.5t108.5 -266.5z" />
    <glyph glyph-name="uni2778.lc" horiz-adv-x="816" 
d="M552 152q0 35 -25.5 65.5t-81.5 44.5q50 13 73 42t23 64q0 46 -36 78.5t-101 32.5q-67 0 -122 -35l6 -56q57 34 106 34q39 0 58.5 -17.5t19.5 -42.5q0 -62 -123 -79v-51q133 -17 133 -83q0 -26 -22.5 -44t-64.5 -18q-60 0 -124 41l1 -62q58 -37 124 -37q76 0 116 37.5
t40 85.5zM782 255q0 -158 -108.5 -266.5t-265.5 -108.5t-265.5 108.5t-108.5 266.5t108.5 266.5t265.5 108.5t265.5 -108.5t108.5 -266.5z" />
    <glyph glyph-name="uni2779.lc" horiz-adv-x="816" 
d="M295 201l134 190q-2 -19 -2 -61v-129h-132zM552 144l5 57h-64v272h-70l-200 -278v-51h204v-103h66v103h59zM782 255q0 -158 -108.5 -266.5t-265.5 -108.5t-265.5 108.5t-108.5 266.5t108.5 266.5t265.5 108.5t265.5 -108.5t108.5 -266.5z" />
    <glyph glyph-name="uni277A.lc" horiz-adv-x="816" 
d="M534 413l8 63l-237 -13l-39 -204q104 -1 150.5 -31.5t46.5 -70.5q0 -30 -22.5 -51.5t-61.5 -21.5q-51 0 -112 35v-62q53 -32 114 -32q71 0 112.5 40.5t41.5 94.5q0 56 -47 98t-149 54l18 92zM782 255q0 -158 -108.5 -266.5t-265.5 -108.5t-265.5 108.5t-108.5 266.5
t108.5 266.5t265.5 108.5t265.5 -108.5t108.5 -266.5z" />
    <glyph glyph-name="uni277B.lc" horiz-adv-x="816" 
d="M476 165q0 -34 -20 -55t-54 -21q-37 0 -66 32.5t-29 101.5q36 26 81 26q40 0 64 -23t24 -61zM546 170q0 62 -41.5 99.5t-105.5 37.5q-48 0 -88 -27q8 67 54 105t112 38q30 0 57 -3v57q-22 3 -55 3q-115 0 -177.5 -70t-62.5 -175q0 -101 47 -152.5t115 -51.5q65 0 105 42
t40 97zM782 255q0 -158 -108.5 -266.5t-265.5 -108.5t-265.5 108.5t-108.5 266.5t108.5 266.5t265.5 108.5t265.5 -108.5t108.5 -266.5z" />
    <glyph glyph-name="uni277C.lc" horiz-adv-x="816" 
d="M549 419v56h-290l-4 -62h219l-191 -356l60 -23zM782 255q0 -158 -108.5 -266.5t-265.5 -108.5t-265.5 108.5t-108.5 266.5t108.5 266.5t265.5 108.5t265.5 -108.5t108.5 -266.5z" />
    <glyph glyph-name="uni277D.lc" horiz-adv-x="816" 
d="M491 148q0 -28 -23.5 -47t-60.5 -19q-41 0 -65 19.5t-24 48.5q0 49 74 81q99 -33 99 -83zM484 365q0 -47 -74 -78q-83 34 -83 77q0 25 21.5 43t57.5 18q37 0 57.5 -17.5t20.5 -42.5zM561 152q0 72 -94 113q83 35 83 104q0 48 -37.5 78.5t-104.5 30.5t-108 -34.5
t-41 -84.5q0 -64 79 -104q-87 -41 -87 -110q0 -51 42.5 -84t110.5 -33q69 0 113 36.5t44 87.5zM782 255q0 -158 -108.5 -266.5t-265.5 -108.5t-265.5 108.5t-108.5 266.5t108.5 266.5t265.5 108.5t265.5 -108.5t108.5 -266.5z" />
    <glyph glyph-name="uni277E.lc" horiz-adv-x="816" 
d="M500 288q-36 -26 -80 -26q-40 0 -64.5 23.5t-24.5 60.5q0 35 20 56t54 21q37 0 66 -32.5t29 -102.5zM569 277q0 101 -47.5 152.5t-115.5 51.5q-65 0 -105 -42t-40 -97q0 -63 41.5 -100.5t105.5 -37.5q47 0 89 27q-8 -67 -54.5 -104.5t-112.5 -37.5q-30 0 -57 3v-57
q30 -4 56 -4q115 0 177.5 70t62.5 176zM782 255q0 -158 -108.5 -266.5t-265.5 -108.5t-265.5 108.5t-108.5 266.5t108.5 266.5t265.5 108.5t265.5 -108.5t108.5 -266.5z" />
    <glyph glyph-name="uni2191.alt.1" horiz-adv-x="477" 
d="M427 404l-40 -45l-117 100v-299h-63v299l-117 -100l-40 45l188 157z" />
    <glyph glyph-name="uni2193.alt.1" horiz-adv-x="477" 
d="M50 313l40 45l117 -101v300h63v-300l117 101l40 -45l-189 -157z" />
    <glyph glyph-name="uni2190.alt.1" horiz-adv-x="501" 
d="M207 549l45 -40l-100 -117h299v-63h-299l100 -118l-45 -39l-157 188z" />
    <glyph glyph-name="uni2192.alt.1" horiz-adv-x="501" 
d="M294 172l-45 39l100 118h-299v63h299l-100 117l45 40l157 -189z" />
    <glyph glyph-name="uni2196.alt.1" horiz-adv-x="428" 
d="M316 524l4 -60l-153 -12l211 -211l-45 -45l-211 212l-12 -154l-60 4l22 244z" />
    <glyph glyph-name="uni2197.alt.1" horiz-adv-x="428" 
d="M378 258l-60 -4l-12 154l-211 -212l-45 45l212 211l-154 12l4 60l244 -22z" />
    <glyph glyph-name="uni2199.alt.1" horiz-adv-x="428" 
d="M50 462l60 5l12 -154l211 211l45 -44l-211 -212l154 -12l-5 -60l-244 22z" />
    <glyph glyph-name="uni2198.alt.1" horiz-adv-x="428" 
d="M112 196l-4 60l153 12l-211 212l45 44l211 -211l12 154l60 -5l-22 -244z" />
    <glyph glyph-name="uni2191.alt.2" horiz-adv-x="844" 
d="M570 361l40 45l-189 157l-188 -157l40 -45l117 100v-299h63v299zM752 355q0 143 -94 238.5t-236 95.5t-235.5 -95t-93.5 -239t93.5 -239t235.5 -95t236 95.5t94 238.5zM803 355q0 -160 -110 -269.5t-271 -109.5q-162 0 -271.5 108.5t-109.5 270.5q0 160 110 269.5
t271 109.5q162 0 271.5 -108.5t109.5 -270.5z" />
    <glyph glyph-name="uni2193.alt.2" horiz-adv-x="844" 
d="M273 355l-40 -45l188 -157l189 157l-40 45l-117 -101v300h-63v-300zM752 355q0 143 -94 238.5t-236 95.5t-235.5 -95t-93.5 -239t93.5 -239t235.5 -95t236 95.5t94 238.5zM803 355q0 -160 -110 -269.5t-271 -109.5q-162 0 -271.5 108.5t-109.5 270.5q0 160 110 269.5
t271 109.5q162 0 271.5 -108.5t109.5 -270.5z" />
    <glyph glyph-name="uni2190.alt.2" horiz-adv-x="844" 
d="M418 504l-45 40l-157 -189l157 -188l45 39l-100 118h299v63h-299zM752 355q0 143 -94 238.5t-236 95.5t-235.5 -95t-93.5 -239t93.5 -239t235.5 -95t236 95.5t94 238.5zM803 355q0 -160 -110 -269.5t-271 -109.5q-162 0 -271.5 108.5t-109.5 270.5q0 160 110 269.5
t271 109.5q162 0 271.5 -108.5t109.5 -270.5z" />
    <glyph glyph-name="uni2192.alt.2" horiz-adv-x="844" 
d="M425 206l45 -39l157 188l-157 189l-45 -40l100 -117h-299v-63h299zM752 355q0 143 -94 238.5t-236 95.5t-235.5 -95t-93.5 -239t93.5 -239t235.5 -95t236 95.5t94 238.5zM803 355q0 -160 -110 -269.5t-271 -109.5q-162 0 -271.5 108.5t-109.5 270.5q0 160 110 269.5
t271 109.5q162 0 271.5 -108.5t109.5 -270.5z" />
    <glyph glyph-name="uni2196.alt.2" horiz-adv-x="844" 
d="M525 460l-4 60l-244 -22l-22 -244l60 -4l12 154l211 -212l45 45l-211 211zM752 355q0 143 -94 238.5t-236 95.5t-235.5 -95t-93.5 -239t93.5 -239t235.5 -95t236 95.5t94 238.5zM803 355q0 -160 -110 -269.5t-271 -109.5q-162 0 -271.5 108.5t-109.5 270.5
q0 160 110 269.5t271 109.5q162 0 271.5 -108.5t109.5 -270.5z" />
    <glyph glyph-name="uni2197.alt.2" horiz-adv-x="844" 
d="M523 250l60 4l-22 244l-244 22l-4 -60l154 -12l-212 -211l45 -45l211 212zM752 355q0 143 -94 238.5t-236 95.5t-235.5 -95t-93.5 -239t93.5 -239t235.5 -95t236 95.5t94 238.5zM803 355q0 -160 -110 -269.5t-271 -109.5q-162 0 -271.5 108.5t-109.5 270.5
q0 160 110 269.5t271 109.5q162 0 271.5 -108.5t109.5 -270.5z" />
    <glyph glyph-name="uni2199.alt.2" horiz-adv-x="844" 
d="M315 460l-60 -5l22 -244l244 -22l5 60l-154 12l211 212l-45 44l-211 -211zM752 355q0 143 -94 238.5t-236 95.5t-235.5 -95t-93.5 -239t93.5 -239t235.5 -95t236 95.5t94 238.5zM803 355q0 -160 -110 -269.5t-271 -109.5q-162 0 -271.5 108.5t-109.5 270.5
q0 160 110 269.5t271 109.5q162 0 271.5 -108.5t109.5 -270.5z" />
    <glyph glyph-name="uni2198.alt.2" horiz-adv-x="844" 
d="M313 249l4 -60l244 22l22 244l-60 5l-12 -154l-211 211l-45 -44l211 -212zM752 355q0 143 -94 238.5t-236 95.5t-235.5 -95t-93.5 -239t93.5 -239t235.5 -95t236 95.5t94 238.5zM803 355q0 -160 -110 -269.5t-271 -109.5q-162 0 -271.5 108.5t-109.5 270.5
q0 160 110 269.5t271 109.5q162 0 271.5 -108.5t109.5 -270.5z" />
    <glyph glyph-name="uni2191.alt.3" horiz-adv-x="838" 
d="M568 361l40 45l-189 157l-188 -157l40 -45l117 100v-299h63v299zM793 355q0 -158 -108.5 -266.5t-265.5 -108.5t-265.5 108.5t-108.5 266.5t108.5 266.5t265.5 108.5t265.5 -108.5t108.5 -266.5z" />
    <glyph glyph-name="uni2193.alt.3" horiz-adv-x="838" 
d="M271 355l-40 -45l188 -157l189 157l-40 45l-117 -101v300h-63v-300zM793 355q0 -158 -108.5 -266.5t-265.5 -108.5t-265.5 108.5t-108.5 266.5t108.5 266.5t265.5 108.5t265.5 -108.5t108.5 -266.5z" />
    <glyph glyph-name="uni2190.alt.3" horiz-adv-x="838" 
d="M415 504l-45 40l-157 -189l157 -188l45 39l-100 118h299v63h-299zM793 355q0 -158 -108.5 -266.5t-265.5 -108.5t-265.5 108.5t-108.5 266.5t108.5 266.5t265.5 108.5t265.5 -108.5t108.5 -266.5z" />
    <glyph glyph-name="uni2192.alt.3" horiz-adv-x="838" 
d="M422 206l45 -39l157 188l-157 189l-45 -40l100 -117h-299v-63h299zM793 355q0 -158 -108.5 -266.5t-265.5 -108.5t-265.5 108.5t-108.5 266.5t108.5 266.5t265.5 108.5t265.5 -108.5t108.5 -266.5z" />
    <glyph glyph-name="uni2196.alt.3" horiz-adv-x="838" 
d="M522 460l-4 60l-244 -22l-22 -244l60 -4l12 154l211 -212l45 45l-211 211zM793 355q0 -158 -108.5 -266.5t-265.5 -108.5t-265.5 108.5t-108.5 266.5t108.5 266.5t265.5 108.5t265.5 -108.5t108.5 -266.5z" />
    <glyph glyph-name="uni2197.alt.3" horiz-adv-x="838" 
d="M520 250l60 4l-22 244l-244 22l-4 -60l154 -12l-212 -211l45 -45l211 212zM793 355q0 -158 -108.5 -266.5t-265.5 -108.5t-265.5 108.5t-108.5 266.5t108.5 266.5t265.5 108.5t265.5 -108.5t108.5 -266.5z" />
    <glyph glyph-name="uni2199.alt.3" horiz-adv-x="838" 
d="M312 460l-60 -5l22 -244l244 -22l5 60l-154 12l211 212l-45 44l-211 -211zM793 355q0 -158 -108.5 -266.5t-265.5 -108.5t-265.5 108.5t-108.5 266.5t108.5 266.5t265.5 108.5t265.5 -108.5t108.5 -266.5z" />
    <glyph glyph-name="uni2198.alt.3" horiz-adv-x="838" 
d="M310 249l4 -60l244 22l22 244l-60 5l-12 -154l-211 211l-45 -44l211 -212zM793 355q0 -158 -108.5 -266.5t-265.5 -108.5t-265.5 108.5t-108.5 266.5t108.5 266.5t265.5 108.5t265.5 -108.5t108.5 -266.5z" />
    <glyph glyph-name="uni2191.alt.4" horiz-adv-x="844" 
d="M751 355q0 144 -93.5 239t-235.5 95t-236 -95.5t-94 -238.5t94 -238.5t236 -95.5t235.5 95t93.5 239zM803 355q0 -160 -110 -269.5t-271 -109.5q-162 0 -271.5 108.5t-109.5 270.5q0 160 110 269.5t271 109.5q162 0 271.5 -108.5t109.5 -270.5zM294 227h256l-128 322z
" />
    <glyph glyph-name="uni2193.alt.4" horiz-adv-x="844" 
d="M751 355q0 144 -93.5 239t-235.5 95t-236 -95.5t-94 -238.5t94 -238.5t236 -95.5t235.5 95t93.5 239zM803 355q0 -160 -110 -269.5t-271 -109.5q-162 0 -271.5 108.5t-109.5 270.5q0 160 110 269.5t271 109.5q162 0 271.5 -108.5t109.5 -270.5zM550 483h-256l128 -322z
" />
    <glyph glyph-name="uni2190.alt.4" horiz-adv-x="844" 
d="M751 355q0 144 -93.5 239t-235.5 95t-236 -95.5t-94 -238.5t94 -238.5t236 -95.5t235.5 95t93.5 239zM803 355q0 -160 -110 -269.5t-271 -109.5q-162 0 -271.5 108.5t-109.5 270.5q0 160 110 269.5t271 109.5q162 0 271.5 -108.5t109.5 -270.5zM550 227v256l-322 -128z
" />
    <glyph glyph-name="uni2192.alt.4" horiz-adv-x="844" 
d="M751 355q0 144 -93.5 239t-235.5 95t-236 -95.5t-94 -238.5t94 -238.5t236 -95.5t235.5 95t93.5 239zM803 355q0 -160 -110 -269.5t-271 -109.5q-162 0 -271.5 108.5t-109.5 270.5q0 160 110 269.5t271 109.5q162 0 271.5 -108.5t109.5 -270.5zM294 483v-256l322 128z
" />
    <glyph glyph-name="uni2196.alt.4" horiz-adv-x="844" 
d="M751 355q0 144 -93.5 239t-235.5 95t-236 -95.5t-94 -238.5t94 -238.5t236 -95.5t235.5 95t93.5 239zM803 355q0 -160 -110 -269.5t-271 -109.5q-162 0 -271.5 108.5t-109.5 270.5q0 160 110 269.5t271 109.5q162 0 271.5 -108.5t109.5 -270.5zM422 174l181 181l-318 137
z" />
    <glyph glyph-name="uni2197.alt.4" horiz-adv-x="844" 
d="M751 355q0 144 -93.5 239t-235.5 95t-236 -95.5t-94 -238.5t94 -238.5t236 -95.5t235.5 95t93.5 239zM803 355q0 -160 -110 -269.5t-271 -109.5q-162 0 -271.5 108.5t-109.5 270.5q0 160 110 269.5t271 109.5q162 0 271.5 -108.5t109.5 -270.5zM241 355l181 -181l137 318
z" />
    <glyph glyph-name="uni2199.alt.4" horiz-adv-x="844" 
d="M751 355q0 144 -93.5 239t-235.5 95t-236 -95.5t-94 -238.5t94 -238.5t236 -95.5t235.5 95t93.5 239zM803 355q0 -160 -110 -269.5t-271 -109.5q-162 0 -271.5 108.5t-109.5 270.5q0 160 110 269.5t271 109.5q162 0 271.5 -108.5t109.5 -270.5zM603 355l-181 181
l-137 -318z" />
    <glyph glyph-name="uni2198.alt.4" horiz-adv-x="844" 
d="M751 355q0 144 -93.5 239t-235.5 95t-236 -95.5t-94 -238.5t94 -238.5t236 -95.5t235.5 95t93.5 239zM803 355q0 -160 -110 -269.5t-271 -109.5q-162 0 -271.5 108.5t-109.5 270.5q0 160 110 269.5t271 109.5q162 0 271.5 -108.5t109.5 -270.5zM422 536l-181 -181
l318 -137z" />
    <glyph glyph-name="uni2191.alt.5" horiz-adv-x="838" 
d="M793 355q0 -158 -108.5 -266.5t-265.5 -108.5t-265.5 108.5t-108.5 266.5t108.5 266.5t265.5 108.5t265.5 -108.5t108.5 -266.5zM291 227h256l-128 322z" />
    <glyph glyph-name="uni2193.alt.5" horiz-adv-x="838" 
d="M793 355q0 -158 -108.5 -266.5t-265.5 -108.5t-265.5 108.5t-108.5 266.5t108.5 266.5t265.5 108.5t265.5 -108.5t108.5 -266.5zM547 483h-256l128 -322z" />
    <glyph glyph-name="uni2190.alt.5" horiz-adv-x="838" 
d="M793 355q0 -158 -108.5 -266.5t-265.5 -108.5t-265.5 108.5t-108.5 266.5t108.5 266.5t265.5 108.5t265.5 -108.5t108.5 -266.5zM547 227v256l-322 -128z" />
    <glyph glyph-name="uni2192.alt.5" horiz-adv-x="838" 
d="M793 355q0 -158 -108.5 -266.5t-265.5 -108.5t-265.5 108.5t-108.5 266.5t108.5 266.5t265.5 108.5t265.5 -108.5t108.5 -266.5zM291 483v-256l322 128z" />
    <glyph glyph-name="uni2196.alt.5" horiz-adv-x="838" 
d="M793 355q0 -158 -108.5 -266.5t-265.5 -108.5t-265.5 108.5t-108.5 266.5t108.5 266.5t265.5 108.5t265.5 -108.5t108.5 -266.5zM419 174l181 181l-318 137z" />
    <glyph glyph-name="uni2197.alt.5" horiz-adv-x="838" 
d="M793 355q0 -158 -108.5 -266.5t-265.5 -108.5t-265.5 108.5t-108.5 266.5t108.5 266.5t265.5 108.5t265.5 -108.5t108.5 -266.5zM238 355l181 -181l137 318z" />
    <glyph glyph-name="uni2199.alt.5" horiz-adv-x="838" 
d="M793 355q0 -158 -108.5 -266.5t-265.5 -108.5t-265.5 108.5t-108.5 266.5t108.5 266.5t265.5 108.5t265.5 -108.5t108.5 -266.5zM600 355l-181 181l-137 -318z" />
    <glyph glyph-name="uni2198.alt.5" horiz-adv-x="838" 
d="M793 355q0 -158 -108.5 -266.5t-265.5 -108.5t-265.5 108.5t-108.5 266.5t108.5 266.5t265.5 108.5t265.5 -108.5t108.5 -266.5zM419 536l-181 -181l318 -137z" />
    <glyph glyph-name="uni2191.alt.6" horiz-adv-x="415" 
d="M365 162h-315l158 396z" />
    <glyph glyph-name="uni2193.alt.6" horiz-adv-x="415" 
d="M50 558h315l-157 -396z" />
    <glyph glyph-name="uni2190.alt.6" horiz-adv-x="496" 
d="M446 518v-316l-396 158z" />
    <glyph glyph-name="uni2192.alt.6" horiz-adv-x="496" 
d="M50 202v316l396 -158z" />
    <glyph glyph-name="uni2196.alt.6" horiz-adv-x="491" 
d="M441 381l-222 -222l-169 391z" />
    <glyph glyph-name="uni2197.alt.6" horiz-adv-x="491" 
d="M272 159l-222 222l391 169z" />
    <glyph glyph-name="uni2199.alt.6" horiz-adv-x="491" 
d="M219 565l222 -222l-391 -169z" />
    <glyph glyph-name="uni2198.alt.6" horiz-adv-x="491" 
d="M50 343l222 222l169 -391z" />
    <glyph glyph-name="uni2191.alt.1.lc" horiz-adv-x="477" 
d="M427 304l-40 -45l-117 100v-299h-63v299l-117 -100l-40 45l188 157z" />
    <glyph glyph-name="uni2193.alt.1.lc" horiz-adv-x="477" 
d="M50 213l40 45l117 -101v300h63v-300l117 101l40 -45l-189 -157z" />
    <glyph glyph-name="uni2190.alt.1.lc" horiz-adv-x="501" 
d="M207 449l45 -40l-100 -117h299v-63h-299l100 -118l-45 -39l-157 188z" />
    <glyph glyph-name="uni2192.alt.1.lc" horiz-adv-x="501" 
d="M294 72l-45 39l100 118h-299v63h299l-100 117l45 40l157 -189z" />
    <glyph glyph-name="uni2196.alt.1.lc" horiz-adv-x="428" 
d="M316 424l4 -60l-153 -12l211 -211l-45 -45l-211 212l-12 -154l-60 4l22 244z" />
    <glyph glyph-name="uni2197.alt.1.lc" horiz-adv-x="428" 
d="M378 158l-60 -4l-12 154l-211 -212l-45 45l212 211l-154 12l4 60l244 -22z" />
    <glyph glyph-name="uni2199.alt.1.lc" horiz-adv-x="428" 
d="M50 362l60 5l12 -154l211 211l45 -44l-211 -212l154 -12l-5 -60l-244 22z" />
    <glyph glyph-name="uni2198.alt.1.lc" horiz-adv-x="428" 
d="M112 96l-4 60l153 12l-211 212l45 44l211 -211l12 154l60 -5l-22 -244z" />
    <glyph glyph-name="uni2191.alt.2.lc" horiz-adv-x="844" 
d="M570 261l40 45l-189 157l-188 -157l40 -45l117 100v-299h63v299zM752 255q0 143 -94 238.5t-236 95.5t-235.5 -95t-93.5 -239t93.5 -239t235.5 -95t236 95.5t94 238.5zM803 255q0 -160 -110 -269.5t-271 -109.5q-162 0 -271.5 108.5t-109.5 270.5q0 160 110 269.5
t271 109.5q162 0 271.5 -108.5t109.5 -270.5z" />
    <glyph glyph-name="uni2193.alt.2.lc" horiz-adv-x="844" 
d="M273 255l-40 -45l188 -157l189 157l-40 45l-117 -101v300h-63v-300zM752 255q0 143 -94 238.5t-236 95.5t-235.5 -95t-93.5 -239t93.5 -239t235.5 -95t236 95.5t94 238.5zM803 255q0 -160 -110 -269.5t-271 -109.5q-162 0 -271.5 108.5t-109.5 270.5q0 160 110 269.5
t271 109.5q162 0 271.5 -108.5t109.5 -270.5z" />
    <glyph glyph-name="uni2190.alt.2.lc" horiz-adv-x="844" 
d="M418 404l-45 40l-157 -189l157 -188l45 39l-100 118h299v63h-299zM752 255q0 143 -94 238.5t-236 95.5t-235.5 -95t-93.5 -239t93.5 -239t235.5 -95t236 95.5t94 238.5zM803 255q0 -160 -110 -269.5t-271 -109.5q-162 0 -271.5 108.5t-109.5 270.5q0 160 110 269.5
t271 109.5q162 0 271.5 -108.5t109.5 -270.5z" />
    <glyph glyph-name="uni2192.alt.2.lc" horiz-adv-x="844" 
d="M425 106l45 -39l157 188l-157 189l-45 -40l100 -117h-299v-63h299zM752 255q0 143 -94 238.5t-236 95.5t-235.5 -95t-93.5 -239t93.5 -239t235.5 -95t236 95.5t94 238.5zM803 255q0 -160 -110 -269.5t-271 -109.5q-162 0 -271.5 108.5t-109.5 270.5q0 160 110 269.5
t271 109.5q162 0 271.5 -108.5t109.5 -270.5z" />
    <glyph glyph-name="uni2196.alt.2.lc" horiz-adv-x="844" 
d="M525 360l-4 60l-244 -22l-22 -244l60 -4l12 154l211 -212l45 45l-211 211zM752 255q0 143 -94 238.5t-236 95.5t-235.5 -95t-93.5 -239t93.5 -239t235.5 -95t236 95.5t94 238.5zM803 255q0 -160 -110 -269.5t-271 -109.5q-162 0 -271.5 108.5t-109.5 270.5
q0 160 110 269.5t271 109.5q162 0 271.5 -108.5t109.5 -270.5z" />
    <glyph glyph-name="uni2197.alt.2.lc" horiz-adv-x="844" 
d="M523 150l60 4l-22 244l-244 22l-4 -60l154 -12l-212 -211l45 -45l211 212zM752 255q0 143 -94 238.5t-236 95.5t-235.5 -95t-93.5 -239t93.5 -239t235.5 -95t236 95.5t94 238.5zM803 255q0 -160 -110 -269.5t-271 -109.5q-162 0 -271.5 108.5t-109.5 270.5
q0 160 110 269.5t271 109.5q162 0 271.5 -108.5t109.5 -270.5z" />
    <glyph glyph-name="uni2199.alt.2.lc" horiz-adv-x="844" 
d="M315 360l-60 -5l22 -244l244 -22l5 60l-154 12l211 212l-45 44l-211 -211zM752 255q0 143 -94 238.5t-236 95.5t-235.5 -95t-93.5 -239t93.5 -239t235.5 -95t236 95.5t94 238.5zM803 255q0 -160 -110 -269.5t-271 -109.5q-162 0 -271.5 108.5t-109.5 270.5
q0 160 110 269.5t271 109.5q162 0 271.5 -108.5t109.5 -270.5z" />
    <glyph glyph-name="uni2198.alt.2.lc" horiz-adv-x="844" 
d="M313 149l4 -60l244 22l22 244l-60 5l-12 -154l-211 211l-45 -44l211 -212zM752 255q0 143 -94 238.5t-236 95.5t-235.5 -95t-93.5 -239t93.5 -239t235.5 -95t236 95.5t94 238.5zM803 255q0 -160 -110 -269.5t-271 -109.5q-162 0 -271.5 108.5t-109.5 270.5
q0 160 110 269.5t271 109.5q162 0 271.5 -108.5t109.5 -270.5z" />
    <glyph glyph-name="uni2191.alt.3.lc" horiz-adv-x="838" 
d="M568 261l40 45l-189 157l-188 -157l40 -45l117 100v-299h63v299zM793 255q0 -158 -108.5 -266.5t-265.5 -108.5t-265.5 108.5t-108.5 266.5t108.5 266.5t265.5 108.5t265.5 -108.5t108.5 -266.5z" />
    <glyph glyph-name="uni2193.alt.3.lc" horiz-adv-x="838" 
d="M271 255l-40 -45l188 -157l189 157l-40 45l-117 -101v300h-63v-300zM793 255q0 -158 -108.5 -266.5t-265.5 -108.5t-265.5 108.5t-108.5 266.5t108.5 266.5t265.5 108.5t265.5 -108.5t108.5 -266.5z" />
    <glyph glyph-name="uni2190.alt.3.lc" horiz-adv-x="838" 
d="M415 404l-45 40l-157 -189l157 -188l45 39l-100 118h299v63h-299zM793 255q0 -158 -108.5 -266.5t-265.5 -108.5t-265.5 108.5t-108.5 266.5t108.5 266.5t265.5 108.5t265.5 -108.5t108.5 -266.5z" />
    <glyph glyph-name="uni2192.alt.3.lc" horiz-adv-x="838" 
d="M422 106l45 -39l157 188l-157 189l-45 -40l100 -117h-299v-63h299zM793 255q0 -158 -108.5 -266.5t-265.5 -108.5t-265.5 108.5t-108.5 266.5t108.5 266.5t265.5 108.5t265.5 -108.5t108.5 -266.5z" />
    <glyph glyph-name="uni2196.alt.3.lc" horiz-adv-x="838" 
d="M522 360l-4 60l-244 -22l-22 -244l60 -4l12 154l211 -212l45 45l-211 211zM793 255q0 -158 -108.5 -266.5t-265.5 -108.5t-265.5 108.5t-108.5 266.5t108.5 266.5t265.5 108.5t265.5 -108.5t108.5 -266.5z" />
    <glyph glyph-name="uni2197.alt.3.lc" horiz-adv-x="838" 
d="M520 150l60 4l-22 244l-244 22l-4 -60l154 -12l-212 -211l45 -45l211 212zM793 255q0 -158 -108.5 -266.5t-265.5 -108.5t-265.5 108.5t-108.5 266.5t108.5 266.5t265.5 108.5t265.5 -108.5t108.5 -266.5z" />
    <glyph glyph-name="uni2199.alt.3.lc" horiz-adv-x="838" 
d="M312 360l-60 -5l22 -244l244 -22l5 60l-154 12l211 212l-45 44l-211 -211zM793 255q0 -158 -108.5 -266.5t-265.5 -108.5t-265.5 108.5t-108.5 266.5t108.5 266.5t265.5 108.5t265.5 -108.5t108.5 -266.5z" />
    <glyph glyph-name="uni2198.alt.3.lc" horiz-adv-x="838" 
d="M310 149l4 -60l244 22l22 244l-60 5l-12 -154l-211 211l-45 -44l211 -212zM793 255q0 -158 -108.5 -266.5t-265.5 -108.5t-265.5 108.5t-108.5 266.5t108.5 266.5t265.5 108.5t265.5 -108.5t108.5 -266.5z" />
    <glyph glyph-name="uni2191.alt.4.lc" horiz-adv-x="844" 
d="M751 255q0 144 -93.5 239t-235.5 95t-236 -95.5t-94 -238.5t94 -238.5t236 -95.5t235.5 95t93.5 239zM803 255q0 -160 -110 -269.5t-271 -109.5q-162 0 -271.5 108.5t-109.5 270.5q0 160 110 269.5t271 109.5q162 0 271.5 -108.5t109.5 -270.5zM294 127h256l-128 322z
" />
    <glyph glyph-name="uni2193.alt.4.lc" horiz-adv-x="844" 
d="M751 255q0 144 -93.5 239t-235.5 95t-236 -95.5t-94 -238.5t94 -238.5t236 -95.5t235.5 95t93.5 239zM803 255q0 -160 -110 -269.5t-271 -109.5q-162 0 -271.5 108.5t-109.5 270.5q0 160 110 269.5t271 109.5q162 0 271.5 -108.5t109.5 -270.5zM550 383h-256l128 -322z
" />
    <glyph glyph-name="uni2190.alt.4.lc" horiz-adv-x="844" 
d="M751 255q0 144 -93.5 239t-235.5 95t-236 -95.5t-94 -238.5t94 -238.5t236 -95.5t235.5 95t93.5 239zM803 255q0 -160 -110 -269.5t-271 -109.5q-162 0 -271.5 108.5t-109.5 270.5q0 160 110 269.5t271 109.5q162 0 271.5 -108.5t109.5 -270.5zM550 127v256l-322 -128z
" />
    <glyph glyph-name="uni2192.alt.4.lc" horiz-adv-x="844" 
d="M751 255q0 144 -93.5 239t-235.5 95t-236 -95.5t-94 -238.5t94 -238.5t236 -95.5t235.5 95t93.5 239zM803 255q0 -160 -110 -269.5t-271 -109.5q-162 0 -271.5 108.5t-109.5 270.5q0 160 110 269.5t271 109.5q162 0 271.5 -108.5t109.5 -270.5zM294 383v-256l322 128z
" />
    <glyph glyph-name="uni2196.alt.4.lc" horiz-adv-x="844" 
d="M751 255q0 144 -93.5 239t-235.5 95t-236 -95.5t-94 -238.5t94 -238.5t236 -95.5t235.5 95t93.5 239zM803 255q0 -160 -110 -269.5t-271 -109.5q-162 0 -271.5 108.5t-109.5 270.5q0 160 110 269.5t271 109.5q162 0 271.5 -108.5t109.5 -270.5zM422 74l181 181l-318 137z
" />
    <glyph glyph-name="uni2197.alt.4.lc" horiz-adv-x="844" 
d="M751 255q0 144 -93.5 239t-235.5 95t-236 -95.5t-94 -238.5t94 -238.5t236 -95.5t235.5 95t93.5 239zM803 255q0 -160 -110 -269.5t-271 -109.5q-162 0 -271.5 108.5t-109.5 270.5q0 160 110 269.5t271 109.5q162 0 271.5 -108.5t109.5 -270.5zM241 255l181 -181l137 318
z" />
    <glyph glyph-name="uni2199.alt.4.lc" horiz-adv-x="844" 
d="M751 255q0 144 -93.5 239t-235.5 95t-236 -95.5t-94 -238.5t94 -238.5t236 -95.5t235.5 95t93.5 239zM803 255q0 -160 -110 -269.5t-271 -109.5q-162 0 -271.5 108.5t-109.5 270.5q0 160 110 269.5t271 109.5q162 0 271.5 -108.5t109.5 -270.5zM603 255l-181 181
l-137 -318z" />
    <glyph glyph-name="uni2198.alt.4.lc" horiz-adv-x="844" 
d="M751 255q0 144 -93.5 239t-235.5 95t-236 -95.5t-94 -238.5t94 -238.5t236 -95.5t235.5 95t93.5 239zM803 255q0 -160 -110 -269.5t-271 -109.5q-162 0 -271.5 108.5t-109.5 270.5q0 160 110 269.5t271 109.5q162 0 271.5 -108.5t109.5 -270.5zM422 436l-181 -181
l318 -137z" />
    <glyph glyph-name="uni2191.alt.5.lc" horiz-adv-x="838" 
d="M793 255q0 -158 -108.5 -266.5t-265.5 -108.5t-265.5 108.5t-108.5 266.5t108.5 266.5t265.5 108.5t265.5 -108.5t108.5 -266.5zM291 127h256l-128 322z" />
    <glyph glyph-name="uni2193.alt.5.lc" horiz-adv-x="838" 
d="M793 255q0 -158 -108.5 -266.5t-265.5 -108.5t-265.5 108.5t-108.5 266.5t108.5 266.5t265.5 108.5t265.5 -108.5t108.5 -266.5zM547 383h-256l128 -322z" />
    <glyph glyph-name="uni2190.alt.5.lc" horiz-adv-x="838" 
d="M793 255q0 -158 -108.5 -266.5t-265.5 -108.5t-265.5 108.5t-108.5 266.5t108.5 266.5t265.5 108.5t265.5 -108.5t108.5 -266.5zM547 127v256l-322 -128z" />
    <glyph glyph-name="uni2192.alt.5.lc" horiz-adv-x="838" 
d="M793 255q0 -158 -108.5 -266.5t-265.5 -108.5t-265.5 108.5t-108.5 266.5t108.5 266.5t265.5 108.5t265.5 -108.5t108.5 -266.5zM291 383v-256l322 128z" />
    <glyph glyph-name="uni2196.alt.5.lc" horiz-adv-x="838" 
d="M793 255q0 -158 -108.5 -266.5t-265.5 -108.5t-265.5 108.5t-108.5 266.5t108.5 266.5t265.5 108.5t265.5 -108.5t108.5 -266.5zM419 74l181 181l-318 137z" />
    <glyph glyph-name="uni2197.alt.5.lc" horiz-adv-x="838" 
d="M793 255q0 -158 -108.5 -266.5t-265.5 -108.5t-265.5 108.5t-108.5 266.5t108.5 266.5t265.5 108.5t265.5 -108.5t108.5 -266.5zM238 255l181 -181l137 318z" />
    <glyph glyph-name="uni2199.alt.5.lc" horiz-adv-x="838" 
d="M793 255q0 -158 -108.5 -266.5t-265.5 -108.5t-265.5 108.5t-108.5 266.5t108.5 266.5t265.5 108.5t265.5 -108.5t108.5 -266.5zM600 255l-181 181l-137 -318z" />
    <glyph glyph-name="uni2198.alt.5.lc" horiz-adv-x="838" 
d="M793 255q0 -158 -108.5 -266.5t-265.5 -108.5t-265.5 108.5t-108.5 266.5t108.5 266.5t265.5 108.5t265.5 -108.5t108.5 -266.5zM419 436l-181 -181l318 -137z" />
    <glyph glyph-name="uni2191.alt.6.lc" horiz-adv-x="415" 
d="M365 62h-315l158 396z" />
    <glyph glyph-name="uni2193.alt.6.lc" horiz-adv-x="415" 
d="M50 458h315l-157 -396z" />
    <glyph glyph-name="uni2190.alt.6.lc" horiz-adv-x="496" 
d="M446 418v-316l-396 158z" />
    <glyph glyph-name="uni2192.alt.6.lc" horiz-adv-x="496" 
d="M50 102v316l396 -158z" />
    <glyph glyph-name="uni2196.alt.6.lc" horiz-adv-x="491" 
d="M441 281l-222 -222l-169 391z" />
    <glyph glyph-name="uni2197.alt.6.lc" horiz-adv-x="491" 
d="M272 59l-222 222l391 169z" />
    <glyph glyph-name="uni2199.alt.6.lc" horiz-adv-x="491" 
d="M219 465l222 -222l-391 -169z" />
    <glyph glyph-name="uni2198.alt.6.lc" horiz-adv-x="491" 
d="M50 243l222 222l169 -391z" />
    <glyph glyph-name="germandbls.uc" horiz-adv-x="1154" 
d="M1081 195q0 -37 -14.5 -72t-44 -65.5t-80 -49t-116.5 -18.5q-99 0 -187 35l-3 87q107 -37 190 -37q77 0 112 33t35 78q0 36 -22 65.5t-86 58.5l-56 26q-86 39 -121.5 85.5t-35.5 108.5q1 79 64.5 134.5t178.5 55.5q87 0 159 -26l-7 -82q-82 26 -149 26
q-72 0 -107.5 -28.5t-35.5 -72.5q0 -35 23.5 -63t90.5 -58l56 -24q86 -38 121 -86.5t35 -110.5zM506 195q0 -37 -14.5 -72t-44 -65.5t-80 -49t-116.5 -18.5q-99 0 -187 35l-3 87q107 -37 190 -37q77 0 112 33t35 78q0 36 -22 65.5t-86 58.5l-56 26q-86 39 -121.5 85.5
t-35.5 108.5q1 79 64.5 134.5t178.5 55.5q87 0 159 -26l-7 -82q-82 26 -149 26q-72 0 -107.5 -28.5t-35.5 -72.5q0 -35 23.5 -63t90.5 -58l56 -24q86 -38 121 -86.5t35 -110.5z" />
    <glyph glyph-name="Q.alt.1" horiz-adv-x="875" 
d="M810 365q0 -141 -80.5 -241t-213.5 -121q80 -63 148 -103q115 -68 221 -90t225 0l-5 -72q-125 -34 -246 -12.5t-251 102.5q-17 11 -33.5 21.5t-34.5 23.5t-29.5 21.5t-31.5 25t-28 22.5t-31.5 25.5t-29.5 24.5q-116 11 -196 78q-62 51 -95.5 127t-33.5 166q0 184 140 284
q97 73 236 73q172 0 271 -101q98 -100 98 -254zM709 355q0 126 -77 205q-73 76 -201 76q-100 0 -170 -56q-44 -33 -69.5 -87.5t-25.5 -119.5q0 -148 92 -234q71 -66 170 -66h8q101 0 166 48q107 79 107 234z" />
    <glyph glyph-name="Q.alt.2" horiz-adv-x="874" 
d="M810 365q0 -137 -76.5 -236t-200.5 -123q131 -86 271 -147q432 -186 905 -33l-2 -77q-506 -177 -957 36q-168 80 -346 206q-126 8 -210 79q-62 51 -95.5 127t-33.5 166q0 184 140 284q98 74 236 74q171 0 271 -102q98 -100 98 -254zM709 356q0 125 -77 204
q-74 77 -201 77q-99 0 -170 -57q-44 -33 -69.5 -87.5t-25.5 -119.5q0 -149 92 -233q32 -30 77 -48.5t93 -18.5h8q101 0 166 48q107 79 107 235z" />
    <glyph glyph-name="exclamdown.uc" horiz-adv-x="272" 
d="M86 0l2 146q2 183 11 347h76q9 -164 11 -347l2 -146h-102zM76 659q0 26 17.5 43t43.5 17t42.5 -18t16.5 -45q0 -25 -17 -42.5t-44 -17.5q-26 0 -42.5 18t-16.5 45z" />
    <glyph glyph-name="questiondown.uc" horiz-adv-x="419" 
d="M47 142q0 82 87 149l23 18q59 47 59 95q0 28 -24 73l73 23q45 -59 45 -113q0 -67 -83 -132l-23 -18q-60 -47 -60 -91q0 -34 30 -57t79 -23q42 0 104 22l9 -75q-62 -25 -131 -25q-87 0 -137.5 46t-50.5 108zM181 657q0 26 17 43t44 17q26 0 42.5 -18t16.5 -45
q0 -25 -17 -42.5t-44 -17.5q-26 0 -42.5 18t-16.5 45z" />
    <glyph glyph-name="guillemotleft.uc" horiz-adv-x="551" 
d="M28 338l200 234l60 -48l-157 -182l162 -193l-64 -50zM274 338l180 211l55 -44l-142 -164l146 -173l-58 -45z" />
    <glyph glyph-name="guillemotright.uc" horiz-adv-x="551" 
d="M523 333l-200 -234l-60 48l157 182l-162 193l64 50zM277 333l-180 -211l-55 44l142 164l-146 173l58 45z" />
    <glyph glyph-name="guilsinglleft.uc" horiz-adv-x="331" 
d="M28 336l200 234l60 -48l-157 -182l162 -193l-64 -50z" />
    <glyph glyph-name="guilsinglright.uc" horiz-adv-x="331" 
d="M303 333l-200 -234l-60 48l157 182l-162 193l64 50z" />
    <glyph glyph-name="hyphen.uc" horiz-adv-x="320" 
d="M293 318h-267v74h267v-74z" />
    <glyph glyph-name="endash.uc" horiz-adv-x="500" 
d="M20 313v81h460v-81h-460z" />
    <glyph glyph-name="emdash.uc" horiz-adv-x="1000" 
d="M20 313v81h960v-81h-960z" />
    <glyph glyph-name="parenleft.uc" horiz-adv-x="410" 
d="M373 -76l-62 -34q-122 75 -185.5 194t-63.5 264t63.5 264t185.5 194l62 -34q-221 -142 -221 -424t221 -424z" />
    <glyph glyph-name="parenright.uc" horiz-adv-x="410" 
d="M348 348q0 -145 -63.5 -264t-185.5 -194l-62 34q221 142 221 424t-221 424l62 34q122 -75 185.5 -194t63.5 -264z" />
    <glyph glyph-name="braceleft.uc" horiz-adv-x="336" 
d="M308 -41l-3 -62h-235v904h238l-3 -62h-151v-780h154z" />
    <glyph glyph-name="braceright.uc" horiz-adv-x="336" 
d="M266 -103h-239l3 62h151v780h-154l3 62h236v-904z" />
    <glyph glyph-name="bracketleft.uc" horiz-adv-x="441" 
d="M413 -43v-61q-129 -9 -178 37t-49 157v43q0 56 -3 83.5t-17 52.5t-41.5 35t-77.5 15l2 63q84 8 110.5 38.5t26.5 122.5v55q0 121 52 164t175 36v-61q-83 0 -113 -27t-30 -104v-38q0 -110 -21 -153.5t-96 -60.5q72 -13 94.5 -55.5t22.5 -149.5v-44q0 -88 26 -117.5
t117 -30.5z" />
    <glyph glyph-name="bracketright.uc" horiz-adv-x="441" 
d="M28 734v60q129 9 178 -36.5t49 -156.5v-35q0 -45 2 -68.5t9 -48t22 -36t40 -20t65 -12.5l-2 -64q-84 -7 -110 -37.5t-26 -123.5v-64q0 -120 -52.5 -163t-175.5 -36l1 60q83 0 113 27t30 104v48q0 110 20.5 153t96.5 61q-71 12 -94 54.5t-23 149.5v35q0 89 -26.5 118.5
t-116.5 30.5z" />
    <glyph glyph-name="zero.prop" horiz-adv-x="651" 
d="M584 362q0 -182 -72 -277t-194 -95q-115 0 -183 88.5t-68 269.5q0 182 72 277t194 95q115 0 183 -88.5t68 -269.5zM486 354q0 140 -42 212t-116 72q-163 0 -163 -282q0 -140 41.5 -212t115.5 -72q164 0 164 282z" />
    <glyph glyph-name="one.prop" horiz-adv-x="423" 
d="M286 0h-94v627l-161 -17l-7 76l178 24h84v-710z" />
    <glyph glyph-name="two.prop" horiz-adv-x="576" 
d="M513 83l-9 -83h-435v75l141 152q99 107 132 168.5t33 110.5q0 61 -40.5 96.5t-102.5 35.5q-75 0 -157 -50l-6 80q79 52 179 52q101 0 164.5 -58t63.5 -149q0 -65 -39.5 -140t-147.5 -187l-98 -103h322z" />
    <glyph glyph-name="three.prop" horiz-adv-x="572" 
d="M495 191q0 -82 -62.5 -141.5t-176.5 -59.5q-102 0 -187 55l-2 88q98 -62 188 -62q65 0 102 32t37 84q0 51 -48 91t-153 52v70q101 12 145 50t44 86q0 45 -35 74.5t-95 29.5q-82 0 -164 -52l-6 81q81 51 181 51q101 0 158.5 -51.5t57.5 -123.5q0 -52 -35 -100.5
t-111 -72.5q82 -21 122 -72.5t40 -108.5z" />
    <glyph glyph-name="four.prop" horiz-adv-x="615" 
d="M588 253l-7 -80h-123v-173h-93v173h-328v71l319 466h102v-457h130zM368 593l-231 -340h228v254z" />
    <glyph glyph-name="five.prop" horiz-adv-x="584" 
d="M509 727l-11 -88l-277 -17l-31 -172q160 -17 234 -86t74 -160q0 -84 -63 -149t-173 -65q-90 0 -171 47v89q86 -53 166 -53q66 0 102 37.5t36 88.5q0 24 -9 47.5t-32 46.5t-57 41t-88 30t-122 14l60 327z" />
    <glyph glyph-name="six.prop" horiz-adv-x="604" 
d="M541 215q0 -93 -62 -159t-163 -66q-107 0 -177.5 83.5t-70.5 244.5q0 193 104.5 296t276.5 103q24 0 64 -5v-79q-30 3 -59 3q-118 0 -195.5 -62.5t-86.5 -179.5q66 36 139 36q98 0 164 -59t66 -156zM442 207q0 61 -41 101t-108 40q-71 0 -128 -35q-3 -125 43.5 -183.5
t106.5 -58.5q56 0 91.5 36.5t35.5 99.5z" />
    <glyph glyph-name="seven.prop" horiz-adv-x="560" 
d="M495 710v-80l-312 -641l-83 32l292 600h-340l6 89h437z" />
    <glyph glyph-name="eight.prop" horiz-adv-x="609" 
d="M546 185q0 -76 -64.5 -135.5t-181.5 -59.5q-105 0 -169.5 52.5t-64.5 134.5q0 115 139 181q-125 64 -125 173q0 80 63 134.5t167 54.5q99 0 157 -49t58 -125q0 -115 -132 -174q153 -66 153 -187zM432 541q0 45 -34.5 75t-92.5 30t-92 -30.5t-34 -77.5q0 -84 129 -136
q124 47 124 139zM443 176q0 99 -158 150q-123 -51 -123 -142q0 -49 39 -83.5t106 -34.5q63 0 99.5 33.5t36.5 76.5z" />
    <glyph glyph-name="nine.prop" horiz-adv-x="604" 
d="M536 392q0 -193 -105 -296t-277 -103q-24 0 -64 5v79q30 -3 59 -3q118 0 195.5 62.5t86.5 179.5q-66 -36 -139 -36q-98 0 -163.5 59t-65.5 156q0 93 61.5 159t162.5 66q107 0 178 -83.5t71 -244.5zM438 397q3 125 -43.5 183.5t-106.5 58.5q-56 0 -91.5 -36.5t-35.5 -99.5
q0 -61 41 -101t108 -40q71 0 128 35z" />
    <glyph glyph-name="numbersign.prop" horiz-adv-x="597" 
d="M568 498l-9 -70h-90l-27 -217h90l-8 -70h-91l-17 -141h-77l18 141h-161l-18 -141h-77l18 141h-90l8 70h90l27 217h-91l9 70h90l17 134h77l-17 -134h161l17 134h77l-17 -134h91zM392 428h-161l-27 -217h161z" />
    <glyph glyph-name="cent.prop" horiz-adv-x="540" 
d="M458 99l-2 -75q-63 -33 -136 -33l-3 -90l-53 3l3 90q-95 13 -149 81t-54 172q0 121 61 189t161 77l3 90l53 -1l-3 -89q60 -2 110 -24l-8 -75q-50 19 -105 23l-13 -369q66 0 135 31zM283 435q-58 -9 -91.5 -52.5t-33.5 -122.5q0 -74 30 -121t82 -63z" />
    <glyph glyph-name="dollar.prop" horiz-adv-x="588" 
d="M510 198q0 -71 -53.5 -129.5t-158.5 -69.5l-4 -97l-53 2l3 94q-87 3 -172 36l-2 84q98 -36 178 -38l9 252q-94 39 -133.5 87.5t-39.5 109.5q1 70 53.5 121.5t147.5 60.5l5 98l53 -3l-4 -93q71 -2 146 -24l-7 -79q-83 23 -142 25l-9 -234q183 -71 183 -203zM282 632
q-50 -6 -76 -34t-26 -63q0 -66 94 -112zM409 191q0 72 -99 119l-8 -228q55 8 81 38.5t26 70.5z" />
    <glyph glyph-name="Euro.prop" horiz-adv-x="594" 
d="M452 254h-252q10 -91 61.5 -137.5t127.5 -46.5q71 0 152 39l-6 -81q-72 -38 -159 -38q-116 0 -189.5 69.5t-86.5 194.5h-73v51h69q-2 21 -2 53l3 52h-70v51h75q16 128 94.5 193.5t189.5 65.5q77 0 142 -24l-8 -79q-69 23 -132 23q-77 0 -128.5 -45t-60.5 -134h253v-51
h-259q-2 -22 -2 -52l3 -53h258v-51z" />
    <glyph glyph-name="uni20A3.prop" horiz-adv-x="581" 
d="M509 630h-284v-234h274v-80h-274v-119h183v-56h-183v-141h-96v141h-104v56h104v513h380v-80z" />
    <glyph glyph-name="sterling.prop" horiz-adv-x="590" 
d="M533 82l-7 -82h-399q-40 0 -84 -5l-4 64q64 33 90.5 68.5t26.5 85.5q0 39 -14 100h-95v56h82q-11 61 -11 105q0 125 72.5 185t185.5 60q66 0 127 -19l-10 -76q-66 16 -120 16q-67 0 -113 -39.5t-46 -128.5q0 -38 13 -103h215v-56h-203q12 -57 12 -96q0 -87 -70 -141
q32 6 82 6h270z" />
    <glyph glyph-name="yen.prop" horiz-adv-x="665" 
d="M641 710l-234 -365h173v-51h-198v-102h198v-52h-198v-140h-96v140h-195v52h195v102h-195v51h169l-236 365h115l202 -316l196 316h104z" />
    <glyph glyph-name="uni20A4.prop" horiz-adv-x="590" 
d="M533 82l-7 -82h-399q-40 0 -84 -5l-4 64q67 35 95 75t21 105h-108v51h100q-19 88 -22 105h-78v51h72q-9 129 60.5 201t196.5 72q66 0 127 -19l-10 -76q-66 16 -120 16q-82 0 -124 -52t-34 -142h227v-51h-220q3 -15 22 -105h198v-51h-192q9 -105 -69 -163q32 6 82 6h270z
" />
    <glyph glyph-name="uni20A1.prop" horiz-adv-x="603" 
d="M550 124l-7 -83q-56 -27 -108 -35l-3 -98l-52 3l2 89q-44 -1 -92 8l-3 -100l-52 3l3 113q-183 69 -183 329q0 140 54.5 224.5t151.5 115.5l4 110l52 -1l-4 -96q46 9 94 5l3 92l52 -1l-4 -97q33 -6 75 -20l-8 -82q-29 11 -70 20l-17 -536q48 6 112 37zM258 603
q-104 -58 -104 -241q0 -175 87 -238zM404 631q-47 5 -93 -8l-19 -528q39 -13 93 -13z" />
    <glyph glyph-name="florin.prop" horiz-adv-x="567" 
d="M513 708l-8 -74q-43 11 -77 11q-53 0 -82.5 -32.5t-33.5 -114.5l-3 -68h161v-64h-163l-8 -236q-11 -310 -217 -310q-50 0 -84 14l-1 76q42 -13 80 -13q117 0 125 210l9 259h-136v64h138l3 54q6 127 64.5 182t147.5 55q40 0 85 -13z" />
    <glyph glyph-name="uni20A9.prop" horiz-adv-x="1175" 
d="M1147 307h-201l-106 -305l-106 -4l-148 407l-142 -403l-108 -4l-110 309h-198v52h181l-39 107h-142v51h124l-68 193h103l66 -193h293l-70 193h99l67 -193h285l64 193h96l-68 -193h128v-51h-145l-38 -107h183v-52zM526 466h-255l37 -107h180zM471 307h-145l73 -208z
M910 466h-249l38 -107h175zM857 307h-140l72 -201z" />
    <glyph glyph-name="uni20B4.prop" horiz-adv-x="584" 
d="M548 257h-312q-49 -43 -49 -89q0 -40 37 -68t114 -28q70 0 174 36l-2 -84q-94 -34 -188 -34q-128 0 -184.5 51t-56.5 117q0 53 41 99h-90v49h134q36 34 117 96h-251v49h303q56 51 56 98q0 38 -34 64t-91 26q-76 0 -162 -33l-10 77q89 37 183 37q110 0 163 -47.5
t53 -114.5q0 -56 -45 -107h100v-49h-142q-31 -31 -113 -96h255v-49z" />
    <glyph glyph-name="f.alt" horiz-adv-x="347" 
d="M350 769l-6 -71q-27 5 -51 5q-43 0 -68 -23t-34 -78q-3 -22 -3 -65v-46h139l-4 -72h-135v-419h-91v419h-80v63l80 9v31q0 76 11 119q35 136 182 136q33 0 60 -8z" />
    <glyph glyph-name="f_f.alt" horiz-adv-x="662" 
d="M674 769l-7 -71q-28 5 -50 5q-90 0 -103 -103q-3 -22 -3 -63v-46h140l-4 -72h-136v-419h-90v419h-233v-419h-91v419h-80v63l80 9v32q0 74 11 118q35 136 192 136q39 0 70 -9l-7 -71q-30 6 -60 6q-50 0 -76.5 -22t-35.5 -78q-3 -23 -3 -64v-48h233v31q0 78 11 121
q36 134 182 134q33 0 60 -8z" />
    <glyph glyph-name="longs_longs" horiz-adv-x="616" 
d="M363 770l-7 -71q-25 4 -53 4q-50 0 -76.5 -22t-35.5 -78q-3 -23 -3 -64v-539h-91v419h-80v63l80 9v32q0 74 11 118q35 136 192 136q35 0 63 -7zM712 764l-7 -71q-43 10 -81 10q-104 0 -115 -103q-3 -22 -3 -61v-539h-91v419h-80v63l80 9v32q0 74 11 118q17 68 68.5 102
t125.5 34q54 0 92 -13z" />
    <glyph glyph-name="longs.alt" horiz-adv-x="297" 
d="M350 769l-6 -71q-27 5 -51 5q-43 0 -68 -23t-34 -78q-3 -22 -3 -65v-537h-91v419h-80v63l80 9v31q0 76 11 119q35 136 182 136q33 0 60 -8z" />
    <glyph glyph-name="longs_longs.alt" horiz-adv-x="615" 
d="M363 770l-7 -71q-25 4 -53 4q-50 0 -76.5 -22t-35.5 -78q-3 -23 -3 -64v-539h-91v419h-80v63l80 9v32q0 74 11 118q35 136 192 136q35 0 63 -7zM668 769l-6 -71q-27 5 -51 5q-43 0 -68 -23t-34 -78q-3 -23 -3 -65v-537h-91v419h-80v63l80 9v31q0 76 11 119
q35 136 182 136q33 0 60 -8z" />
    <glyph glyph-name="c_h" horiz-adv-x="1074" 
d="M455 105l-1 -75q-73 -39 -152 -39q-116 0 -182 69.5t-66 185.5q0 129 68 197.5t179 68.5q74 0 132 -25l-8 -76q-59 24 -121 24q-71 0 -114 -43.5t-43 -132.5q0 -92 46.5 -141.5t120.5 -49.5q67 0 141 37zM999 0h-91v262q0 27 -2 61q-8 111 -109 111q-69 0 -123 -57v-377
h-91v765l91 9v-254q0 -50 -4 -74q60 66 153 66q117 0 157 -95q19 -44 19 -143v-274z" />
    <glyph glyph-name="c_k" horiz-adv-x="1054" 
d="M455 105l-1 -75q-73 -39 -152 -39q-116 0 -182 69.5t-66 185.5q0 129 68 197.5t179 68.5q74 0 132 -25l-8 -76q-59 24 -121 24q-71 0 -114 -43.5t-43 -132.5q0 -92 46.5 -141.5t120.5 -49.5q67 0 141 37zM674 0h-91v765l91 9v-774zM1021 0h-115l-213 264l207 239h108
l-209 -234z" />
    <glyph glyph-name="c_t" horiz-adv-x="884" 
d="M854 84l-1 -71q-48 -22 -100 -22q-160 0 -160 163v265h-77v63l81 9q5 25 5 56q0 71 -38 101q-38 29 -101 29q-70 0 -108.5 -29.5t-38.5 -68.5q0 -47 42 -67q11 -5 35.5 -12t39.5 -13l-8 -76q-59 24 -121 24q-71 0 -114 -43.5t-43 -132.5q0 -92 46.5 -141.5t119.5 -49.5
q59 0 129 31l-2 -75q-63 -33 -139 -33q-115 0 -181 69.5t-66 185.5q0 121 59.5 188.5t159.5 76.5q-35 27 -35 81q0 65 64.5 110t171.5 45t165 -49q51 -44 51 -138l-5 -69h152l-4 -72h-149v-256q0 -96 87 -96q39 0 83 17z" />
    <glyph glyph-name="s_p" horiz-adv-x="1044" 
d="M990 265q0 -127 -72 -201t-200 -74q-48 0 -89 12v-252h-91v710q0 122 6 183q-54 10 -111 10q-124 0 -124 -98q0 -22 6 -50q29 -5 60 -19l-7 -70q-63 24 -123 24q-47 0 -71.5 -20.5t-24.5 -45.5q0 -46 80 -72l47 -16q118 -41 118 -141q0 -59 -47.5 -106.5t-143.5 -47.5
q-77 0 -144 32l-2 75q76 -34 143 -34q49 0 74.5 23t25.5 52q0 23 -16.5 42.5t-64.5 35.5l-47 16q-113 39 -113 136q0 53 46 98t137 45h2q-10 27 -10 56q0 68 52 110.5t156 42.5q85 0 196 -13q-14 -79 -14 -206v-63q55 74 155 74q91 0 151 -65t60 -183zM896 253
q0 90 -40.5 137t-96.5 47q-73 0 -130 -62v-294q41 -17 97 -17q79 0 124.5 49t45.5 140z" />
    <glyph glyph-name="s_t" horiz-adv-x="835" 
d="M804 13q-48 -22 -100 -22q-159 0 -159 163v265h-78v63l81 9q5 25 5 56q0 71 -38 101q-38 29 -101 29q-70 0 -108.5 -29t-38.5 -69q0 -50 39 -69q9 -4 32 -11t37 -13l-7 -70q-63 24 -123 24q-47 0 -71.5 -20.5t-24.5 -45.5q0 -46 80 -72l47 -16q118 -41 118 -141
q0 -59 -47.5 -106.5t-143.5 -47.5q-77 0 -144 32l-2 75q76 -34 143 -34q49 0 74.5 23t25.5 52q0 23 -16.5 42.5t-64.5 35.5l-47 16q-113 39 -113 136q0 50 41.5 93.5t122.5 48.5q-34 28 -34 81q0 65 64.5 110t171.5 45t165 -49q51 -44 51 -138l-5 -69h152l-4 -72h-149v-256
q0 -96 87 -96q39 0 84 17z" />
    <glyph glyph-name="t_t" horiz-adv-x="756" 
d="M727 84l-2 -71q-48 -22 -100 -22q-159 0 -159 163v265h-288v-256q0 -96 87 -96q39 0 83 17l-1 -71q-48 -22 -100 -22q-160 0 -160 163v265h-77v63l81 9l14 102l73 1v-103h291l14 102l73 1v-103h153l-4 -72h-149v-256q0 -96 87 -96q39 0 84 17z" />
    <glyph glyph-name="zero.osf" horiz-adv-x="548" 
d="M524 269q0 -124 -72.5 -201.5t-184.5 -77.5q-108 0 -175 75.5t-67 198.5q0 124 72.5 201.5t184.5 77.5q107 0 174.5 -76t67.5 -198zM430 264q0 86 -41 144.5t-114 58.5q-68 0 -112.5 -53t-44.5 -146q0 -85 41 -143.5t115 -58.5q68 0 112 53t44 145z" />
    <glyph glyph-name="one.osf" horiz-adv-x="548" 
d="M470 0h-382v75l153 4v373l-149 -17l-7 73l167 25h80v-454l138 -4v-75z" />
    <glyph glyph-name="two.osf" horiz-adv-x="548" 
d="M479 80l-10 -80h-390v70q149 117 204.5 182.5t55.5 113.5q0 47 -29 74t-82 27q-69 0 -144 -48l-6 72q74 52 169 52q91 0 139.5 -47.5t48.5 -117.5q0 -131 -236 -300q22 2 63 2h217z" />
    <glyph glyph-name="three.osf" horiz-adv-x="548" 
d="M475 14q0 -81 -63.5 -141t-176.5 -60q-103 0 -186 55l-2 83q98 -62 188 -62q67 0 105 34.5t38 84.5q0 55 -50 94.5t-155 51.5v67q103 12 147 49.5t44 87.5q0 47 -35.5 78.5t-97.5 31.5q-81 0 -163 -52l-7 75q77 52 182 52q101 0 158.5 -52t57.5 -123q0 -29 -9.5 -57.5
t-44.5 -63t-93 -52.5q81 -19 122 -72t41 -109z" />
    <glyph glyph-name="four.osf" horiz-adv-x="548" 
d="M519 106l-8 -78h-80v-208h-89v208h-315v73l295 432h109v-427h88zM342 106v248l1 77l-224 -326q24 1 70 1h153z" />
    <glyph glyph-name="five.osf" horiz-adv-x="548" 
d="M489 555l-10 -86l-282 -26l-32 -178q86 -6 149.5 -29.5t97.5 -58t49.5 -71t15.5 -74.5q0 -89 -64.5 -154t-172.5 -65q-92 0 -172 46v86q86 -53 169 -53q64 0 101.5 39.5t37.5 95.5q0 23 -8 44.5t-29.5 44t-55 39t-90.5 27.5t-130 12l61 328z" />
    <glyph glyph-name="six.osf" horiz-adv-x="548" 
d="M515 215q0 -93 -61.5 -159t-160.5 -66q-107 0 -178 83.5t-71 244.5q0 195 104.5 296.5t277.5 101.5q32 0 64 -4v-77q-30 3 -59 3q-119 0 -197 -62.5t-88 -182.5q66 36 142 36q96 0 161.5 -58.5t65.5 -155.5zM421 207q0 62 -42 102.5t-109 40.5q-73 0 -130 -35
q-3 -127 44 -187t108 -60q57 0 93 37.5t36 101.5z" />
    <glyph glyph-name="seven.osf" horiz-adv-x="548" 
d="M496 533v-82l-319 -635l-80 35l298 594h-344l5 88h440z" />
    <glyph glyph-name="eight.osf" horiz-adv-x="550" 
d="M525 185q0 -76 -63.5 -135.5t-180.5 -59.5q-106 0 -171.5 52.5t-65.5 134.5q0 115 140 181q-125 64 -125 173q0 80 63 134.5t167 54.5q99 0 157 -49t58 -125q0 -115 -132 -174q153 -66 153 -187zM412 541q0 46 -34.5 76.5t-93.5 30.5t-93.5 -30.5t-34.5 -79.5
q0 -86 131 -136q125 46 125 139zM423 177q0 98 -159 150q-125 -52 -125 -143q0 -50 39 -85t106 -35q65 0 102 34.5t37 78.5z" />
    <glyph glyph-name="nine.osf" horiz-adv-x="548" 
d="M504 214q0 -194 -104.5 -295.5t-277.5 -101.5q-32 0 -64 4v77q30 -3 59 -3q119 0 197 62.5t89 182.5q-66 -37 -143 -37q-95 0 -161 59t-66 156q0 93 61.5 159t161.5 66q106 0 177 -83.5t71 -245.5zM408 217q4 127 -43.5 187.5t-108.5 60.5q-57 0 -93 -37.5t-36 -101.5
q0 -62 42 -102.5t109 -40.5q72 0 130 34z" />
    <glyph glyph-name="numbersign.osf" horiz-adv-x="548" 
d="M525 461l-8 -64h-85l-25 -206h85l-8 -65h-85l-16 -126h-71l15 126h-148l-16 -126h-71l15 126h-84l8 65h85l25 206h-85l7 64h85l15 122h72l-15 -122h148l15 122h72l-15 -122h85zM361 397h-149l-25 -206h148z" />
    <glyph glyph-name="cent.osf" horiz-adv-x="548" 
d="M424 132l-2 -71q-48 -23 -100 -27l-4 -81l-48 2l3 81q-82 9 -129 65.5t-47 144.5q0 100 52.5 155.5t142.5 60.5l3 79l48 -2l-3 -77q32 -4 77 -20l-9 -69q-39 15 -71 18l-12 -287q40 1 99 28zM289 392q-104 -12 -104 -136t92 -147z" />
    <glyph glyph-name="dollar.osf" horiz-adv-x="548" 
d="M451 159q0 -50 -42.5 -92.5t-127.5 -49.5l-3 -81l-48 2l3 78q-62 2 -137 29l-1 68q84 -30 141 -30l7 158q-140 48 -140 143q0 52 41 91t121 44l3 83l48 -1l-3 -82q57 -1 118 -20l-7 -67q-64 20 -114 21l-6 -147q87 -29 117 -65.5t30 -81.5zM263 453q-37 -3 -55 -21.5
t-18 -41.5q0 -21 13.5 -37.5t53.5 -32.5zM361 152q0 50 -72 75l-5 -143q39 4 58 23t19 45z" />
    <glyph glyph-name="Euro.osf" horiz-adv-x="548" 
d="M493 101l-6 -72q-68 -38 -143 -38q-96 0 -160.5 50.5t-76.5 144.5h-58v46h55q-1 23 -1 37l1 34h-55v47h59q15 93 81 142.5t156 49.5q73 0 135 -26l-8 -67q-70 26 -127 26q-58 0 -97 -32.5t-49 -92.5h193v-46h-199q-1 -15 -1 -32l1 -40h199v-46h-192q9 -62 50.5 -95
t102.5 -33q59 0 140 43z" />
    <glyph glyph-name="uni20A3.osf" horiz-adv-x="548" 
d="M440 465h-223v-164h214v-67h-214v-81h143v-48h-143v-105h-90v105h-84v48h84v380h313v-68z" />
    <glyph glyph-name="sterling.osf" horiz-adv-x="548" 
d="M474 69l-7 -69h-322q-31 0 -74 -5l-4 55q50 24 71 49.5t21 62.5q0 22 -11 70h-74v50h63q-7 39 -7 73q0 95 59.5 139.5t153.5 44.5q53 0 106 -15l-9 -65q-60 13 -100 13q-51 0 -84.5 -27.5t-33.5 -91.5q0 -28 9 -71h169v-50h-158q9 -43 9 -67q0 -60 -46 -98q30 2 49 2h220
z" />
    <glyph glyph-name="yen.osf" horiz-adv-x="548" 
d="M525 533l-184 -270h133v-46h-156v-68h156v-46h-156v-103h-92v103h-151v46h151v68h-151v46h128l-186 270h107l153 -226l149 226h99z" />
    <glyph glyph-name="uni20A4.osf" horiz-adv-x="548" 
d="M474 69l-7 -69h-322q-33 0 -74 -5l-4 55q51 24 73 52t18 73h-84v47h78q-1 5 -7 29.5t-9 39.5h-62v48h56q-6 104 55 152t158 48q51 0 106 -15l-9 -65q-60 13 -100 13q-58 0 -90 -33.5t-27 -99.5h177v-48h-171q2 -13 7 -35.5t7 -33.5h157v-47h-150q3 -68 -45 -108
q28 2 49 2h220z" />
    <glyph glyph-name="uni20A1.osf" horiz-adv-x="548" 
d="M472 103l-7 -72q-36 -17 -86 -26l-2 -91l-49 2l2 84q-36 0 -66 5l-3 -91l-48 2l2 101q-74 24 -113.5 89t-39.5 158q0 100 45.5 166t126.5 89l3 98l48 -2l-2 -86q36 5 66 2l3 86l48 -2l-3 -89q34 -6 62 -15l-5 -71q-40 15 -60 17l-14 -383q43 8 92 29zM232 444
q-80 -38 -80 -172q0 -130 68 -174zM347 463q-41 3 -67 -4l-14 -382q29 -11 67 -7z" />
    </font>
</defs>
</svg>
